%TF.GenerationSoftware,KiCad,Pcbnew,8.0.8*%
%TF.CreationDate,2025-05-17T22:55:18-04:00*%
%TF.ProjectId,amp board,616d7020-626f-4617-9264-2e6b69636164,rev?*%
%TF.SameCoordinates,Original*%
%TF.FileFunction,Soldermask,Top*%
%TF.FilePolarity,Negative*%
%FSLAX46Y46*%
G04 Gerber Fmt 4.6, Leading zero omitted, Abs format (unit mm)*
G04 Created by KiCad (PCBNEW 8.0.8) date 2025-05-17 22:55:18*
%MOMM*%
%LPD*%
G01*
G04 APERTURE LIST*
%ADD10C,0.685000*%
%ADD11C,0.000000*%
%ADD12R,0.584200X0.584200*%
%ADD13C,0.635000*%
%ADD14R,0.950000X0.950000*%
%ADD15R,0.960000X1.390000*%
%ADD16R,1.525000X0.650000*%
%ADD17R,0.420000X0.640000*%
%ADD18R,1.000000X0.900000*%
%ADD19R,0.750000X0.940000*%
%ADD20R,0.650000X0.900000*%
%ADD21R,0.900000X0.650000*%
%ADD22R,1.820000X1.070000*%
%ADD23R,1.100000X1.000000*%
%ADD24C,4.100000*%
%ADD25C,7.400000*%
%ADD26R,2.355000X2.355000*%
%ADD27C,2.355000*%
%ADD28R,2.250000X1.600000*%
%ADD29R,1.000000X1.100000*%
%ADD30R,1.150000X1.150000*%
%ADD31C,1.150000*%
%ADD32R,0.780000X0.980000*%
%ADD33R,3.450000X3.450000*%
%ADD34C,3.450000*%
%ADD35R,0.940000X0.750000*%
%ADD36R,1.470000X0.970000*%
%ADD37R,1.600000X1.050000*%
%ADD38R,0.600000X1.300000*%
%ADD39R,0.600000X0.700000*%
%ADD40R,2.025000X2.025000*%
%ADD41C,2.025000*%
%ADD42R,4.064000X4.064000*%
%ADD43C,4.064000*%
%ADD44R,1.070000X1.820000*%
%ADD45R,1.200000X0.600000*%
%ADD46R,1.050000X1.800000*%
%ADD47R,1.300000X0.600000*%
%ADD48R,0.950000X1.400000*%
%ADD49C,3.700000*%
%ADD50R,1.000000X0.950000*%
%ADD51R,1.075000X0.300000*%
%ADD52R,0.450000X1.475000*%
%ADD53R,2.200000X2.150000*%
%ADD54R,0.950000X1.000000*%
%ADD55R,0.700000X0.600000*%
%ADD56C,3.600000*%
%ADD57C,5.700000*%
%ADD58R,0.910000X1.390000*%
%ADD59R,0.300000X1.075000*%
%ADD60R,1.650000X0.700000*%
%ADD61R,2.600000X3.500000*%
%ADD62R,0.980000X0.780000*%
%ADD63R,1.050000X1.600000*%
%ADD64R,1.650000X1.650000*%
%ADD65C,1.650000*%
%ADD66R,1.250000X0.600000*%
%ADD67R,2.800000X2.200000*%
%ADD68R,2.800000X2.800000*%
%ADD69C,2.550000*%
%ADD70R,0.450000X1.400000*%
%ADD71R,2.150000X1.846000*%
%ADD72C,3.954000*%
%ADD73R,1.935000X1.935000*%
%ADD74C,1.935000*%
%ADD75C,2.794000*%
%ADD76R,1.725000X1.725000*%
%ADD77C,1.725000*%
%ADD78R,0.650000X1.525000*%
%ADD79R,0.450000X0.600000*%
%ADD80R,1.550000X1.300000*%
%ADD81R,1.371600X0.457200*%
%ADD82R,1.475000X0.450000*%
%ADD83R,0.640000X0.420000*%
%ADD84R,1.425000X0.450000*%
%ADD85R,0.500000X1.000000*%
%ADD86R,0.700000X1.300000*%
%ADD87R,2.100000X5.600000*%
%ADD88R,2.715000X2.715000*%
%ADD89C,2.715000*%
%ADD90R,1.600000X3.500000*%
%ADD91R,1.000000X1.000000*%
%ADD92C,1.000000*%
%ADD93R,1.400000X0.950000*%
%ADD94C,1.524000*%
%ADD95R,0.850000X0.300000*%
%ADD96R,1.700000X5.700000*%
%ADD97R,1.450000X0.300000*%
%ADD98R,0.700000X0.650000*%
%ADD99R,4.000000X2.150000*%
%ADD100R,1.200000X0.650000*%
%ADD101R,1.475000X0.300000*%
%ADD102R,0.300000X1.475000*%
G04 APERTURE END LIST*
%TO.C,TP134*%
D10*
X356425500Y-223393200D02*
G75*
G02*
X355740500Y-223393200I-342500J0D01*
G01*
X355740500Y-223393200D02*
G75*
G02*
X356425500Y-223393200I342500J0D01*
G01*
%TO.C,TP5*%
X377786900Y-282397400D02*
G75*
G02*
X377101900Y-282397400I-342500J0D01*
G01*
X377101900Y-282397400D02*
G75*
G02*
X377786900Y-282397400I342500J0D01*
G01*
%TO.C,TP71*%
X413194500Y-201778000D02*
G75*
G02*
X412509500Y-201778000I-342500J0D01*
G01*
X412509500Y-201778000D02*
G75*
G02*
X413194500Y-201778000I342500J0D01*
G01*
%TO.C,TP17*%
X415226500Y-219202200D02*
G75*
G02*
X414541500Y-219202200I-342500J0D01*
G01*
X414541500Y-219202200D02*
G75*
G02*
X415226500Y-219202200I342500J0D01*
G01*
%TO.C,TP48*%
X304152300Y-201650800D02*
G75*
G02*
X303467300Y-201650800I-342500J0D01*
G01*
X303467300Y-201650800D02*
G75*
G02*
X304152300Y-201650800I342500J0D01*
G01*
%TO.C,TP75*%
X355945100Y-186360000D02*
G75*
G02*
X355260100Y-186360000I-342500J0D01*
G01*
X355260100Y-186360000D02*
G75*
G02*
X355945100Y-186360000I342500J0D01*
G01*
%TO.C,TP54*%
X297244900Y-199300000D02*
G75*
G02*
X296559900Y-199300000I-342500J0D01*
G01*
X296559900Y-199300000D02*
G75*
G02*
X297244900Y-199300000I342500J0D01*
G01*
%TO.C,TP39*%
X364680500Y-245059400D02*
G75*
G02*
X363995500Y-245059400I-342500J0D01*
G01*
X363995500Y-245059400D02*
G75*
G02*
X364680500Y-245059400I342500J0D01*
G01*
%TO.C,TP35*%
X406031700Y-241808200D02*
G75*
G02*
X405346700Y-241808200I-342500J0D01*
G01*
X405346700Y-241808200D02*
G75*
G02*
X406031700Y-241808200I342500J0D01*
G01*
%TO.C,TP80*%
X329450700Y-214528600D02*
G75*
G02*
X328765700Y-214528600I-342500J0D01*
G01*
X328765700Y-214528600D02*
G75*
G02*
X329450700Y-214528600I342500J0D01*
G01*
%TO.C,TP77*%
X319671700Y-197688400D02*
G75*
G02*
X318986700Y-197688400I-342500J0D01*
G01*
X318986700Y-197688400D02*
G75*
G02*
X319671700Y-197688400I342500J0D01*
G01*
%TO.C,TP72*%
X320554700Y-238052200D02*
G75*
G02*
X319869700Y-238052200I-342500J0D01*
G01*
X319869700Y-238052200D02*
G75*
G02*
X320554700Y-238052200I342500J0D01*
G01*
%TO.C,TP37*%
X371927300Y-246405600D02*
G75*
G02*
X371242300Y-246405600I-342500J0D01*
G01*
X371242300Y-246405600D02*
G75*
G02*
X371927300Y-246405600I342500J0D01*
G01*
%TO.C,TP50*%
X311050300Y-199999800D02*
G75*
G02*
X310365300Y-199999800I-342500J0D01*
G01*
X310365300Y-199999800D02*
G75*
G02*
X311050300Y-199999800I342500J0D01*
G01*
%TO.C,TP122*%
X232814700Y-192278200D02*
G75*
G02*
X232129700Y-192278200I-342500J0D01*
G01*
X232129700Y-192278200D02*
G75*
G02*
X232814700Y-192278200I342500J0D01*
G01*
%TO.C,TP53*%
X290640900Y-199300000D02*
G75*
G02*
X289955900Y-199300000I-342500J0D01*
G01*
X289955900Y-199300000D02*
G75*
G02*
X290640900Y-199300000I342500J0D01*
G01*
%TO.C,TP24*%
X248790700Y-197438108D02*
G75*
G02*
X248105700Y-197438108I-342500J0D01*
G01*
X248105700Y-197438108D02*
G75*
G02*
X248790700Y-197438108I342500J0D01*
G01*
%TO.C,TP36*%
X371927300Y-257581600D02*
G75*
G02*
X371242300Y-257581600I-342500J0D01*
G01*
X371242300Y-257581600D02*
G75*
G02*
X371927300Y-257581600I342500J0D01*
G01*
%TO.C,TP82*%
X263678100Y-252413000D02*
G75*
G02*
X262993100Y-252413000I-342500J0D01*
G01*
X262993100Y-252413000D02*
G75*
G02*
X263678100Y-252413000I342500J0D01*
G01*
%TO.C,TP21*%
X258239500Y-192298708D02*
G75*
G02*
X257554500Y-192298708I-342500J0D01*
G01*
X257554500Y-192298708D02*
G75*
G02*
X258239500Y-192298708I342500J0D01*
G01*
%TO.C,TP45*%
X353209900Y-244955600D02*
G75*
G02*
X352524900Y-244955600I-342500J0D01*
G01*
X352524900Y-244955600D02*
G75*
G02*
X353209900Y-244955600I342500J0D01*
G01*
%TO.C,TP65*%
X415511500Y-298697400D02*
G75*
G02*
X414826500Y-298697400I-342500J0D01*
G01*
X414826500Y-298697400D02*
G75*
G02*
X415511500Y-298697400I342500J0D01*
G01*
%TO.C,TP124*%
X282586100Y-218206650D02*
G75*
G02*
X281901100Y-218206650I-342500J0D01*
G01*
X281901100Y-218206650D02*
G75*
G02*
X282586100Y-218206650I342500J0D01*
G01*
%TO.C,TP126*%
X236002700Y-204773600D02*
G75*
G02*
X235317700Y-204773600I-342500J0D01*
G01*
X235317700Y-204773600D02*
G75*
G02*
X236002700Y-204773600I342500J0D01*
G01*
%TO.C,TP129*%
X232444700Y-213966400D02*
G75*
G02*
X231759700Y-213966400I-342500J0D01*
G01*
X231759700Y-213966400D02*
G75*
G02*
X232444700Y-213966400I342500J0D01*
G01*
%TO.C,TP43*%
X383787100Y-244602200D02*
G75*
G02*
X383102100Y-244602200I-342500J0D01*
G01*
X383102100Y-244602200D02*
G75*
G02*
X383787100Y-244602200I342500J0D01*
G01*
%TO.C,TP56*%
X267311900Y-252349200D02*
G75*
G02*
X266626900Y-252349200I-342500J0D01*
G01*
X266626900Y-252349200D02*
G75*
G02*
X267311900Y-252349200I342500J0D01*
G01*
%TO.C,TP47*%
X311050300Y-203047800D02*
G75*
G02*
X310365300Y-203047800I-342500J0D01*
G01*
X310365300Y-203047800D02*
G75*
G02*
X311050300Y-203047800I342500J0D01*
G01*
%TO.C,TP44*%
X353336900Y-257477800D02*
G75*
G02*
X352651900Y-257477800I-342500J0D01*
G01*
X352651900Y-257477800D02*
G75*
G02*
X353336900Y-257477800I342500J0D01*
G01*
D11*
%TO.C,G\u002A\u002A\u002A*%
G36*
X366761070Y-311840963D02*
G01*
X366761070Y-312104428D01*
X360706901Y-312104428D01*
X354652731Y-312104428D01*
X354676279Y-311860198D01*
X354699827Y-311615967D01*
X360730449Y-311596733D01*
X366761070Y-311577499D01*
X366761070Y-311840963D01*
G37*
G36*
X363454561Y-268104355D02*
G01*
X363454561Y-268368334D01*
X360782048Y-268368334D01*
X358109536Y-268368334D01*
X358133084Y-268124103D01*
X358156632Y-267879872D01*
X360805597Y-267860124D01*
X363454561Y-267840375D01*
X363454561Y-268104355D01*
G37*
G36*
X361500715Y-307404863D02*
G01*
X361500715Y-307670700D01*
X360782048Y-307670700D01*
X360063382Y-307670700D01*
X360086930Y-307426470D01*
X360110478Y-307182239D01*
X360805597Y-307160632D01*
X361500715Y-307139025D01*
X361500715Y-307404863D01*
G37*
G36*
X361350419Y-319879200D02*
G01*
X361350419Y-320145257D01*
X360706901Y-320145257D01*
X360063382Y-320145257D01*
X360086930Y-319901026D01*
X360110478Y-319656795D01*
X360730449Y-319634969D01*
X361350419Y-319613143D01*
X361350419Y-319879200D01*
G37*
G36*
X367587697Y-311014783D02*
G01*
X367587697Y-311277801D01*
X360373496Y-311277801D01*
X353159295Y-311277801D01*
X353159295Y-311014783D01*
X353159295Y-310751766D01*
X360373496Y-310751766D01*
X367587697Y-310751766D01*
X367587697Y-311014783D01*
G37*
G36*
X367587697Y-277949695D02*
G01*
X367587697Y-278212712D01*
X360411070Y-278212712D01*
X353234443Y-278212712D01*
X353234443Y-277949695D01*
X353234443Y-277686677D01*
X360411070Y-277686677D01*
X367587697Y-277686677D01*
X367587697Y-277949695D01*
G37*
G36*
X367587697Y-276146528D02*
G01*
X367587697Y-276409929D01*
X360505005Y-276390758D01*
X353422313Y-276371588D01*
X353398764Y-276127357D01*
X353375216Y-275883127D01*
X360481457Y-275883127D01*
X367587697Y-275883127D01*
X367587697Y-276146528D01*
G37*
G36*
X365408407Y-310113577D02*
G01*
X365408407Y-310377164D01*
X360730449Y-310357808D01*
X356052490Y-310338452D01*
X356028942Y-310094221D01*
X356005394Y-309849990D01*
X360706901Y-309849990D01*
X365408407Y-309849990D01*
X365408407Y-310113577D01*
G37*
G36*
X365408407Y-315449080D02*
G01*
X365408407Y-315712667D01*
X360730449Y-315693311D01*
X356052490Y-315673955D01*
X356028942Y-315429724D01*
X356005394Y-315185493D01*
X360706901Y-315185493D01*
X365408407Y-315185493D01*
X365408407Y-315449080D01*
G37*
G36*
X362928526Y-308309458D02*
G01*
X362928526Y-308572476D01*
X360749236Y-308572476D01*
X358569946Y-308572476D01*
X358569946Y-308309458D01*
X358569946Y-308046440D01*
X360749236Y-308046440D01*
X362928526Y-308046440D01*
X362928526Y-308309458D01*
G37*
G36*
X363830301Y-309211233D02*
G01*
X363830301Y-309474251D01*
X360749236Y-309474251D01*
X357668171Y-309474251D01*
X357668171Y-309211233D01*
X357668171Y-308948215D01*
X360749236Y-308948215D01*
X363830301Y-308948215D01*
X363830301Y-309211233D01*
G37*
G36*
X365708999Y-312743186D02*
G01*
X365708999Y-313006203D01*
X360749236Y-313006203D01*
X355789472Y-313006203D01*
X355789472Y-312743186D01*
X355789472Y-312480168D01*
X360749236Y-312480168D01*
X365708999Y-312480168D01*
X365708999Y-312743186D01*
G37*
G36*
X365258112Y-313644961D02*
G01*
X365258112Y-313907979D01*
X360749236Y-313907979D01*
X356240360Y-313907979D01*
X356240360Y-313644961D01*
X356240360Y-313381943D01*
X360749236Y-313381943D01*
X365258112Y-313381943D01*
X365258112Y-313644961D01*
G37*
G36*
X364506632Y-314546736D02*
G01*
X364506632Y-314809754D01*
X360749236Y-314809754D01*
X356991839Y-314809754D01*
X356991839Y-314546736D01*
X356991839Y-314283718D01*
X360749236Y-314283718D01*
X364506632Y-314283718D01*
X364506632Y-314546736D01*
G37*
G36*
X365784147Y-316350286D02*
G01*
X365784147Y-316613304D01*
X360749236Y-316613304D01*
X355714325Y-316613304D01*
X355714325Y-316350286D01*
X355714325Y-316087269D01*
X360749236Y-316087269D01*
X365784147Y-316087269D01*
X365784147Y-316350286D01*
G37*
G36*
X364281188Y-317252061D02*
G01*
X364281188Y-317515079D01*
X360749236Y-317515079D01*
X357217283Y-317515079D01*
X357217283Y-317252061D01*
X357217283Y-316989044D01*
X360749236Y-316989044D01*
X364281188Y-316989044D01*
X364281188Y-317252061D01*
G37*
G36*
X361801307Y-318980464D02*
G01*
X361801307Y-319243482D01*
X360749236Y-319243482D01*
X359697165Y-319243482D01*
X359697165Y-318980464D01*
X359697165Y-318717446D01*
X360749236Y-318717446D01*
X361801307Y-318717446D01*
X361801307Y-318980464D01*
G37*
G36*
X360805597Y-272292804D02*
G01*
X361914029Y-272313600D01*
X361937577Y-272557831D01*
X361961125Y-272802061D01*
X360829145Y-272802061D01*
X359697165Y-272802061D01*
X359697165Y-272537035D01*
X359697165Y-272272008D01*
X360805597Y-272292804D01*
G37*
G36*
X361275271Y-263671588D02*
G01*
X361275271Y-263934606D01*
X360824384Y-263934606D01*
X360373496Y-263934606D01*
X360373496Y-263671588D01*
X360373496Y-263408570D01*
X360824384Y-263408570D01*
X361275271Y-263408570D01*
X361275271Y-263671588D01*
G37*
G36*
X361651011Y-264573363D02*
G01*
X361651011Y-264836381D01*
X360824384Y-264836381D01*
X359997756Y-264836381D01*
X359997756Y-264573363D01*
X359997756Y-264310345D01*
X360824384Y-264310345D01*
X361651011Y-264310345D01*
X361651011Y-264573363D01*
G37*
G36*
X362252194Y-265399990D02*
G01*
X362252194Y-265663008D01*
X360824384Y-265663008D01*
X359396573Y-265663008D01*
X359396573Y-265399990D01*
X359396573Y-265136973D01*
X360824384Y-265136973D01*
X362252194Y-265136973D01*
X362252194Y-265399990D01*
G37*
G36*
X362552786Y-266301766D02*
G01*
X362552786Y-266564783D01*
X360824384Y-266564783D01*
X359095981Y-266564783D01*
X359095981Y-266301766D01*
X359095981Y-266038748D01*
X360824384Y-266038748D01*
X362552786Y-266038748D01*
X362552786Y-266301766D01*
G37*
G36*
X363003674Y-267203541D02*
G01*
X363003674Y-267466558D01*
X360824384Y-267466558D01*
X358645094Y-267466558D01*
X358645094Y-267203541D01*
X358645094Y-266940523D01*
X360824384Y-266940523D01*
X363003674Y-266940523D01*
X363003674Y-267203541D01*
G37*
G36*
X365708999Y-269007091D02*
G01*
X365708999Y-269270109D01*
X360824384Y-269270109D01*
X355939768Y-269270109D01*
X355939768Y-269007091D01*
X355939768Y-268744073D01*
X360824384Y-268744073D01*
X365708999Y-268744073D01*
X365708999Y-269007091D01*
G37*
G36*
X366610774Y-269908866D02*
G01*
X366610774Y-270171884D01*
X360824384Y-270171884D01*
X355037993Y-270171884D01*
X355037993Y-269908866D01*
X355037993Y-269645848D01*
X360824384Y-269645848D01*
X366610774Y-269645848D01*
X366610774Y-269908866D01*
G37*
G36*
X365032668Y-270810641D02*
G01*
X365032668Y-271073659D01*
X360824384Y-271073659D01*
X356616100Y-271073659D01*
X356616100Y-270810641D01*
X356616100Y-270547624D01*
X360824384Y-270547624D01*
X365032668Y-270547624D01*
X365032668Y-270810641D01*
G37*
G36*
X363680005Y-271674843D02*
G01*
X363680005Y-271975434D01*
X360824384Y-271975434D01*
X357968762Y-271975434D01*
X357968762Y-271674843D01*
X357968762Y-271374251D01*
X360824384Y-271374251D01*
X363680005Y-271374251D01*
X363680005Y-271674843D01*
G37*
G36*
X362552786Y-273440819D02*
G01*
X362552786Y-273703837D01*
X360824384Y-273703837D01*
X359095981Y-273703837D01*
X359095981Y-273440819D01*
X359095981Y-273177801D01*
X360824384Y-273177801D01*
X362552786Y-273177801D01*
X362552786Y-273440819D01*
G37*
G36*
X364656928Y-274342594D02*
G01*
X364656928Y-274605612D01*
X360824384Y-274605612D01*
X356991839Y-274605612D01*
X356991839Y-274342594D01*
X356991839Y-274079576D01*
X360824384Y-274079576D01*
X364656928Y-274079576D01*
X364656928Y-274342594D01*
G37*
G36*
X366385330Y-275244369D02*
G01*
X366385330Y-275507387D01*
X360824384Y-275507387D01*
X355263437Y-275507387D01*
X355263437Y-275244369D01*
X355263437Y-274981351D01*
X360824384Y-274981351D01*
X366385330Y-274981351D01*
X366385330Y-275244369D01*
G37*
G36*
X366385330Y-277047919D02*
G01*
X366385330Y-277310937D01*
X360824384Y-277310937D01*
X355263437Y-277310937D01*
X355263437Y-277047919D01*
X355263437Y-276784902D01*
X360824384Y-276784902D01*
X366385330Y-276784902D01*
X366385330Y-277047919D01*
G37*
G36*
X362177046Y-279678097D02*
G01*
X362177046Y-279941115D01*
X360824384Y-279941115D01*
X359471721Y-279941115D01*
X359471721Y-279678097D01*
X359471721Y-279415079D01*
X360824384Y-279415079D01*
X362177046Y-279415079D01*
X362177046Y-279678097D01*
G37*
G36*
X362725636Y-285366701D02*
G01*
X362940841Y-285407061D01*
X363050132Y-285476303D01*
X363038749Y-285555492D01*
X362920930Y-285617194D01*
X362752509Y-285709512D01*
X362581206Y-285857206D01*
X362407647Y-286044479D01*
X362414676Y-285694271D01*
X362421706Y-285344063D01*
X362725636Y-285366701D01*
G37*
G36*
X362725636Y-297841257D02*
G01*
X362940841Y-297881617D01*
X363050132Y-297950859D01*
X363038749Y-298030048D01*
X362920930Y-298091750D01*
X362752509Y-298184068D01*
X362581206Y-298331762D01*
X362407647Y-298519036D01*
X362414676Y-298168827D01*
X362421706Y-297818619D01*
X362725636Y-297841257D01*
G37*
G36*
X360975851Y-262521457D02*
G01*
X361037976Y-262595827D01*
X361049827Y-262769813D01*
X361037260Y-262946524D01*
X360973514Y-263019004D01*
X360824384Y-263032831D01*
X360672917Y-263018168D01*
X360610791Y-262943798D01*
X360598940Y-262769813D01*
X360611508Y-262593101D01*
X360675253Y-262520622D01*
X360824384Y-262506795D01*
X360975851Y-262521457D01*
G37*
G36*
X360927971Y-261634442D02*
G01*
X360969767Y-261749300D01*
X360974680Y-261868038D01*
X360957867Y-262049315D01*
X360892234Y-262122458D01*
X360824384Y-262131056D01*
X360720797Y-262101634D01*
X360679001Y-261986775D01*
X360674088Y-261868038D01*
X360690900Y-261686760D01*
X360756534Y-261613618D01*
X360824384Y-261605020D01*
X360927971Y-261634442D01*
G37*
G36*
X362463651Y-318097992D02*
G01*
X362451678Y-318297129D01*
X362386645Y-318381341D01*
X362284395Y-318391845D01*
X362055419Y-318399369D01*
X361723262Y-318403661D01*
X361311471Y-318404470D01*
X360843590Y-318401547D01*
X360672230Y-318399611D01*
X359058407Y-318379280D01*
X359058407Y-318116263D01*
X359058407Y-317853245D01*
X360749236Y-317853245D01*
X362440064Y-317853245D01*
X362463651Y-318097992D01*
G37*
G36*
X362640934Y-293331472D02*
G01*
X362829177Y-293373671D01*
X362882466Y-293457793D01*
X362802336Y-293596044D01*
X362688807Y-293711973D01*
X362542507Y-293842104D01*
X362447581Y-293913783D01*
X362435341Y-293918629D01*
X362414892Y-293851818D01*
X362403402Y-293684643D01*
X362402490Y-293613277D01*
X362409586Y-293419647D01*
X362453187Y-293336726D01*
X362566765Y-293324956D01*
X362640934Y-293331472D01*
G37*
G36*
X364036276Y-291748440D02*
G01*
X364111114Y-291804627D01*
X364130304Y-291951234D01*
X364130893Y-292039931D01*
X364115346Y-292228178D01*
X364076509Y-292332867D01*
X364060809Y-292340523D01*
X363984502Y-292278499D01*
X363942997Y-292190147D01*
X363838884Y-292030799D01*
X363750064Y-291962060D01*
X363621480Y-291861007D01*
X363635797Y-291783372D01*
X363785958Y-291742495D01*
X363867875Y-291739340D01*
X364036276Y-291748440D01*
G37*
G36*
X364036276Y-293326546D02*
G01*
X364111114Y-293382734D01*
X364130304Y-293529340D01*
X364130893Y-293618038D01*
X364123833Y-293806367D01*
X364106199Y-293911023D01*
X364099099Y-293918629D01*
X364020485Y-293867246D01*
X363890148Y-293743017D01*
X363749799Y-293590822D01*
X363641146Y-293455541D01*
X363604857Y-293386813D01*
X363670936Y-293340958D01*
X363833415Y-293318043D01*
X363867875Y-293317446D01*
X364036276Y-293326546D01*
G37*
G36*
X358772029Y-301501781D02*
G01*
X359584443Y-301705312D01*
X359605888Y-302151764D01*
X359627333Y-302598215D01*
X358078063Y-303006901D01*
X356528792Y-303415586D01*
X355914902Y-303287916D01*
X355586509Y-303217253D01*
X355277851Y-303146801D01*
X355047532Y-303090009D01*
X355019206Y-303082355D01*
X354737401Y-303004464D01*
X354737401Y-302572284D01*
X354737401Y-302140103D01*
X356348508Y-301719176D01*
X357959616Y-301298250D01*
X358772029Y-301501781D01*
G37*
G36*
X360941694Y-320528959D02*
G01*
X361027224Y-320578123D01*
X361049155Y-320706404D01*
X361049827Y-320784014D01*
X361040727Y-320952415D01*
X360984540Y-321027253D01*
X360837933Y-321046444D01*
X360749236Y-321047032D01*
X360556777Y-321039069D01*
X360471248Y-320989905D01*
X360449316Y-320861624D01*
X360448644Y-320784014D01*
X360457744Y-320615613D01*
X360513932Y-320540775D01*
X360660538Y-320521584D01*
X360749236Y-320520996D01*
X360941694Y-320528959D01*
G37*
G36*
X361016842Y-280324817D02*
G01*
X361102371Y-280373981D01*
X361124303Y-280502262D01*
X361124975Y-280579872D01*
X361115875Y-280748273D01*
X361059688Y-280823111D01*
X360913081Y-280842302D01*
X360824384Y-280842890D01*
X360631925Y-280834927D01*
X360546396Y-280785763D01*
X360524464Y-280657482D01*
X360523792Y-280579872D01*
X360532892Y-280411471D01*
X360589080Y-280336633D01*
X360735686Y-280317442D01*
X360824384Y-280316854D01*
X361016842Y-280324817D01*
G37*
G36*
X365319272Y-278795625D02*
G01*
X365307944Y-278992382D01*
X365244124Y-279078145D01*
X365152859Y-279084687D01*
X364924850Y-279090216D01*
X364573650Y-279094676D01*
X364112808Y-279098012D01*
X363555874Y-279100170D01*
X362916400Y-279101093D01*
X362207934Y-279100728D01*
X361444028Y-279099019D01*
X360749236Y-279096415D01*
X356353082Y-279076914D01*
X356353082Y-278813896D01*
X356353082Y-278550878D01*
X360824384Y-278550878D01*
X365295685Y-278550878D01*
X365319272Y-278795625D01*
G37*
G36*
X363586070Y-285399855D02*
G01*
X363892509Y-285476225D01*
X364070299Y-285616593D01*
X364130747Y-285830164D01*
X364130893Y-285843559D01*
X364117636Y-285938546D01*
X364052668Y-285980517D01*
X363898187Y-285982184D01*
X363755153Y-285969931D01*
X363499264Y-285961457D01*
X363385650Y-285998777D01*
X363379413Y-286018536D01*
X363327622Y-286099031D01*
X363304265Y-286103245D01*
X363261328Y-286035674D01*
X363234126Y-285862969D01*
X363229117Y-285728943D01*
X363229117Y-285354641D01*
X363586070Y-285399855D01*
G37*
G36*
X363586070Y-297874411D02*
G01*
X363892509Y-297950782D01*
X364070299Y-298091149D01*
X364130747Y-298304721D01*
X364130893Y-298318115D01*
X364117636Y-298413103D01*
X364052668Y-298455073D01*
X363898187Y-298456740D01*
X363755153Y-298444487D01*
X363499264Y-298436013D01*
X363385650Y-298473333D01*
X363379413Y-298493092D01*
X363327622Y-298573587D01*
X363304265Y-298577801D01*
X363261328Y-298510230D01*
X363234126Y-298337525D01*
X363229117Y-298203499D01*
X363229117Y-297829197D01*
X363586070Y-297874411D01*
G37*
G36*
X355470094Y-287246530D02*
G01*
X355807347Y-287258589D01*
X356022907Y-287275540D01*
X356145357Y-287304438D01*
X356203284Y-287352340D01*
X356225274Y-287426302D01*
X356226285Y-287433190D01*
X356205986Y-287563013D01*
X356083810Y-287677152D01*
X355963267Y-287745255D01*
X355594051Y-287995743D01*
X355360262Y-288301997D01*
X355284019Y-288507979D01*
X355216445Y-288690641D01*
X355105735Y-288772013D01*
X354977303Y-288794545D01*
X354737401Y-288818093D01*
X354737401Y-288021557D01*
X354737401Y-287225021D01*
X355470094Y-287246530D01*
G37*
G36*
X359622017Y-283733456D02*
G01*
X359622017Y-284525138D01*
X359404720Y-284525138D01*
X359234456Y-284493574D01*
X359150295Y-284370754D01*
X359136705Y-284323065D01*
X358972191Y-283967298D01*
X358681651Y-283673389D01*
X358429921Y-283523538D01*
X358212256Y-283403752D01*
X358106891Y-283292898D01*
X358081484Y-283171359D01*
X358086565Y-283087317D01*
X358119866Y-283032351D01*
X358208475Y-282999139D01*
X358379479Y-282980362D01*
X358659966Y-282968698D01*
X358851751Y-282963190D01*
X359622017Y-282941774D01*
X359622017Y-283733456D01*
G37*
G36*
X364119971Y-296824763D02*
G01*
X364130441Y-297033367D01*
X364130893Y-297116174D01*
X364130893Y-297563304D01*
X363266691Y-297563304D01*
X362402490Y-297563304D01*
X362402490Y-297116174D01*
X362408938Y-296869479D01*
X362431693Y-296752398D01*
X362475876Y-296744667D01*
X362492668Y-296759221D01*
X362613486Y-296804786D01*
X362840372Y-296834866D01*
X363129898Y-296849459D01*
X363438637Y-296848567D01*
X363723161Y-296832190D01*
X363940042Y-296800327D01*
X364040715Y-296759221D01*
X364091769Y-296740136D01*
X364119971Y-296824763D01*
G37*
G36*
X362594117Y-294965956D02*
G01*
X362708682Y-295014727D01*
X362909761Y-295052199D01*
X362989443Y-295059891D01*
X363184391Y-295082703D01*
X363251326Y-295120043D01*
X363218644Y-295177357D01*
X363080531Y-295243605D01*
X362881093Y-295271292D01*
X362880357Y-295271292D01*
X362698540Y-295292388D01*
X362592395Y-295343456D01*
X362590360Y-295346440D01*
X362502530Y-295423366D01*
X362434593Y-295366544D01*
X362403061Y-295192482D01*
X362402490Y-295158570D01*
X362423868Y-294958553D01*
X362490371Y-294899393D01*
X362594117Y-294965956D01*
G37*
G36*
X355470094Y-283038246D02*
G01*
X355807456Y-283050353D01*
X356023098Y-283067398D01*
X356145581Y-283096373D01*
X356203465Y-283144270D01*
X356225312Y-283218082D01*
X356226078Y-283223327D01*
X356211480Y-283338241D01*
X356109780Y-283435722D01*
X355908703Y-283537594D01*
X355615863Y-283723606D01*
X355394283Y-283973701D01*
X355275440Y-284247937D01*
X355263718Y-284356056D01*
X355239884Y-284471205D01*
X355140394Y-284518150D01*
X355000419Y-284525138D01*
X354737401Y-284525138D01*
X354737401Y-283770938D01*
X354737401Y-283016737D01*
X355470094Y-283038246D01*
G37*
G36*
X364037818Y-295057239D02*
G01*
X364114671Y-295115072D01*
X364130874Y-295254834D01*
X364130893Y-295264715D01*
X364117720Y-295375318D01*
X364061837Y-295471976D01*
X363938693Y-295577381D01*
X363723737Y-295714226D01*
X363510922Y-295837776D01*
X363206105Y-296016505D01*
X362922367Y-296190851D01*
X362705521Y-296332377D01*
X362646721Y-296374213D01*
X362402490Y-296556456D01*
X362402490Y-296146460D01*
X362402490Y-295736464D01*
X362991491Y-295391156D01*
X363375130Y-295185362D01*
X363668286Y-295073349D01*
X363855693Y-295045848D01*
X364037818Y-295057239D01*
G37*
G36*
X364106116Y-295983636D02*
G01*
X364128797Y-296128314D01*
X364130893Y-296252476D01*
X364126327Y-296443081D01*
X364097050Y-296509685D01*
X364019689Y-296478578D01*
X363963876Y-296440346D01*
X363756087Y-296360734D01*
X363440806Y-296324705D01*
X363358257Y-296323363D01*
X363106243Y-296311906D01*
X362976597Y-296279616D01*
X362966100Y-296248215D01*
X363061623Y-296206170D01*
X363257041Y-296178897D01*
X363416055Y-296173067D01*
X363723267Y-296148063D01*
X363913531Y-296076517D01*
X363932287Y-296060345D01*
X364045804Y-295966002D01*
X364106116Y-295983636D01*
G37*
G36*
X359622017Y-292039931D02*
G01*
X359622017Y-292791411D01*
X359398005Y-292791411D01*
X359222501Y-292760493D01*
X359138542Y-292645520D01*
X359128907Y-292611775D01*
X358997512Y-292367384D01*
X358744824Y-292138034D01*
X358399554Y-291948184D01*
X358306928Y-291911519D01*
X358075542Y-291812072D01*
X357955064Y-291713841D01*
X357909421Y-291586656D01*
X357908358Y-291578164D01*
X357911883Y-291463508D01*
X357968029Y-291383523D01*
X358098066Y-291332180D01*
X358323265Y-291303449D01*
X358664896Y-291291303D01*
X358926898Y-291289478D01*
X359622017Y-291288452D01*
X359622017Y-292039931D01*
G37*
G36*
X363639259Y-286142787D02*
G01*
X363886708Y-286151356D01*
X364034195Y-286170521D01*
X364106874Y-286204279D01*
X364129902Y-286256627D01*
X364130893Y-286278108D01*
X364080417Y-286415898D01*
X363954869Y-286588681D01*
X363911229Y-286635061D01*
X363730961Y-286781622D01*
X363535583Y-286844541D01*
X363343888Y-286854724D01*
X362990199Y-286811292D01*
X362695303Y-286692491D01*
X362499299Y-286515564D01*
X362479866Y-286483147D01*
X362414399Y-286343654D01*
X362406533Y-286248191D01*
X362475322Y-286188470D01*
X362639819Y-286156199D01*
X362919080Y-286143089D01*
X363266691Y-286140819D01*
X363639259Y-286142787D01*
G37*
G36*
X363639259Y-298617343D02*
G01*
X363886708Y-298625912D01*
X364034195Y-298645077D01*
X364106874Y-298678835D01*
X364129902Y-298731183D01*
X364130893Y-298752665D01*
X364080417Y-298890454D01*
X363954869Y-299063237D01*
X363911229Y-299109617D01*
X363730961Y-299256178D01*
X363535583Y-299319097D01*
X363343888Y-299329280D01*
X362990199Y-299285848D01*
X362695303Y-299167047D01*
X362499299Y-298990120D01*
X362479866Y-298957703D01*
X362414399Y-298818210D01*
X362406533Y-298722747D01*
X362475322Y-298663026D01*
X362639819Y-298630755D01*
X362919080Y-298617645D01*
X363266691Y-298615375D01*
X363639259Y-298617343D01*
G37*
G36*
X364098789Y-288112136D02*
G01*
X364130322Y-288286197D01*
X364130893Y-288320109D01*
X364113128Y-288493972D01*
X364069448Y-288580861D01*
X364060180Y-288583127D01*
X363958404Y-288528502D01*
X363943023Y-288507979D01*
X363849295Y-288469519D01*
X363649675Y-288442424D01*
X363403351Y-288432831D01*
X363142641Y-288428782D01*
X363007052Y-288411923D01*
X362971517Y-288375184D01*
X363003674Y-288320109D01*
X363161209Y-288239061D01*
X363454401Y-288207733D01*
X363496902Y-288207387D01*
X363729538Y-288194316D01*
X363895260Y-288160783D01*
X363943023Y-288132239D01*
X364030853Y-288055313D01*
X364098789Y-288112136D01*
G37*
G36*
X364098789Y-300586692D02*
G01*
X364130322Y-300760753D01*
X364130893Y-300794665D01*
X364113128Y-300968528D01*
X364069448Y-301055417D01*
X364060180Y-301057683D01*
X363958404Y-301003058D01*
X363943023Y-300982535D01*
X363849295Y-300944075D01*
X363649675Y-300916980D01*
X363403351Y-300907387D01*
X363142641Y-300903338D01*
X363007052Y-300886479D01*
X362971517Y-300849740D01*
X363003674Y-300794665D01*
X363161209Y-300713617D01*
X363454401Y-300682289D01*
X363496902Y-300681943D01*
X363729538Y-300668872D01*
X363895260Y-300635339D01*
X363943023Y-300606795D01*
X364030853Y-300529869D01*
X364098789Y-300586692D01*
G37*
G36*
X357531606Y-287870266D02*
G01*
X357795962Y-287876373D01*
X357960381Y-287892002D01*
X358050042Y-287921612D01*
X358090125Y-287969662D01*
X358105703Y-288039869D01*
X358090076Y-288170273D01*
X357976448Y-288268823D01*
X357862948Y-288322066D01*
X357650190Y-288446927D01*
X357485383Y-288603615D01*
X357473134Y-288621092D01*
X357307408Y-288768306D01*
X357107451Y-288807267D01*
X356925420Y-288734781D01*
X356859241Y-288658687D01*
X356731712Y-288530277D01*
X356533956Y-288401288D01*
X356484212Y-288376291D01*
X356289475Y-288258501D01*
X356209866Y-288128051D01*
X356202786Y-288056500D01*
X356202786Y-287869221D01*
X357142135Y-287869221D01*
X357531606Y-287870266D01*
G37*
G36*
X357531639Y-283662005D02*
G01*
X357796022Y-283668160D01*
X357960457Y-283683831D01*
X358050117Y-283713447D01*
X358090176Y-283761437D01*
X358105551Y-283830427D01*
X358094093Y-283947249D01*
X357999684Y-284041692D01*
X357793015Y-284144202D01*
X357571831Y-284266777D01*
X357429860Y-284399812D01*
X357406931Y-284444387D01*
X357303302Y-284571992D01*
X357135946Y-284598037D01*
X356949480Y-284525125D01*
X356826629Y-284410524D01*
X356651679Y-284249749D01*
X356430110Y-284117636D01*
X356415855Y-284111497D01*
X356238122Y-284014473D01*
X356176224Y-283903855D01*
X356178567Y-283831585D01*
X356194356Y-283760858D01*
X356234768Y-283712991D01*
X356324981Y-283683525D01*
X356490175Y-283668000D01*
X356755529Y-283661957D01*
X357142135Y-283660937D01*
X357531639Y-283662005D01*
G37*
G36*
X355117472Y-292614173D02*
G01*
X355191064Y-292761136D01*
X355259717Y-292941706D01*
X357440867Y-292941706D01*
X359622017Y-292941706D01*
X359622017Y-293909428D01*
X359618961Y-294322856D01*
X359607875Y-294611369D01*
X359585881Y-294800255D01*
X359550101Y-294914808D01*
X359500409Y-294978075D01*
X359404454Y-295029921D01*
X359312631Y-294984900D01*
X359215781Y-294874555D01*
X359052762Y-294670109D01*
X357179709Y-294670109D01*
X355306657Y-294670109D01*
X355143637Y-294874555D01*
X355022935Y-295005199D01*
X354934428Y-295025765D01*
X354859009Y-294978075D01*
X354807558Y-294861132D01*
X354768361Y-294628141D01*
X354741586Y-294312646D01*
X354727404Y-293948189D01*
X354725985Y-293568312D01*
X354737497Y-293206558D01*
X354762110Y-292896471D01*
X354799995Y-292671593D01*
X354846831Y-292568699D01*
X354990758Y-292517737D01*
X355117472Y-292614173D01*
G37*
G36*
X359616084Y-285671144D02*
G01*
X359610829Y-286034256D01*
X359600880Y-286346099D01*
X359587652Y-286573886D01*
X359572563Y-286684829D01*
X359572248Y-286685641D01*
X359473561Y-286768511D01*
X359329139Y-286765330D01*
X359211156Y-286683252D01*
X359193039Y-286648067D01*
X359110311Y-286506163D01*
X359063889Y-286461348D01*
X358969193Y-286446077D01*
X358745600Y-286432332D01*
X358414505Y-286420736D01*
X357997306Y-286411908D01*
X357515397Y-286406470D01*
X357121488Y-286404987D01*
X355259717Y-286403837D01*
X355188289Y-286591706D01*
X355082107Y-286732749D01*
X354940455Y-286778116D01*
X354816691Y-286718721D01*
X354783015Y-286660708D01*
X354765105Y-286541687D01*
X354750499Y-286306904D01*
X354740750Y-285990881D01*
X354737401Y-285646211D01*
X354737401Y-284750582D01*
X357179709Y-284750582D01*
X359622017Y-284750582D01*
X359616084Y-285671144D01*
G37*
G36*
X355090037Y-300203869D02*
G01*
X355149960Y-300303825D01*
X355210018Y-300423274D01*
X355321831Y-300527622D01*
X355507272Y-300627866D01*
X355788216Y-300735003D01*
X356186538Y-300860031D01*
X356353082Y-300908711D01*
X356773284Y-301031464D01*
X357061646Y-301122327D01*
X357231044Y-301189980D01*
X357294353Y-301243107D01*
X357264450Y-301290388D01*
X357154211Y-301340506D01*
X357048613Y-301377681D01*
X356874708Y-301430597D01*
X356722374Y-301452034D01*
X356547047Y-301439997D01*
X356304162Y-301392492D01*
X356054182Y-301333200D01*
X355398121Y-301173426D01*
X355217083Y-301383895D01*
X355063125Y-301518104D01*
X354922402Y-301570771D01*
X354905510Y-301569225D01*
X354842565Y-301537920D01*
X354803490Y-301454330D01*
X354782918Y-301289641D01*
X354775477Y-301015040D01*
X354774975Y-300868784D01*
X354777358Y-300547555D01*
X354789137Y-300346761D01*
X354817261Y-300236561D01*
X354868679Y-300187113D01*
X354937604Y-300170314D01*
X355090037Y-300203869D01*
G37*
G36*
X364095773Y-288877020D02*
G01*
X364122910Y-289055833D01*
X364130893Y-289259458D01*
X364120187Y-289497252D01*
X364092360Y-289660632D01*
X364060180Y-289710345D01*
X363958404Y-289655721D01*
X363943023Y-289635198D01*
X363851308Y-289600771D01*
X363647580Y-289574641D01*
X363370067Y-289561056D01*
X363266691Y-289560050D01*
X362972934Y-289568453D01*
X362740085Y-289590832D01*
X362606373Y-289622939D01*
X362590360Y-289635198D01*
X362506148Y-289714367D01*
X362444519Y-289652144D01*
X362409341Y-289456261D01*
X362402490Y-289259458D01*
X362413898Y-289019289D01*
X362443701Y-288856463D01*
X362477638Y-288808570D01*
X362550602Y-288865756D01*
X362552786Y-288883718D01*
X362623992Y-288919164D01*
X362822225Y-288944624D01*
X363124404Y-288957669D01*
X363266691Y-288958866D01*
X363603430Y-288951371D01*
X363845300Y-288930504D01*
X363969221Y-288898696D01*
X363980597Y-288883718D01*
X364037782Y-288810754D01*
X364055745Y-288808570D01*
X364095773Y-288877020D01*
G37*
G36*
X363435884Y-293561645D02*
G01*
X363558135Y-293622670D01*
X363547368Y-293731105D01*
X363447804Y-293837982D01*
X363266691Y-293988777D01*
X363698792Y-293991277D01*
X364130893Y-293993777D01*
X364130893Y-294369517D01*
X364118172Y-294583865D01*
X364085647Y-294719909D01*
X364060180Y-294745257D01*
X363958404Y-294690632D01*
X363943023Y-294670109D01*
X363851308Y-294635682D01*
X363647580Y-294609552D01*
X363370067Y-294595967D01*
X363266691Y-294594961D01*
X362972934Y-294603364D01*
X362740085Y-294625743D01*
X362606373Y-294657850D01*
X362590360Y-294670109D01*
X362505200Y-294748734D01*
X362441718Y-294689011D01*
X362406933Y-294502170D01*
X362402490Y-294369517D01*
X362402490Y-293993777D01*
X362778230Y-293993777D01*
X363014414Y-293976521D01*
X363137705Y-293931890D01*
X363135579Y-293870590D01*
X362999537Y-293804595D01*
X362880353Y-293733089D01*
X362892584Y-293653333D01*
X363020225Y-293586337D01*
X363188468Y-293556550D01*
X363435884Y-293561645D01*
G37*
G36*
X357674105Y-295492550D02*
G01*
X358285500Y-295648132D01*
X358796623Y-295906022D01*
X359200261Y-296259738D01*
X359489204Y-296702801D01*
X359656240Y-297228730D01*
X359665406Y-297282143D01*
X359691323Y-297481086D01*
X359670822Y-297573191D01*
X359584155Y-297599533D01*
X359512158Y-297600878D01*
X359293412Y-297535876D01*
X359171143Y-297431795D01*
X359123690Y-297378742D01*
X359065314Y-297337829D01*
X358976960Y-297307169D01*
X358839572Y-297284873D01*
X358634093Y-297269054D01*
X358341467Y-297257823D01*
X357942638Y-297249292D01*
X357418550Y-297241573D01*
X357225526Y-297239022D01*
X355416708Y-297215331D01*
X355223935Y-297408105D01*
X355052481Y-297529296D01*
X354861567Y-297594922D01*
X354695165Y-297599263D01*
X354597248Y-297536594D01*
X354587106Y-297490975D01*
X354627190Y-297278029D01*
X354731978Y-296992935D01*
X354878269Y-296685455D01*
X355042863Y-296405351D01*
X355173811Y-296232546D01*
X355591690Y-295878809D01*
X356102910Y-295626795D01*
X356684218Y-295483384D01*
X357312360Y-295455459D01*
X357674105Y-295492550D01*
G37*
G36*
X362857645Y-301295564D02*
G01*
X362914528Y-301346044D01*
X362841661Y-301454313D01*
X362740656Y-301552726D01*
X362590341Y-301719336D01*
X362575570Y-301823081D01*
X362699916Y-301872864D01*
X362872165Y-301880368D01*
X363067009Y-301874724D01*
X363130987Y-301853872D01*
X363083528Y-301802055D01*
X363022461Y-301758480D01*
X362883338Y-301637671D01*
X362880389Y-301559139D01*
X363017693Y-301517950D01*
X363229117Y-301508570D01*
X363480602Y-301523640D01*
X363588596Y-301572140D01*
X363557181Y-301659002D01*
X363435774Y-301758480D01*
X363343136Y-301829340D01*
X363345761Y-301864596D01*
X363464115Y-301877525D01*
X363623644Y-301880368D01*
X363870439Y-301856895D01*
X363980805Y-301784987D01*
X363950699Y-301672801D01*
X363792727Y-301539234D01*
X363638395Y-301412324D01*
X363628096Y-301328338D01*
X363761785Y-301287435D01*
X363867875Y-301283127D01*
X364130893Y-301283127D01*
X364130893Y-301940671D01*
X364130893Y-302598215D01*
X363266691Y-302598215D01*
X362402490Y-302598215D01*
X362402490Y-301940671D01*
X362402490Y-301283127D01*
X362665508Y-301283127D01*
X362857645Y-301295564D01*
G37*
G36*
X359645087Y-297790892D02*
G01*
X359694705Y-297919400D01*
X359659950Y-298150727D01*
X359589163Y-298373579D01*
X359335186Y-298880933D01*
X358975060Y-299284401D01*
X358513896Y-299581137D01*
X357956811Y-299768293D01*
X357308918Y-299843023D01*
X356958747Y-299837678D01*
X356427640Y-299780294D01*
X355992891Y-299660933D01*
X355607508Y-299462779D01*
X355322267Y-299252069D01*
X355095118Y-299003344D01*
X354880181Y-298662171D01*
X354708897Y-298285163D01*
X354624350Y-297995405D01*
X354601268Y-297829617D01*
X354650133Y-297763433D01*
X354808662Y-297751191D01*
X354826076Y-297751174D01*
X355063325Y-297800447D01*
X355170849Y-297901470D01*
X355206289Y-297947861D01*
X355259577Y-297983586D01*
X355348945Y-298010033D01*
X355492621Y-298028593D01*
X355708836Y-298040654D01*
X356015820Y-298047606D01*
X356431802Y-298050839D01*
X356975014Y-298051741D01*
X357142772Y-298051766D01*
X357724041Y-298051173D01*
X358173799Y-298048466D01*
X358510833Y-298042254D01*
X358753925Y-298031145D01*
X358921860Y-298013746D01*
X359033423Y-297988666D01*
X359107398Y-297954513D01*
X359162569Y-297909896D01*
X359171129Y-297901470D01*
X359350155Y-297787777D01*
X359509295Y-297751174D01*
X359645087Y-297790892D01*
G37*
G36*
X358725069Y-303426002D02*
G01*
X359622017Y-303641526D01*
X359622017Y-304074990D01*
X359622017Y-304508454D01*
X359340212Y-304590356D01*
X359191322Y-304632504D01*
X358920682Y-304708001D01*
X358551479Y-304810423D01*
X358106901Y-304933346D01*
X357610137Y-305070348D01*
X357195217Y-305184537D01*
X356555728Y-305363501D01*
X356050587Y-305512277D01*
X355667787Y-305634878D01*
X355395324Y-305735314D01*
X355221191Y-305817600D01*
X355149639Y-305868161D01*
X355010275Y-305977850D01*
X354911070Y-305982874D01*
X354850379Y-305942511D01*
X354804024Y-305881540D01*
X354772810Y-305773497D01*
X354754844Y-305594845D01*
X354748233Y-305322047D01*
X354751081Y-304931569D01*
X354754241Y-304747901D01*
X354763132Y-304321525D01*
X354773625Y-304022228D01*
X354789653Y-303826811D01*
X354815149Y-303712077D01*
X354854046Y-303654826D01*
X354910276Y-303631860D01*
X354944394Y-303626229D01*
X355102911Y-303653524D01*
X355159091Y-303720164D01*
X355191169Y-303779800D01*
X355246375Y-303815592D01*
X355344548Y-303824932D01*
X355505523Y-303805210D01*
X355749137Y-303753818D01*
X356095228Y-303668147D01*
X356563632Y-303545588D01*
X356639713Y-303525440D01*
X357828120Y-303210479D01*
X358725069Y-303426002D01*
G37*
G36*
X359531839Y-288598156D02*
G01*
X359560463Y-288698590D01*
X359584192Y-288915905D01*
X359602439Y-289216751D01*
X359614618Y-289567776D01*
X359620141Y-289935626D01*
X359618421Y-290286952D01*
X359608872Y-290588399D01*
X359590905Y-290806617D01*
X359572248Y-290893925D01*
X359473764Y-290979308D01*
X359332180Y-290974479D01*
X359216219Y-290889649D01*
X359192903Y-290837564D01*
X359175506Y-290791913D01*
X359138517Y-290756580D01*
X359064537Y-290730245D01*
X358936165Y-290711588D01*
X358736002Y-290699290D01*
X358446646Y-290692031D01*
X358050698Y-290688491D01*
X357530757Y-290687351D01*
X357211162Y-290687269D01*
X356620836Y-290687685D01*
X356162999Y-290689844D01*
X355819847Y-290695105D01*
X355573573Y-290704830D01*
X355406373Y-290720380D01*
X355300441Y-290743118D01*
X355237970Y-290774404D01*
X355201156Y-290815600D01*
X355185848Y-290842125D01*
X355049479Y-290964619D01*
X354938974Y-290973634D01*
X354872434Y-290957193D01*
X354826119Y-290913868D01*
X354795605Y-290819290D01*
X354776469Y-290649086D01*
X354764287Y-290378887D01*
X354754636Y-289984323D01*
X354754007Y-289954576D01*
X354733039Y-288958866D01*
X356918419Y-288958866D01*
X359103800Y-288958866D01*
X359182390Y-288733422D01*
X359284394Y-288551894D01*
X359411815Y-288518139D01*
X359531839Y-288598156D01*
G37*
G36*
X362498885Y-286994838D02*
G01*
X362539916Y-287030947D01*
X362725110Y-287120492D01*
X362992920Y-287155294D01*
X363000005Y-287155316D01*
X363195862Y-287160912D01*
X363268292Y-287188279D01*
X363244048Y-287253287D01*
X363219532Y-287285528D01*
X363159189Y-287367892D01*
X363186578Y-287367833D01*
X363320408Y-287285528D01*
X363533352Y-287198929D01*
X363789836Y-287156253D01*
X363827657Y-287155316D01*
X364021716Y-287164540D01*
X364108158Y-287211574D01*
X364129404Y-287325457D01*
X364129544Y-287361973D01*
X364114868Y-287460238D01*
X364057639Y-287553213D01*
X363935965Y-287659729D01*
X363727948Y-287798619D01*
X363411694Y-287988714D01*
X363377532Y-288008768D01*
X363077073Y-288188450D01*
X362826300Y-288345031D01*
X362652861Y-288460805D01*
X362585392Y-288516016D01*
X362502505Y-288592758D01*
X362443163Y-288535204D01*
X362415178Y-288358528D01*
X362417350Y-288189656D01*
X362438596Y-287954620D01*
X362491376Y-287812345D01*
X362611306Y-287705351D01*
X362778230Y-287607260D01*
X363116396Y-287418334D01*
X362855382Y-287393534D01*
X362674624Y-287397766D01*
X362572280Y-287440555D01*
X362567315Y-287449895D01*
X362509110Y-287538415D01*
X362451724Y-287500467D01*
X362411574Y-287359067D01*
X362402490Y-287218817D01*
X362407167Y-287026892D01*
X362433265Y-286960481D01*
X362498885Y-286994838D01*
G37*
G36*
X362498885Y-299469394D02*
G01*
X362539916Y-299505503D01*
X362725110Y-299595048D01*
X362992920Y-299629850D01*
X363000005Y-299629872D01*
X363195862Y-299635468D01*
X363268292Y-299662836D01*
X363244048Y-299727843D01*
X363219532Y-299760084D01*
X363159189Y-299842448D01*
X363186578Y-299842389D01*
X363320408Y-299760084D01*
X363533352Y-299673486D01*
X363789836Y-299630809D01*
X363827657Y-299629872D01*
X364021716Y-299639097D01*
X364108158Y-299686130D01*
X364129404Y-299800013D01*
X364129544Y-299836529D01*
X364114868Y-299934794D01*
X364057639Y-300027769D01*
X363935965Y-300134286D01*
X363727948Y-300273175D01*
X363411694Y-300463270D01*
X363377532Y-300483324D01*
X363077073Y-300663006D01*
X362826300Y-300819587D01*
X362652861Y-300935361D01*
X362585392Y-300990572D01*
X362502505Y-301067314D01*
X362443163Y-301009760D01*
X362415178Y-300833084D01*
X362417350Y-300664212D01*
X362438596Y-300429176D01*
X362491376Y-300286901D01*
X362611306Y-300179907D01*
X362778230Y-300081816D01*
X363116396Y-299892890D01*
X362855382Y-299868090D01*
X362674624Y-299872323D01*
X362572280Y-299915111D01*
X362567315Y-299924451D01*
X362509110Y-300012971D01*
X362451724Y-299975024D01*
X362411574Y-299833623D01*
X362402490Y-299693373D01*
X362407167Y-299501448D01*
X362433265Y-299435037D01*
X362498885Y-299469394D01*
G37*
G36*
X362860040Y-291763783D02*
G01*
X362928050Y-291841795D01*
X362928526Y-291852061D01*
X362972782Y-291926358D01*
X363123262Y-291960200D01*
X363266691Y-291964783D01*
X363482600Y-291990481D01*
X363600873Y-292053227D01*
X363605938Y-292131497D01*
X363482222Y-292203768D01*
X363447000Y-292213978D01*
X363329685Y-292270096D01*
X363340719Y-292330926D01*
X363459255Y-292383018D01*
X363664448Y-292412923D01*
X363759588Y-292415671D01*
X364130893Y-292415671D01*
X364130893Y-292806440D01*
X364123538Y-293030800D01*
X364097369Y-293125928D01*
X364046225Y-293112354D01*
X364040715Y-293107032D01*
X363919897Y-293061467D01*
X363693011Y-293031387D01*
X363403485Y-293016794D01*
X363094746Y-293017686D01*
X362810222Y-293034063D01*
X362593340Y-293065926D01*
X362492668Y-293107032D01*
X362439195Y-293128635D01*
X362411204Y-293043225D01*
X362402534Y-292830273D01*
X362402490Y-292806440D01*
X362402490Y-292415671D01*
X362778230Y-292415671D01*
X363006257Y-292396246D01*
X363136397Y-292347723D01*
X363152458Y-292284728D01*
X363038250Y-292221889D01*
X363003674Y-292212001D01*
X362881562Y-292137522D01*
X362853378Y-292071099D01*
X362812396Y-292002669D01*
X362720996Y-292025928D01*
X362626493Y-292118383D01*
X362588157Y-292197169D01*
X362520553Y-292326138D01*
X362456583Y-292319212D01*
X362412613Y-292190252D01*
X362402490Y-292039931D01*
X362410453Y-291847473D01*
X362459617Y-291761944D01*
X362587898Y-291740012D01*
X362665508Y-291739340D01*
X362860040Y-291763783D01*
G37*
G36*
X363956330Y-289811718D02*
G01*
X364053101Y-289930849D01*
X364121197Y-290149419D01*
X364115927Y-290367530D01*
X364039119Y-290519542D01*
X364036656Y-290521631D01*
X363900117Y-290582559D01*
X363697779Y-290623498D01*
X363685491Y-290624768D01*
X363483759Y-290670319D01*
X363397208Y-290738982D01*
X363432705Y-290803580D01*
X363597115Y-290836934D01*
X363631734Y-290837564D01*
X363821114Y-290818106D01*
X363936537Y-290770457D01*
X363943023Y-290762416D01*
X364027086Y-290683181D01*
X364088412Y-290745939D01*
X364123611Y-290943638D01*
X364130893Y-291153186D01*
X364124701Y-291406987D01*
X364102900Y-291531030D01*
X364060656Y-291545466D01*
X364040715Y-291528925D01*
X363919897Y-291483360D01*
X363693011Y-291453281D01*
X363403485Y-291438687D01*
X363094746Y-291439579D01*
X362890952Y-291451310D01*
X362810222Y-291455957D01*
X362593340Y-291487820D01*
X362492668Y-291528925D01*
X362443151Y-291518473D01*
X362410996Y-291393167D01*
X362395523Y-291187364D01*
X362396049Y-290935420D01*
X362407571Y-290743629D01*
X362571573Y-290743629D01*
X362603638Y-290805466D01*
X362762453Y-290834256D01*
X362890952Y-290837564D01*
X363117103Y-290823454D01*
X363209552Y-290778344D01*
X363210330Y-290743629D01*
X363120220Y-290681314D01*
X362934139Y-290650647D01*
X362890952Y-290649695D01*
X362692315Y-290672305D01*
X362579152Y-290729650D01*
X362571573Y-290743629D01*
X362407571Y-290743629D01*
X362411893Y-290671690D01*
X362442373Y-290430530D01*
X362486808Y-290246296D01*
X362519473Y-290177954D01*
X362688945Y-290045369D01*
X362902186Y-290012833D01*
X363098750Y-290082339D01*
X363172206Y-290156429D01*
X363254416Y-290258018D01*
X363312477Y-290235652D01*
X363364974Y-290156429D01*
X363507620Y-290042041D01*
X363643068Y-290010937D01*
X363793690Y-289971629D01*
X363830301Y-289898215D01*
X363868241Y-289797145D01*
X363956330Y-289811718D01*
G37*
G36*
X360805633Y-281157281D02*
G01*
X361012254Y-281181056D01*
X361031258Y-293897082D01*
X361033657Y-295516311D01*
X361035748Y-296991956D01*
X361037462Y-298330730D01*
X361038733Y-299539345D01*
X361039491Y-300624512D01*
X361039668Y-301592946D01*
X361039197Y-302451357D01*
X361038009Y-303206457D01*
X361036037Y-303864960D01*
X361033211Y-304433577D01*
X361029465Y-304919020D01*
X361024730Y-305328002D01*
X361018937Y-305667234D01*
X361012020Y-305943430D01*
X361003909Y-306163301D01*
X360994537Y-306333559D01*
X360983835Y-306460917D01*
X360971736Y-306552086D01*
X360958171Y-306613780D01*
X360943073Y-306652710D01*
X360926373Y-306675589D01*
X360908003Y-306689128D01*
X360901471Y-306692740D01*
X360764460Y-306728013D01*
X360632411Y-306650859D01*
X360600662Y-306620352D01*
X360581124Y-306599368D01*
X360563335Y-306572752D01*
X360547215Y-306533685D01*
X360532681Y-306475349D01*
X360519651Y-306390924D01*
X360508042Y-306273593D01*
X360497773Y-306116537D01*
X360488761Y-305912936D01*
X360480925Y-305655972D01*
X360474182Y-305338827D01*
X360468450Y-304954681D01*
X360463648Y-304496717D01*
X360459691Y-303958114D01*
X360456500Y-303332055D01*
X360453991Y-302611721D01*
X360452083Y-301790293D01*
X360450693Y-300860952D01*
X360449740Y-299816880D01*
X360449140Y-298651259D01*
X360448812Y-297357268D01*
X360448674Y-295928090D01*
X360448644Y-294356905D01*
X360448644Y-293998670D01*
X360449102Y-292196152D01*
X360450470Y-290526329D01*
X360452740Y-288990660D01*
X360455903Y-287590604D01*
X360459951Y-286327619D01*
X360464874Y-285203166D01*
X360470663Y-284218702D01*
X360477312Y-283375686D01*
X360484810Y-282675579D01*
X360493149Y-282119838D01*
X360502320Y-281709922D01*
X360512315Y-281447291D01*
X360523125Y-281333403D01*
X360523828Y-281331256D01*
X360613532Y-281186151D01*
X360760944Y-281153369D01*
X360805633Y-281157281D01*
G37*
%TO.C,TP67*%
D10*
X413194500Y-195174000D02*
G75*
G02*
X412509500Y-195174000I-342500J0D01*
G01*
X412509500Y-195174000D02*
G75*
G02*
X413194500Y-195174000I342500J0D01*
G01*
%TO.C,TP16*%
X403313900Y-219126000D02*
G75*
G02*
X402628900Y-219126000I-342500J0D01*
G01*
X402628900Y-219126000D02*
G75*
G02*
X403313900Y-219126000I342500J0D01*
G01*
%TO.C,TP55*%
X225056700Y-257403800D02*
G75*
G02*
X224371700Y-257403800I-342500J0D01*
G01*
X224371700Y-257403800D02*
G75*
G02*
X225056700Y-257403800I342500J0D01*
G01*
%TO.C,TP41*%
X366356900Y-258699200D02*
G75*
G02*
X365671900Y-258699200I-342500J0D01*
G01*
X365671900Y-258699200D02*
G75*
G02*
X366356900Y-258699200I342500J0D01*
G01*
%TO.C,TP68*%
X411701500Y-290061400D02*
G75*
G02*
X411016500Y-290061400I-342500J0D01*
G01*
X411016500Y-290061400D02*
G75*
G02*
X411701500Y-290061400I342500J0D01*
G01*
%TO.C,TP3*%
X410248100Y-243459200D02*
G75*
G02*
X409563100Y-243459200I-342500J0D01*
G01*
X409563100Y-243459200D02*
G75*
G02*
X410248100Y-243459200I342500J0D01*
G01*
%TO.C,TP63*%
X409359100Y-256940800D02*
G75*
G02*
X408674100Y-256940800I-342500J0D01*
G01*
X408674100Y-256940800D02*
G75*
G02*
X409359100Y-256940800I342500J0D01*
G01*
%TO.C,TP78*%
X317614300Y-214477800D02*
G75*
G02*
X316929300Y-214477800I-342500J0D01*
G01*
X316929300Y-214477800D02*
G75*
G02*
X317614300Y-214477800I342500J0D01*
G01*
%TO.C,TP130*%
X343263100Y-226857400D02*
G75*
G02*
X342578100Y-226857400I-342500J0D01*
G01*
X342578100Y-226857400D02*
G75*
G02*
X343263100Y-226857400I342500J0D01*
G01*
%TO.C,TP123*%
X275911100Y-192081600D02*
G75*
G02*
X275226100Y-192081600I-342500J0D01*
G01*
X275226100Y-192081600D02*
G75*
G02*
X275911100Y-192081600I342500J0D01*
G01*
%TO.C,TP79*%
X326961500Y-214579400D02*
G75*
G02*
X326276500Y-214579400I-342500J0D01*
G01*
X326276500Y-214579400D02*
G75*
G02*
X326961500Y-214579400I342500J0D01*
G01*
%TO.C,TP128*%
X274637500Y-204692200D02*
G75*
G02*
X273952500Y-204692200I-342500J0D01*
G01*
X273952500Y-204692200D02*
G75*
G02*
X274637500Y-204692200I342500J0D01*
G01*
%TO.C,TP70*%
X407098500Y-201778000D02*
G75*
G02*
X406413500Y-201778000I-342500J0D01*
G01*
X406413500Y-201778000D02*
G75*
G02*
X407098500Y-201778000I342500J0D01*
G01*
%TO.C,TP66*%
X407098500Y-195174000D02*
G75*
G02*
X406413500Y-195174000I-342500J0D01*
G01*
X406413500Y-195174000D02*
G75*
G02*
X407098500Y-195174000I342500J0D01*
G01*
%TO.C,TP40*%
X384086100Y-229743200D02*
G75*
G02*
X383401100Y-229743200I-342500J0D01*
G01*
X383401100Y-229743200D02*
G75*
G02*
X384086100Y-229743200I342500J0D01*
G01*
%TO.C,TP25*%
X256446500Y-199747600D02*
G75*
G02*
X255761500Y-199747600I-342500J0D01*
G01*
X255761500Y-199747600D02*
G75*
G02*
X256446500Y-199747600I342500J0D01*
G01*
%TO.C,TP51*%
X297244900Y-202348000D02*
G75*
G02*
X296559900Y-202348000I-342500J0D01*
G01*
X296559900Y-202348000D02*
G75*
G02*
X297244900Y-202348000I342500J0D01*
G01*
%TO.C,TP69*%
X417035500Y-290061400D02*
G75*
G02*
X416350500Y-290061400I-342500J0D01*
G01*
X416350500Y-290061400D02*
G75*
G02*
X417035500Y-290061400I342500J0D01*
G01*
%TO.C,TP52*%
X290640900Y-202348000D02*
G75*
G02*
X289955900Y-202348000I-342500J0D01*
G01*
X289955900Y-202348000D02*
G75*
G02*
X290640900Y-202348000I342500J0D01*
G01*
%TO.C,TP76*%
X319798700Y-199999800D02*
G75*
G02*
X319113700Y-199999800I-342500J0D01*
G01*
X319113700Y-199999800D02*
G75*
G02*
X319798700Y-199999800I342500J0D01*
G01*
%TO.C,TP73*%
X238391700Y-253238200D02*
G75*
G02*
X237706700Y-253238200I-342500J0D01*
G01*
X237706700Y-253238200D02*
G75*
G02*
X238391700Y-253238200I342500J0D01*
G01*
%TO.C,TP42*%
X379268900Y-265476200D02*
G75*
G02*
X378583900Y-265476200I-342500J0D01*
G01*
X378583900Y-265476200D02*
G75*
G02*
X379268900Y-265476200I342500J0D01*
G01*
%TO.C,TP64*%
X413479500Y-298697400D02*
G75*
G02*
X412794500Y-298697400I-342500J0D01*
G01*
X412794500Y-298697400D02*
G75*
G02*
X413479500Y-298697400I342500J0D01*
G01*
%TO.C,TP49*%
X303938300Y-199999800D02*
G75*
G02*
X303253300Y-199999800I-342500J0D01*
G01*
X303253300Y-199999800D02*
G75*
G02*
X303938300Y-199999800I342500J0D01*
G01*
%TO.C,TP62*%
X417258500Y-256915400D02*
G75*
G02*
X416573500Y-256915400I-342500J0D01*
G01*
X416573500Y-256915400D02*
G75*
G02*
X417258500Y-256915400I342500J0D01*
G01*
%TO.C,TP22*%
X249095500Y-194584708D02*
G75*
G02*
X248410500Y-194584708I-342500J0D01*
G01*
X248410500Y-194584708D02*
G75*
G02*
X249095500Y-194584708I342500J0D01*
G01*
%TO.C,TP127*%
X265573100Y-219897400D02*
G75*
G02*
X264888100Y-219897400I-342500J0D01*
G01*
X264888100Y-219897400D02*
G75*
G02*
X265573100Y-219897400I342500J0D01*
G01*
%TO.C,TP133*%
X333620900Y-225984000D02*
G75*
G02*
X332935900Y-225984000I-342500J0D01*
G01*
X332935900Y-225984000D02*
G75*
G02*
X333620900Y-225984000I342500J0D01*
G01*
%TO.C,TP74*%
X355894300Y-191313000D02*
G75*
G02*
X355209300Y-191313000I-342500J0D01*
G01*
X355209300Y-191313000D02*
G75*
G02*
X355894300Y-191313000I342500J0D01*
G01*
%TD*%
D12*
%TO.C,Y1*%
X409499200Y-291908200D03*
D13*
X409499200Y-292898800D03*
%TD*%
D14*
%TO.C,LED2*%
X387629800Y-220243600D03*
X386129800Y-220243600D03*
%TD*%
D15*
%TO.C,C278*%
X329493800Y-225501400D03*
X327873800Y-225501400D03*
%TD*%
D16*
%TO.C,IC26*%
X387074000Y-271800800D03*
X387074000Y-270530800D03*
X387074000Y-269260800D03*
X387074000Y-267990800D03*
X387074000Y-266720800D03*
X387074000Y-265450800D03*
X387074000Y-264180800D03*
X381650000Y-264180800D03*
X381650000Y-265450800D03*
X381650000Y-266720800D03*
X381650000Y-267990800D03*
X381650000Y-269260800D03*
X381650000Y-270530800D03*
X381650000Y-271800800D03*
%TD*%
D17*
%TO.C,D29*%
X317424200Y-212674400D03*
X317424200Y-211174400D03*
%TD*%
D18*
%TO.C,R4*%
X363906200Y-254190800D03*
X363906200Y-255790800D03*
%TD*%
D19*
%TO.C,C132*%
X304913200Y-197231200D03*
X306313200Y-197231200D03*
%TD*%
D20*
%TO.C,R155*%
X410464400Y-268275000D03*
X409014400Y-268275000D03*
%TD*%
%TO.C,R108*%
X391310600Y-251968200D03*
X392760600Y-251968200D03*
%TD*%
D21*
%TO.C,R170*%
X410820000Y-200254000D03*
X410820000Y-201704000D03*
%TD*%
D22*
%TO.C,C96*%
X382411200Y-239022600D03*
X382411200Y-236262600D03*
%TD*%
D23*
%TO.C,R260*%
X241900200Y-199136200D03*
X240600200Y-199136200D03*
%TD*%
D24*
%TO.C,H2*%
X398374000Y-185877400D03*
D25*
X398374000Y-185877400D03*
%TD*%
D26*
%TO.C,Q25*%
X313826400Y-277841400D03*
D27*
X313826400Y-272391400D03*
X313826400Y-266941400D03*
%TD*%
D28*
%TO.C,D20*%
X233389000Y-248984600D03*
X229289000Y-248984600D03*
%TD*%
D23*
%TO.C,R274*%
X278545600Y-211348650D03*
X279845600Y-211348650D03*
%TD*%
D29*
%TO.C,R210*%
X339911400Y-214808000D03*
X339911400Y-213508000D03*
%TD*%
D20*
%TO.C,R338*%
X416591800Y-283400400D03*
X418041800Y-283400400D03*
%TD*%
%TO.C,R157*%
X407416400Y-264973000D03*
X405966400Y-264973000D03*
%TD*%
D30*
%TO.C,C179*%
X300552600Y-224964400D03*
D31*
X300552600Y-222964400D03*
%TD*%
D29*
%TO.C,R209*%
X338641400Y-214838000D03*
X338641400Y-213538000D03*
%TD*%
D32*
%TO.C,C4*%
X375017200Y-241808200D03*
X376417200Y-241808200D03*
%TD*%
D33*
%TO.C,C188*%
X219685000Y-272694600D03*
D34*
X209685000Y-272694600D03*
%TD*%
D23*
%TO.C,R299*%
X270455000Y-197834200D03*
X271755000Y-197834200D03*
%TD*%
%TO.C,R164*%
X415027000Y-293363400D03*
X416327000Y-293363400D03*
%TD*%
D35*
%TO.C,C212*%
X367233600Y-198893400D03*
X367233600Y-200293400D03*
%TD*%
D36*
%TO.C,C171*%
X408788000Y-196698000D03*
X408788000Y-195038000D03*
%TD*%
D23*
%TO.C,R138*%
X292837000Y-195453200D03*
X291537000Y-195453200D03*
%TD*%
D37*
%TO.C,C64*%
X253310000Y-201320600D03*
X253310000Y-204270600D03*
%TD*%
D29*
%TO.C,R52*%
X255596000Y-205892600D03*
X255596000Y-207192600D03*
%TD*%
D38*
%TO.C,D26*%
X413359400Y-304336400D03*
X415259400Y-304336400D03*
X414309400Y-302236400D03*
%TD*%
D39*
%TO.C,D52*%
X275255600Y-217952650D03*
X276655600Y-217952650D03*
%TD*%
D21*
%TO.C,R172*%
X412217000Y-207594400D03*
X412217000Y-206144400D03*
%TD*%
D40*
%TO.C,J4*%
X297361000Y-320081900D03*
D41*
X299901000Y-320081900D03*
%TD*%
D23*
%TO.C,R265*%
X272561600Y-217952650D03*
X273861600Y-217952650D03*
%TD*%
D20*
%TO.C,R156*%
X418412400Y-264973000D03*
X419862400Y-264973000D03*
%TD*%
D29*
%TO.C,R132*%
X306222800Y-192644200D03*
X306222800Y-193944200D03*
%TD*%
D23*
%TO.C,R341*%
X344648400Y-228295400D03*
X345948400Y-228295400D03*
%TD*%
D42*
%TO.C,J13*%
X215316200Y-318414600D03*
D43*
X210236200Y-318414600D03*
%TD*%
D32*
%TO.C,C258*%
X261736600Y-211515400D03*
X263136600Y-211515400D03*
%TD*%
D44*
%TO.C,C13*%
X387494400Y-289966600D03*
X390254400Y-289966600D03*
%TD*%
D45*
%TO.C,IC58*%
X351785000Y-225491200D03*
X351785000Y-226441200D03*
X351785000Y-227391200D03*
X354285000Y-227391200D03*
X354285000Y-225491200D03*
%TD*%
D20*
%TO.C,R12*%
X358357400Y-251688800D03*
X356907400Y-251688800D03*
%TD*%
D23*
%TO.C,R305*%
X274407000Y-202914200D03*
X275707000Y-202914200D03*
%TD*%
D29*
%TO.C,R315*%
X232110200Y-216730400D03*
X232110200Y-218030400D03*
%TD*%
D23*
%TO.C,R23*%
X390205600Y-218364000D03*
X391505600Y-218364000D03*
%TD*%
%TO.C,R302*%
X270352000Y-204432200D03*
X271652000Y-204432200D03*
%TD*%
D29*
%TO.C,R43*%
X249769000Y-184443708D03*
X249769000Y-185743708D03*
%TD*%
D20*
%TO.C,R154*%
X410464400Y-269545000D03*
X409014400Y-269545000D03*
%TD*%
D29*
%TO.C,R182*%
X317697600Y-239535800D03*
X317697600Y-240835800D03*
%TD*%
D19*
%TO.C,C164*%
X406016400Y-263449000D03*
X407416400Y-263449000D03*
%TD*%
D29*
%TO.C,R310*%
X225506200Y-221064400D03*
X225506200Y-219764400D03*
%TD*%
D20*
%TO.C,R161*%
X405968600Y-260471400D03*
X407418600Y-260471400D03*
%TD*%
D46*
%TO.C,R145*%
X277036800Y-244475200D03*
X280036800Y-244475200D03*
%TD*%
D39*
%TO.C,D67*%
X258180600Y-219643400D03*
X259580600Y-219643400D03*
%TD*%
D23*
%TO.C,R286*%
X283543600Y-215158650D03*
X282243600Y-215158650D03*
%TD*%
D47*
%TO.C,D27*%
X409851000Y-183218600D03*
X409851000Y-185118600D03*
X411951000Y-184168600D03*
%TD*%
D44*
%TO.C,C22*%
X382160200Y-290906400D03*
X379400200Y-290906400D03*
%TD*%
D48*
%TO.C,R142*%
X227239000Y-245872200D03*
X225339000Y-245872200D03*
%TD*%
D23*
%TO.C,R183*%
X355755000Y-188214200D03*
X357055000Y-188214200D03*
%TD*%
D29*
%TO.C,R217*%
X344932400Y-192369400D03*
X344932400Y-191069400D03*
%TD*%
D19*
%TO.C,C135*%
X296310200Y-206106200D03*
X294910200Y-206106200D03*
%TD*%
D29*
%TO.C,R39*%
X257643000Y-184951708D03*
X257643000Y-186251708D03*
%TD*%
D18*
%TO.C,R1*%
X363982400Y-248133000D03*
X363982400Y-249733000D03*
%TD*%
D29*
%TO.C,R225*%
X347878800Y-213487200D03*
X347878800Y-214787200D03*
%TD*%
D19*
%TO.C,C248*%
X271882600Y-193351600D03*
X273282600Y-193351600D03*
%TD*%
D29*
%TO.C,R40*%
X255357000Y-184951708D03*
X255357000Y-186251708D03*
%TD*%
%TO.C,R175*%
X336914200Y-192380000D03*
X336914200Y-191080000D03*
%TD*%
D36*
%TO.C,C281*%
X356591000Y-227085200D03*
X356591000Y-225425200D03*
%TD*%
D29*
%TO.C,R313*%
X230332200Y-214460400D03*
X230332200Y-213160400D03*
%TD*%
D21*
%TO.C,R10*%
X355041600Y-246682800D03*
X355041600Y-248132800D03*
%TD*%
D49*
%TO.C,U13*%
X260502800Y-238252200D03*
X285902800Y-238252200D03*
%TD*%
D23*
%TO.C,R263*%
X265632600Y-192081600D03*
X266932600Y-192081600D03*
%TD*%
D21*
%TO.C,R167*%
X414915000Y-291585400D03*
X414915000Y-290135400D03*
%TD*%
D23*
%TO.C,R190*%
X328489400Y-199822000D03*
X329789400Y-199822000D03*
%TD*%
D50*
%TO.C,C47*%
X256261000Y-255460600D03*
X256261000Y-253860600D03*
%TD*%
D39*
%TO.C,D51*%
X268264600Y-192081600D03*
X269664600Y-192081600D03*
%TD*%
D23*
%TO.C,R130*%
X306187000Y-195580200D03*
X304887000Y-195580200D03*
%TD*%
D51*
%TO.C,IC52*%
X268453000Y-199652200D03*
X268453000Y-200152200D03*
X268453000Y-200652200D03*
X268453000Y-201152200D03*
X268453000Y-201652200D03*
X268453000Y-202152200D03*
X268453000Y-202652200D03*
X271529000Y-202652200D03*
X271529000Y-202152200D03*
X271529000Y-201652200D03*
X271529000Y-201152200D03*
X271529000Y-200652200D03*
X271529000Y-200152200D03*
X271529000Y-199652200D03*
%TD*%
D16*
%TO.C,IC4*%
X385033200Y-288493400D03*
X385033200Y-287223400D03*
X385033200Y-285953400D03*
X385033200Y-284683400D03*
X385033200Y-283413400D03*
X385033200Y-282143400D03*
X385033200Y-280873400D03*
X379609200Y-280873400D03*
X379609200Y-282143400D03*
X379609200Y-283413400D03*
X379609200Y-284683400D03*
X379609200Y-285953400D03*
X379609200Y-287223400D03*
X379609200Y-288493400D03*
%TD*%
D51*
%TO.C,IC48*%
X276627600Y-213166650D03*
X276627600Y-213666650D03*
X276627600Y-214166650D03*
X276627600Y-214666650D03*
X276627600Y-215166650D03*
X276627600Y-215666650D03*
X276627600Y-216166650D03*
X279703600Y-216166650D03*
X279703600Y-215666650D03*
X279703600Y-215166650D03*
X279703600Y-214666650D03*
X279703600Y-214166650D03*
X279703600Y-213666650D03*
X279703600Y-213166650D03*
%TD*%
D52*
%TO.C,IC61*%
X417778400Y-221530400D03*
X417128400Y-221530400D03*
X416478400Y-221530400D03*
X415828400Y-221530400D03*
X415178400Y-221530400D03*
X414528400Y-221530400D03*
X413878400Y-221530400D03*
X413878400Y-227406400D03*
X414528400Y-227406400D03*
X415178400Y-227406400D03*
X415828400Y-227406400D03*
X416478400Y-227406400D03*
X417128400Y-227406400D03*
X417778400Y-227406400D03*
%TD*%
D23*
%TO.C,R180*%
X308716400Y-222862800D03*
X310016400Y-222862800D03*
%TD*%
D53*
%TO.C,D28*%
X306334000Y-233988000D03*
X301934000Y-233988000D03*
%TD*%
D54*
%TO.C,C140*%
X232423200Y-245872200D03*
X234023200Y-245872200D03*
%TD*%
D37*
%TO.C,C60*%
X249769000Y-187570708D03*
X249769000Y-190520708D03*
%TD*%
D23*
%TO.C,R184*%
X355755000Y-189509600D03*
X357055000Y-189509600D03*
%TD*%
%TO.C,R227*%
X265731200Y-256502400D03*
X267031200Y-256502400D03*
%TD*%
D29*
%TO.C,R218*%
X351485600Y-190642200D03*
X351485600Y-189342200D03*
%TD*%
D23*
%TO.C,R201*%
X328489400Y-198552000D03*
X329789400Y-198552000D03*
%TD*%
D55*
%TO.C,D71*%
X273533000Y-198720200D03*
X273533000Y-200120200D03*
%TD*%
D19*
%TO.C,C249*%
X278587600Y-217952650D03*
X279987600Y-217952650D03*
%TD*%
D14*
%TO.C,LED7*%
X366132800Y-215167400D03*
X366132800Y-216667400D03*
%TD*%
D56*
%TO.C,H13*%
X245135800Y-254482800D03*
D57*
X245135800Y-254482800D03*
%TD*%
D23*
%TO.C,R282*%
X282243600Y-216428650D03*
X283543600Y-216428650D03*
%TD*%
%TO.C,R270*%
X275751600Y-211348650D03*
X277051600Y-211348650D03*
%TD*%
D20*
%TO.C,R153*%
X415544400Y-268193000D03*
X416994400Y-268193000D03*
%TD*%
D32*
%TO.C,C244*%
X278557600Y-209824650D03*
X279957600Y-209824650D03*
%TD*%
D58*
%TO.C,C267*%
X339326200Y-238150600D03*
X337686200Y-238150600D03*
%TD*%
D28*
%TO.C,D23*%
X274803000Y-241401800D03*
X278903000Y-241401800D03*
%TD*%
D19*
%TO.C,C261*%
X263024600Y-220913400D03*
X261624600Y-220913400D03*
%TD*%
D44*
%TO.C,C112*%
X389204600Y-256794200D03*
X386444600Y-256794200D03*
%TD*%
D37*
%TO.C,C58*%
X247483000Y-187570708D03*
X247483000Y-190520708D03*
%TD*%
D23*
%TO.C,R316*%
X337780000Y-240970000D03*
X339080000Y-240970000D03*
%TD*%
D50*
%TO.C,C182*%
X304261000Y-227930200D03*
X304261000Y-229530200D03*
%TD*%
D29*
%TO.C,R37*%
X247483000Y-184480708D03*
X247483000Y-185780708D03*
%TD*%
D23*
%TO.C,R139*%
X294369000Y-196723200D03*
X295669000Y-196723200D03*
%TD*%
D59*
%TO.C,IC32*%
X292124400Y-202376000D03*
X292624400Y-202376000D03*
X293124400Y-202376000D03*
X293624400Y-202376000D03*
X294124400Y-202376000D03*
X294624400Y-202376000D03*
X295124400Y-202376000D03*
X295124400Y-199300000D03*
X294624400Y-199300000D03*
X294124400Y-199300000D03*
X293624400Y-199300000D03*
X293124400Y-199300000D03*
X292624400Y-199300000D03*
X292124400Y-199300000D03*
%TD*%
D44*
%TO.C,C94*%
X388727200Y-239674600D03*
X385967200Y-239674600D03*
%TD*%
D32*
%TO.C,C174*%
X411675000Y-288283400D03*
X413075000Y-288283400D03*
%TD*%
D16*
%TO.C,IC25*%
X366121800Y-248183600D03*
X366121800Y-249453600D03*
X366121800Y-250723600D03*
X366121800Y-251993600D03*
X366121800Y-253263600D03*
X366121800Y-254533600D03*
X366121800Y-255803600D03*
X371545800Y-255803600D03*
X371545800Y-254533600D03*
X371545800Y-253263600D03*
X371545800Y-251993600D03*
X371545800Y-250723600D03*
X371545800Y-249453600D03*
X371545800Y-248183600D03*
%TD*%
D23*
%TO.C,R304*%
X265230600Y-218119400D03*
X266530600Y-218119400D03*
%TD*%
%TO.C,R19*%
X391247000Y-214833400D03*
X392547000Y-214833400D03*
%TD*%
D20*
%TO.C,R86*%
X388629800Y-282092600D03*
X387179800Y-282092600D03*
%TD*%
D60*
%TO.C,IC39*%
X312016000Y-228958800D03*
X312016000Y-227688800D03*
X312016000Y-226418800D03*
X312016000Y-225148800D03*
X306666000Y-225148800D03*
X306666000Y-226418800D03*
X306666000Y-227688800D03*
X306666000Y-228958800D03*
D61*
X309341000Y-227053800D03*
%TD*%
D59*
%TO.C,IC19*%
X253809000Y-194193708D03*
X253309000Y-194193708D03*
X252809000Y-194193708D03*
X252309000Y-194193708D03*
X251809000Y-194193708D03*
X251309000Y-194193708D03*
X250809000Y-194193708D03*
X250809000Y-197269708D03*
X251309000Y-197269708D03*
X251809000Y-197269708D03*
X252309000Y-197269708D03*
X252809000Y-197269708D03*
X253309000Y-197269708D03*
X253809000Y-197269708D03*
%TD*%
D29*
%TO.C,R312*%
X232110200Y-224142400D03*
X232110200Y-222842400D03*
%TD*%
D32*
%TO.C,C259*%
X270355000Y-196310200D03*
X271755000Y-196310200D03*
%TD*%
D62*
%TO.C,C199*%
X319202200Y-211236400D03*
X319202200Y-212636400D03*
%TD*%
D20*
%TO.C,R14*%
X358357400Y-250063200D03*
X356907400Y-250063200D03*
%TD*%
%TO.C,R174*%
X412076200Y-209200400D03*
X413526200Y-209200400D03*
%TD*%
D23*
%TO.C,R47*%
X250053000Y-192347708D03*
X248753000Y-192347708D03*
%TD*%
D21*
%TO.C,R166*%
X413137000Y-291585400D03*
X413137000Y-290135400D03*
%TD*%
D23*
%TO.C,R273*%
X271728600Y-185477600D03*
X273028600Y-185477600D03*
%TD*%
D29*
%TO.C,R214*%
X341732000Y-192369400D03*
X341732000Y-191069400D03*
%TD*%
D23*
%TO.C,R168*%
X410790000Y-198476000D03*
X412090000Y-198476000D03*
%TD*%
%TO.C,R292*%
X264867000Y-197834200D03*
X266167000Y-197834200D03*
%TD*%
%TO.C,R163*%
X413137000Y-293363400D03*
X411837000Y-293363400D03*
%TD*%
D63*
%TO.C,C19*%
X387985400Y-286055000D03*
X390935400Y-286055000D03*
%TD*%
D23*
%TO.C,R165*%
X408788000Y-198476000D03*
X407488000Y-198476000D03*
%TD*%
D20*
%TO.C,R329*%
X411474800Y-283400400D03*
X410024800Y-283400400D03*
%TD*%
%TO.C,R339*%
X411462700Y-284803600D03*
X412912700Y-284803600D03*
%TD*%
%TO.C,R106*%
X392686600Y-249428200D03*
X391236600Y-249428200D03*
%TD*%
D21*
%TO.C,R96*%
X384189200Y-237568600D03*
X384189200Y-236118600D03*
%TD*%
D20*
%TO.C,R82*%
X391169800Y-282092600D03*
X389719800Y-282092600D03*
%TD*%
D36*
%TO.C,C170*%
X415143600Y-295157800D03*
X415143600Y-296817800D03*
%TD*%
D17*
%TO.C,D59*%
X231964200Y-196862200D03*
X231964200Y-198362200D03*
%TD*%
D56*
%TO.C,H9*%
X387960000Y-201549200D03*
D57*
X387960000Y-201549200D03*
%TD*%
D14*
%TO.C,LED19*%
X344653000Y-231712400D03*
X344653000Y-230212400D03*
%TD*%
D23*
%TO.C,R272*%
X236170200Y-199136200D03*
X234870200Y-199136200D03*
%TD*%
D64*
%TO.C,J9*%
X319024400Y-217271800D03*
D65*
X321564400Y-217271800D03*
X324104400Y-217271800D03*
X326644400Y-217271800D03*
X329184400Y-217271800D03*
%TD*%
D66*
%TO.C,C48*%
X254483000Y-255444600D03*
X254483000Y-253644600D03*
%TD*%
D29*
%TO.C,R134*%
X292394800Y-208788200D03*
X292394800Y-207488200D03*
%TD*%
D19*
%TO.C,C128*%
X304267000Y-205147800D03*
X305667000Y-205147800D03*
%TD*%
D17*
%TO.C,D73*%
X235152200Y-209103600D03*
X235152200Y-210603600D03*
%TD*%
D20*
%TO.C,R340*%
X416516100Y-284803600D03*
X415066100Y-284803600D03*
%TD*%
D23*
%TO.C,R297*%
X239358200Y-211377600D03*
X238058200Y-211377600D03*
%TD*%
D29*
%TO.C,R215*%
X338531600Y-192369400D03*
X338531600Y-191069400D03*
%TD*%
%TO.C,R141*%
X294399000Y-192629200D03*
X294399000Y-193929200D03*
%TD*%
D39*
%TO.C,D66*%
X242710200Y-204773600D03*
X241310200Y-204773600D03*
%TD*%
D56*
%TO.C,H11*%
X327457200Y-250037800D03*
D57*
X327457200Y-250037800D03*
%TD*%
D17*
%TO.C,D61*%
X276174600Y-187719600D03*
X276174600Y-186219600D03*
%TD*%
D20*
%TO.C,R173*%
X407176200Y-209200400D03*
X405726200Y-209200400D03*
%TD*%
D54*
%TO.C,C144*%
X267157600Y-244170400D03*
X268757600Y-244170400D03*
%TD*%
D55*
%TO.C,D58*%
X230694200Y-196912200D03*
X230694200Y-198312200D03*
%TD*%
D44*
%TO.C,C85*%
X393587200Y-239420600D03*
X396347200Y-239420600D03*
%TD*%
D22*
%TO.C,C23*%
X375691800Y-289941200D03*
X375691800Y-287181200D03*
%TD*%
D19*
%TO.C,C139*%
X295669000Y-195453200D03*
X294269000Y-195453200D03*
%TD*%
D29*
%TO.C,R221*%
X341181400Y-214808000D03*
X341181400Y-213508000D03*
%TD*%
D54*
%TO.C,C183*%
X306661400Y-231016200D03*
X308261400Y-231016200D03*
%TD*%
D29*
%TO.C,R140*%
X292937000Y-192629200D03*
X292937000Y-193929200D03*
%TD*%
D17*
%TO.C,D63*%
X282751600Y-213622650D03*
X282751600Y-212122650D03*
%TD*%
D29*
%TO.C,R191*%
X335783200Y-230062400D03*
X335783200Y-228762400D03*
%TD*%
D39*
%TO.C,D79*%
X226392200Y-215222400D03*
X227792200Y-215222400D03*
%TD*%
D23*
%TO.C,R306*%
X234360200Y-207567600D03*
X235660200Y-207567600D03*
%TD*%
%TO.C,R269*%
X268934600Y-185477600D03*
X270234600Y-185477600D03*
%TD*%
D29*
%TO.C,R54*%
X250008000Y-203860600D03*
X250008000Y-205160600D03*
%TD*%
D23*
%TO.C,R131*%
X307731800Y-195605600D03*
X309031800Y-195605600D03*
%TD*%
%TO.C,R291*%
X255548600Y-219643400D03*
X256848600Y-219643400D03*
%TD*%
D51*
%TO.C,IC50*%
X241276200Y-209551600D03*
X241276200Y-209051600D03*
X241276200Y-208551600D03*
X241276200Y-208051600D03*
X241276200Y-207551600D03*
X241276200Y-207051600D03*
X241276200Y-206551600D03*
X238200200Y-206551600D03*
X238200200Y-207051600D03*
X238200200Y-207551600D03*
X238200200Y-208051600D03*
X238200200Y-208551600D03*
X238200200Y-209051600D03*
X238200200Y-209551600D03*
%TD*%
D23*
%TO.C,R261*%
X242154200Y-192532200D03*
X240854200Y-192532200D03*
%TD*%
D55*
%TO.C,D55*%
X274806600Y-186363600D03*
X274806600Y-187763600D03*
%TD*%
D51*
%TO.C,IC46*%
X238060200Y-197318200D03*
X238060200Y-196818200D03*
X238060200Y-196318200D03*
X238060200Y-195818200D03*
X238060200Y-195318200D03*
X238060200Y-194818200D03*
X238060200Y-194318200D03*
X234984200Y-194318200D03*
X234984200Y-194818200D03*
X234984200Y-195318200D03*
X234984200Y-195818200D03*
X234984200Y-196318200D03*
X234984200Y-196818200D03*
X234984200Y-197318200D03*
%TD*%
D29*
%TO.C,R211*%
X347929600Y-192379800D03*
X347929600Y-191079800D03*
%TD*%
%TO.C,R319*%
X341244200Y-226679600D03*
X341244200Y-225379600D03*
%TD*%
D51*
%TO.C,IC47*%
X269810600Y-187247600D03*
X269810600Y-187747600D03*
X269810600Y-188247600D03*
X269810600Y-188747600D03*
X269810600Y-189247600D03*
X269810600Y-189747600D03*
X269810600Y-190247600D03*
X272886600Y-190247600D03*
X272886600Y-189747600D03*
X272886600Y-189247600D03*
X272886600Y-188747600D03*
X272886600Y-188247600D03*
X272886600Y-187747600D03*
X272886600Y-187247600D03*
%TD*%
D23*
%TO.C,R300*%
X237916200Y-204773600D03*
X239216200Y-204773600D03*
%TD*%
D26*
%TO.C,Q19*%
X250580400Y-278095400D03*
D27*
X250580400Y-272645400D03*
X250580400Y-267195400D03*
%TD*%
D20*
%TO.C,R101*%
X390540000Y-262656800D03*
X389090000Y-262656800D03*
%TD*%
D18*
%TO.C,R5*%
X373405800Y-254444800D03*
X373405800Y-256044800D03*
%TD*%
D67*
%TO.C,J5*%
X412835000Y-178742600D03*
D68*
X412835000Y-188142600D03*
D67*
X420235000Y-180742600D03*
D68*
X417285000Y-192042600D03*
D69*
X416535000Y-179842600D03*
X416535000Y-186842600D03*
%TD*%
D70*
%TO.C,IC57*%
X329661200Y-230479800D03*
X329011200Y-230479800D03*
X328361200Y-230479800D03*
X327711200Y-230479800D03*
X327711200Y-234879800D03*
X328361200Y-234879800D03*
X329011200Y-234879800D03*
X329661200Y-234879800D03*
D71*
X328686200Y-232679800D03*
%TD*%
D23*
%TO.C,R49*%
X251308000Y-199796600D03*
X250008000Y-199796600D03*
%TD*%
D72*
%TO.C,H3*%
X271662400Y-312253400D03*
X271662400Y-261253400D03*
X245262400Y-261253400D03*
X245262400Y-312253400D03*
%TD*%
D23*
%TO.C,R280*%
X232472200Y-194056200D03*
X231172200Y-194056200D03*
%TD*%
D19*
%TO.C,C246*%
X236282200Y-191262200D03*
X234882200Y-191262200D03*
%TD*%
D46*
%TO.C,R143*%
X223293200Y-245770600D03*
X220293200Y-245770600D03*
%TD*%
D55*
%TO.C,D76*%
X276073000Y-200058200D03*
X276073000Y-198658200D03*
%TD*%
D20*
%TO.C,R13*%
X358357400Y-248412200D03*
X356907400Y-248412200D03*
%TD*%
D40*
%TO.C,J12*%
X280969200Y-320097000D03*
D41*
X283509200Y-320097000D03*
%TD*%
D23*
%TO.C,R348*%
X358836600Y-227381000D03*
X360136600Y-227381000D03*
%TD*%
D73*
%TO.C,IC33*%
X224742400Y-242341600D03*
D74*
X227282400Y-242341600D03*
X229822400Y-242341600D03*
%TD*%
D75*
%TO.C,J6*%
X395516500Y-320396000D03*
X399263000Y-320396000D03*
X395516500Y-310591600D03*
X400825100Y-312395000D03*
X395516500Y-313893600D03*
X391770000Y-320396000D03*
%TD*%
D23*
%TO.C,R176*%
X349555200Y-214935000D03*
X350855200Y-214935000D03*
%TD*%
D20*
%TO.C,R11*%
X358357400Y-253289000D03*
X356907400Y-253289000D03*
%TD*%
D23*
%TO.C,R178*%
X322901600Y-244754600D03*
X321601600Y-244754600D03*
%TD*%
%TO.C,R194*%
X328451400Y-206172000D03*
X329751400Y-206172000D03*
%TD*%
%TO.C,R307*%
X266500600Y-216849400D03*
X265200600Y-216849400D03*
%TD*%
D55*
%TO.C,D69*%
X236422200Y-210491600D03*
X236422200Y-209091600D03*
%TD*%
D35*
%TO.C,C160*%
X404318600Y-290665750D03*
X404318600Y-289265750D03*
%TD*%
D76*
%TO.C,J3*%
X289433400Y-181483200D03*
D77*
X289433400Y-178943200D03*
X291973400Y-181483200D03*
X291973400Y-178943200D03*
X294513400Y-181483200D03*
X294513400Y-178943200D03*
X297053400Y-181483200D03*
X297053400Y-178943200D03*
X299593400Y-181483200D03*
X299593400Y-178943200D03*
X302133400Y-181483200D03*
X302133400Y-178943200D03*
X304673400Y-181483200D03*
X304673400Y-178943200D03*
X307213400Y-181483200D03*
X307213400Y-178943200D03*
X309753400Y-181483200D03*
X309753400Y-178943200D03*
X312293400Y-181483200D03*
X312293400Y-178943200D03*
X314833400Y-181483200D03*
X314833400Y-178943200D03*
X317373400Y-181483200D03*
X317373400Y-178943200D03*
X319913400Y-181483200D03*
X319913400Y-178943200D03*
X322453400Y-181483200D03*
X322453400Y-178943200D03*
X324993400Y-181483200D03*
X324993400Y-178943200D03*
X327533400Y-181483200D03*
X327533400Y-178943200D03*
X330073400Y-181483200D03*
X330073400Y-178943200D03*
X332613400Y-181483200D03*
X332613400Y-178943200D03*
X335153400Y-181483200D03*
X335153400Y-178943200D03*
X337693400Y-181483200D03*
X337693400Y-178943200D03*
%TD*%
D48*
%TO.C,R330*%
X329697000Y-227889000D03*
X327797000Y-227889000D03*
%TD*%
D23*
%TO.C,R276*%
X234852200Y-192532200D03*
X236152200Y-192532200D03*
%TD*%
D56*
%TO.C,H8*%
X376479200Y-310794600D03*
D57*
X376479200Y-310794600D03*
%TD*%
D21*
%TO.C,R188*%
X367910800Y-216679400D03*
X367910800Y-215229400D03*
%TD*%
D78*
%TO.C,IC38*%
X405943200Y-216910400D03*
X407213200Y-216910400D03*
X408483200Y-216910400D03*
X409753200Y-216910400D03*
X411023200Y-216910400D03*
X412293200Y-216910400D03*
X413563200Y-216910400D03*
X413563200Y-211486400D03*
X412293200Y-211486400D03*
X411023200Y-211486400D03*
X409753200Y-211486400D03*
X408483200Y-211486400D03*
X407213200Y-211486400D03*
X405943200Y-211486400D03*
%TD*%
D21*
%TO.C,R95*%
X377596800Y-288622600D03*
X377596800Y-287172600D03*
%TD*%
D29*
%TO.C,R224*%
X345135600Y-213523000D03*
X345135600Y-214823000D03*
%TD*%
%TO.C,R314*%
X229062200Y-213160400D03*
X229062200Y-214460400D03*
%TD*%
D79*
%TO.C,C184*%
X312142600Y-221161000D03*
X313092600Y-221161000D03*
%TD*%
D42*
%TO.C,J18*%
X325307200Y-318833400D03*
D43*
X317687200Y-318833400D03*
%TD*%
D32*
%TO.C,C173*%
X416315000Y-288283400D03*
X414915000Y-288283400D03*
%TD*%
D23*
%TO.C,R296*%
X267661000Y-197834200D03*
X268961000Y-197834200D03*
%TD*%
D20*
%TO.C,R104*%
X390794000Y-266720800D03*
X389344000Y-266720800D03*
%TD*%
D23*
%TO.C,R192*%
X328481400Y-204902000D03*
X329781400Y-204902000D03*
%TD*%
D26*
%TO.C,Q21*%
X266328400Y-267195400D03*
D27*
X266328400Y-272645400D03*
X266328400Y-278095400D03*
%TD*%
D23*
%TO.C,R301*%
X261736600Y-219643400D03*
X263036600Y-219643400D03*
%TD*%
%TO.C,R128*%
X305667000Y-206417800D03*
X304367000Y-206417800D03*
%TD*%
D78*
%TO.C,IC59*%
X410204800Y-281242000D03*
X411474800Y-281242000D03*
X412744800Y-281242000D03*
X414014800Y-281242000D03*
X415284800Y-281242000D03*
X416554800Y-281242000D03*
X417824800Y-281242000D03*
X417824800Y-275818000D03*
X416554800Y-275818000D03*
X415284800Y-275818000D03*
X414014800Y-275818000D03*
X412744800Y-275818000D03*
X411474800Y-275818000D03*
X410204800Y-275818000D03*
%TD*%
D80*
%TO.C,S5*%
X306108600Y-212786600D03*
X306108600Y-217286600D03*
X314058600Y-212786600D03*
X314058600Y-217286600D03*
%TD*%
D23*
%TO.C,R303*%
X235660200Y-206297600D03*
X234360200Y-206297600D03*
%TD*%
D32*
%TO.C,C243*%
X236158200Y-200660200D03*
X234758200Y-200660200D03*
%TD*%
%TO.C,C175*%
X412220000Y-203556000D03*
X410820000Y-203556000D03*
%TD*%
D29*
%TO.C,R208*%
X337371400Y-214838000D03*
X337371400Y-213538000D03*
%TD*%
D81*
%TO.C,IC44*%
X408076800Y-237718800D03*
X408076800Y-238353800D03*
X408076800Y-239014200D03*
X408076800Y-239649200D03*
X412496400Y-239649200D03*
X412496400Y-239014200D03*
X412496400Y-238353800D03*
X412496400Y-237718800D03*
%TD*%
D29*
%TO.C,R223*%
X343789400Y-213523000D03*
X343789400Y-214823000D03*
%TD*%
%TO.C,R311*%
X225506200Y-223858400D03*
X225506200Y-222558400D03*
%TD*%
D82*
%TO.C,IC5*%
X364888200Y-206000000D03*
X364888200Y-206650000D03*
X364888200Y-207300000D03*
X364888200Y-207950000D03*
X370764200Y-207950000D03*
X370764200Y-207300000D03*
X370764200Y-206650000D03*
X370764200Y-206000000D03*
%TD*%
D78*
%TO.C,IC37*%
X416814400Y-260737000D03*
X415544400Y-260737000D03*
X414274400Y-260737000D03*
X413004400Y-260737000D03*
X411734400Y-260737000D03*
X410464400Y-260737000D03*
X409194400Y-260737000D03*
X409194400Y-266161000D03*
X410464400Y-266161000D03*
X411734400Y-266161000D03*
X413004400Y-266161000D03*
X414274400Y-266161000D03*
X415544400Y-266161000D03*
X416814400Y-266161000D03*
%TD*%
D23*
%TO.C,R200*%
X328489400Y-197282000D03*
X329789400Y-197282000D03*
%TD*%
D48*
%TO.C,R144*%
X273116400Y-244475200D03*
X275016400Y-244475200D03*
%TD*%
D83*
%TO.C,D80*%
X227780200Y-213952400D03*
X226280200Y-213952400D03*
%TD*%
D28*
%TO.C,D21*%
X226055800Y-248984600D03*
X221955800Y-248984600D03*
%TD*%
D55*
%TO.C,D60*%
X277571600Y-187720400D03*
X277571600Y-186320400D03*
%TD*%
D23*
%TO.C,R294*%
X242294200Y-211377600D03*
X240994200Y-211377600D03*
%TD*%
D22*
%TO.C,C279*%
X332033800Y-227982200D03*
X332033800Y-230742200D03*
%TD*%
D20*
%TO.C,R85*%
X388629800Y-287934600D03*
X387179800Y-287934600D03*
%TD*%
D84*
%TO.C,IC42*%
X373763600Y-200314400D03*
X373763600Y-199664400D03*
X373763600Y-199014400D03*
X373763600Y-198364400D03*
X369339600Y-198364400D03*
X369339600Y-199014400D03*
X369339600Y-199664400D03*
X369339600Y-200314400D03*
%TD*%
D55*
%TO.C,D74*%
X267008600Y-215325400D03*
X267008600Y-213925400D03*
%TD*%
%TO.C,D54*%
X233234200Y-198250200D03*
X233234200Y-196850200D03*
%TD*%
D22*
%TO.C,C181*%
X301975000Y-227883800D03*
X301975000Y-230643800D03*
%TD*%
D55*
%TO.C,D81*%
X232110200Y-221448400D03*
X232110200Y-220048400D03*
%TD*%
D14*
%TO.C,LED24*%
X272188200Y-254305000D03*
X270688200Y-254305000D03*
%TD*%
D29*
%TO.C,R126*%
X305667000Y-209241800D03*
X305667000Y-207941800D03*
%TD*%
D19*
%TO.C,C129*%
X310086600Y-205130600D03*
X308686600Y-205130600D03*
%TD*%
D20*
%TO.C,R88*%
X395328200Y-231292600D03*
X393878200Y-231292600D03*
%TD*%
D85*
%TO.C,Q1*%
X395544200Y-211064800D03*
X394244200Y-211064800D03*
X394894200Y-213064800D03*
%TD*%
D32*
%TO.C,C3*%
X411847200Y-234670800D03*
X413247200Y-234670800D03*
%TD*%
D23*
%TO.C,R20*%
X397292200Y-214842800D03*
X398592200Y-214842800D03*
%TD*%
D20*
%TO.C,R105*%
X392686600Y-255524200D03*
X391236600Y-255524200D03*
%TD*%
D19*
%TO.C,C138*%
X291537000Y-196723200D03*
X292937000Y-196723200D03*
%TD*%
D54*
%TO.C,C187*%
X317928000Y-236271000D03*
X319528000Y-236271000D03*
%TD*%
D20*
%TO.C,R158*%
X419825400Y-261925000D03*
X418375400Y-261925000D03*
%TD*%
D55*
%TO.C,D72*%
X233882200Y-209091600D03*
X233882200Y-210491600D03*
%TD*%
D14*
%TO.C,LED3*%
X391593600Y-220269000D03*
X390093600Y-220269000D03*
%TD*%
D32*
%TO.C,C6*%
X371032400Y-241808200D03*
X369632400Y-241808200D03*
%TD*%
D86*
%TO.C,C88*%
X396609200Y-233076600D03*
X394709200Y-233076600D03*
%TD*%
D23*
%TO.C,R17*%
X394254600Y-214858800D03*
X395554600Y-214858800D03*
%TD*%
D32*
%TO.C,C166*%
X409030800Y-258617200D03*
X407630800Y-258617200D03*
%TD*%
D14*
%TO.C,LED21*%
X211887200Y-254329000D03*
X211887200Y-255829000D03*
%TD*%
D52*
%TO.C,IC60*%
X406750200Y-221572800D03*
X406100200Y-221572800D03*
X405450200Y-221572800D03*
X404800200Y-221572800D03*
X404150200Y-221572800D03*
X403500200Y-221572800D03*
X402850200Y-221572800D03*
X402850200Y-227448800D03*
X403500200Y-227448800D03*
X404150200Y-227448800D03*
X404800200Y-227448800D03*
X405450200Y-227448800D03*
X406100200Y-227448800D03*
X406750200Y-227448800D03*
%TD*%
D23*
%TO.C,R346*%
X268305200Y-254101800D03*
X267005200Y-254101800D03*
%TD*%
D22*
%TO.C,C62*%
X255357000Y-190789708D03*
X255357000Y-188029708D03*
%TD*%
D19*
%TO.C,C134*%
X290994800Y-205994200D03*
X292394800Y-205994200D03*
%TD*%
D21*
%TO.C,R116*%
X378790600Y-253238200D03*
X378790600Y-251788200D03*
%TD*%
D23*
%TO.C,R129*%
X308656600Y-206400600D03*
X309956600Y-206400600D03*
%TD*%
%TO.C,R278*%
X279987600Y-219222650D03*
X278687600Y-219222650D03*
%TD*%
D21*
%TO.C,R7*%
X362280600Y-254152600D03*
X362280600Y-252702600D03*
%TD*%
D42*
%TO.C,J17*%
X262137400Y-318808000D03*
D43*
X254517400Y-318808000D03*
%TD*%
D44*
%TO.C,C106*%
X394140600Y-253746200D03*
X391380600Y-253746200D03*
%TD*%
D20*
%TO.C,R152*%
X415581400Y-269545000D03*
X417031400Y-269545000D03*
%TD*%
%TO.C,R94*%
X391989200Y-239420600D03*
X390539200Y-239420600D03*
%TD*%
D87*
%TO.C,Y2*%
X353373400Y-208458000D03*
X353373400Y-198958000D03*
%TD*%
D36*
%TO.C,C169*%
X413111600Y-295157800D03*
X413111600Y-296817800D03*
%TD*%
D21*
%TO.C,R2*%
X374980600Y-248068200D03*
X374980600Y-249518200D03*
%TD*%
D88*
%TO.C,Q26*%
X315096400Y-306311400D03*
D89*
X315096400Y-300861400D03*
X315096400Y-295411400D03*
%TD*%
D32*
%TO.C,C165*%
X416938400Y-258623000D03*
X418338400Y-258623000D03*
%TD*%
D29*
%TO.C,R328*%
X329377200Y-240639800D03*
X329377200Y-239339800D03*
%TD*%
D23*
%TO.C,R343*%
X328016000Y-223164600D03*
X329316000Y-223164600D03*
%TD*%
D85*
%TO.C,Q3*%
X392608200Y-211064800D03*
X391308200Y-211064800D03*
X391958200Y-213064800D03*
%TD*%
D70*
%TO.C,IC54*%
X339405000Y-231378600D03*
X338755000Y-231378600D03*
X338105000Y-231378600D03*
X337455000Y-231378600D03*
X337455000Y-235778600D03*
X338105000Y-235778600D03*
X338755000Y-235778600D03*
X339405000Y-235778600D03*
D71*
X338430000Y-233578600D03*
%TD*%
D32*
%TO.C,C245*%
X271628600Y-183953600D03*
X273028600Y-183953600D03*
%TD*%
%TO.C,C176*%
X407388000Y-203556000D03*
X408788000Y-203556000D03*
%TD*%
D23*
%TO.C,R332*%
X346035000Y-225679200D03*
X347335000Y-225679200D03*
%TD*%
D29*
%TO.C,R309*%
X225506200Y-218270400D03*
X225506200Y-216970400D03*
%TD*%
D85*
%TO.C,Q4*%
X398450200Y-211032800D03*
X397150200Y-211032800D03*
X397800200Y-213032800D03*
%TD*%
D23*
%TO.C,R189*%
X328489400Y-201092000D03*
X329789400Y-201092000D03*
%TD*%
%TO.C,R136*%
X292394800Y-204724200D03*
X291094800Y-204724200D03*
%TD*%
%TO.C,R185*%
X319288800Y-214325400D03*
X320588800Y-214325400D03*
%TD*%
D20*
%TO.C,R107*%
X389344000Y-269260800D03*
X390794000Y-269260800D03*
%TD*%
D44*
%TO.C,C105*%
X392064000Y-271292800D03*
X389304000Y-271292800D03*
%TD*%
D88*
%TO.C,Q22*%
X265058400Y-294373400D03*
D89*
X265058400Y-299823400D03*
X265058400Y-305273400D03*
%TD*%
D29*
%TO.C,R53*%
X253310000Y-207050600D03*
X253310000Y-205750600D03*
%TD*%
D16*
%TO.C,IC27*%
X388868600Y-254508200D03*
X388868600Y-253238200D03*
X388868600Y-251968200D03*
X388868600Y-250698200D03*
X388868600Y-249428200D03*
X388868600Y-248158200D03*
X388868600Y-246888200D03*
X383444600Y-246888200D03*
X383444600Y-248158200D03*
X383444600Y-249428200D03*
X383444600Y-250698200D03*
X383444600Y-251968200D03*
X383444600Y-253238200D03*
X383444600Y-254508200D03*
%TD*%
D21*
%TO.C,R8*%
X362280600Y-249527600D03*
X362280600Y-250977600D03*
%TD*%
D20*
%TO.C,R114*%
X383481600Y-256794200D03*
X384931600Y-256794200D03*
%TD*%
D88*
%TO.C,Q28*%
X328304400Y-295411400D03*
D89*
X328304400Y-300861400D03*
X328304400Y-306311400D03*
%TD*%
D49*
%TO.C,U11*%
X239982400Y-238189600D03*
X214582400Y-238189600D03*
%TD*%
D22*
%TO.C,C55*%
X257643000Y-188029708D03*
X257643000Y-190789708D03*
%TD*%
D29*
%TO.C,R331*%
X331449600Y-225516400D03*
X331449600Y-224216400D03*
%TD*%
D23*
%TO.C,R50*%
X253056000Y-199796600D03*
X254356000Y-199796600D03*
%TD*%
D36*
%TO.C,C159*%
X402515200Y-291049750D03*
X402515200Y-289389750D03*
%TD*%
D20*
%TO.C,R109*%
X381470000Y-274086800D03*
X382920000Y-274086800D03*
%TD*%
D23*
%TO.C,R345*%
X218232200Y-255908200D03*
X219532200Y-255908200D03*
%TD*%
D18*
%TO.C,R3*%
X373405800Y-249517000D03*
X373405800Y-247917000D03*
%TD*%
D23*
%TO.C,R295*%
X258626600Y-213039400D03*
X259926600Y-213039400D03*
%TD*%
D28*
%TO.C,D22*%
X267165000Y-241401800D03*
X271265000Y-241401800D03*
%TD*%
D23*
%TO.C,R137*%
X294818200Y-204724200D03*
X296118200Y-204724200D03*
%TD*%
%TO.C,R333*%
X358847000Y-225425200D03*
X360147000Y-225425200D03*
%TD*%
%TO.C,R24*%
X397912200Y-218313200D03*
X399212200Y-218313200D03*
%TD*%
D29*
%TO.C,R51*%
X251278000Y-205160600D03*
X251278000Y-203860600D03*
%TD*%
D58*
%TO.C,C277*%
X329435200Y-237337800D03*
X327795200Y-237337800D03*
%TD*%
D23*
%TO.C,R216*%
X329783600Y-202336600D03*
X328483600Y-202336600D03*
%TD*%
D20*
%TO.C,R102*%
X392686600Y-245872200D03*
X391236600Y-245872200D03*
%TD*%
D44*
%TO.C,C101*%
X392064000Y-264688800D03*
X389304000Y-264688800D03*
%TD*%
%TO.C,C100*%
X396492000Y-271292800D03*
X393732000Y-271292800D03*
%TD*%
D20*
%TO.C,R87*%
X395291200Y-237388600D03*
X393841200Y-237388600D03*
%TD*%
%TO.C,R103*%
X390794000Y-273324800D03*
X389344000Y-273324800D03*
%TD*%
D17*
%TO.C,D75*%
X265738600Y-215325400D03*
X265738600Y-213825400D03*
%TD*%
D44*
%TO.C,C110*%
X387492000Y-274086800D03*
X384732000Y-274086800D03*
%TD*%
D90*
%TO.C,C185*%
X317672200Y-230037600D03*
X317672200Y-224437600D03*
%TD*%
D21*
%TO.C,R169*%
X408788000Y-200254000D03*
X408788000Y-201704000D03*
%TD*%
D19*
%TO.C,C262*%
X271835000Y-205708200D03*
X270435000Y-205708200D03*
%TD*%
D26*
%TO.C,Q27*%
X329574400Y-266941400D03*
D27*
X329574400Y-272391400D03*
X329574400Y-277841400D03*
%TD*%
D15*
%TO.C,C268*%
X339237600Y-226578000D03*
X337617600Y-226578000D03*
%TD*%
D14*
%TO.C,LED26*%
X357378400Y-229387600D03*
X358878400Y-229387600D03*
%TD*%
D16*
%TO.C,IC24*%
X391809200Y-237388600D03*
X391809200Y-236118600D03*
X391809200Y-234848600D03*
X391809200Y-233578600D03*
X391809200Y-232308600D03*
X391809200Y-231038600D03*
X391809200Y-229768600D03*
X386385200Y-229768600D03*
X386385200Y-231038600D03*
X386385200Y-232308600D03*
X386385200Y-233578600D03*
X386385200Y-234848600D03*
X386385200Y-236118600D03*
X386385200Y-237388600D03*
%TD*%
D23*
%TO.C,R197*%
X328451400Y-209982000D03*
X329751400Y-209982000D03*
%TD*%
D59*
%TO.C,IC31*%
X305635800Y-203047800D03*
X306135800Y-203047800D03*
X306635800Y-203047800D03*
X307135800Y-203047800D03*
X307635800Y-203047800D03*
X308135800Y-203047800D03*
X308635800Y-203047800D03*
X308635800Y-199971800D03*
X308135800Y-199971800D03*
X307635800Y-199971800D03*
X307135800Y-199971800D03*
X306635800Y-199971800D03*
X306135800Y-199971800D03*
X305635800Y-199971800D03*
%TD*%
D91*
%TO.C,RT1*%
X278511400Y-230479800D03*
D92*
X277311400Y-230479800D03*
%TD*%
D23*
%TO.C,R21*%
X394056000Y-218364000D03*
X395356000Y-218364000D03*
%TD*%
D32*
%TO.C,C2*%
X406933800Y-234772400D03*
X408333800Y-234772400D03*
%TD*%
D93*
%TO.C,R162*%
X417297000Y-194543800D03*
X417297000Y-196443800D03*
%TD*%
D44*
%TO.C,C82*%
X396855200Y-229514600D03*
X394095200Y-229514600D03*
%TD*%
D94*
%TO.C,J14*%
X422072200Y-299364600D03*
%TD*%
D29*
%TO.C,R220*%
X342451400Y-214808000D03*
X342451400Y-213508000D03*
%TD*%
D19*
%TO.C,C163*%
X419862400Y-263449000D03*
X418462400Y-263449000D03*
%TD*%
D64*
%TO.C,J8*%
X316484400Y-207848400D03*
D65*
X316484400Y-205308400D03*
X316484400Y-202768400D03*
X316484400Y-200228400D03*
X316484400Y-197688400D03*
X316484400Y-195148400D03*
%TD*%
D22*
%TO.C,C180*%
X299435000Y-227883800D03*
X299435000Y-230643800D03*
%TD*%
D23*
%TO.C,R179*%
X296001400Y-227765000D03*
X297301400Y-227765000D03*
%TD*%
D20*
%TO.C,R81*%
X391169800Y-287934600D03*
X389719800Y-287934600D03*
%TD*%
D55*
%TO.C,D70*%
X264468600Y-213925400D03*
X264468600Y-215325400D03*
%TD*%
D23*
%TO.C,R288*%
X245088200Y-211377600D03*
X243788200Y-211377600D03*
%TD*%
D35*
%TO.C,C209*%
X357945400Y-201422000D03*
X357945400Y-200022000D03*
%TD*%
D95*
%TO.C,IC3*%
X390764200Y-207708000D03*
X390764200Y-208208000D03*
X390764200Y-208708000D03*
X390764200Y-209208000D03*
X393914200Y-209208000D03*
X393914200Y-208708000D03*
X393914200Y-208208000D03*
X393914200Y-207708000D03*
%TD*%
D75*
%TO.C,J7*%
X413004400Y-320396000D03*
X416750900Y-320396000D03*
X413004400Y-310591600D03*
X418313000Y-312395000D03*
X413004400Y-313893600D03*
X409257900Y-320396000D03*
%TD*%
D44*
%TO.C,C186*%
X317602000Y-233985000D03*
X320362000Y-233985000D03*
%TD*%
D55*
%TO.C,D56*%
X281481600Y-212234650D03*
X281481600Y-213634650D03*
%TD*%
D96*
%TO.C,L5*%
X309986600Y-235791400D03*
X314486600Y-235791400D03*
%TD*%
D35*
%TO.C,C210*%
X357945400Y-206118000D03*
X357945400Y-207518000D03*
%TD*%
D30*
%TO.C,C143*%
X222236400Y-253771600D03*
D31*
X224236400Y-253771600D03*
%TD*%
D29*
%TO.C,R213*%
X340462000Y-192369400D03*
X340462000Y-191069400D03*
%TD*%
D39*
%TO.C,D50*%
X239460200Y-192532200D03*
X238060200Y-192532200D03*
%TD*%
D14*
%TO.C,LED23*%
X215725400Y-254356000D03*
X215725400Y-255856000D03*
%TD*%
D23*
%TO.C,R22*%
X386192400Y-218414800D03*
X387492400Y-218414800D03*
%TD*%
D20*
%TO.C,R84*%
X397831200Y-231292600D03*
X396381200Y-231292600D03*
%TD*%
D73*
%TO.C,IC34*%
X275742800Y-234100200D03*
D74*
X273202800Y-234100200D03*
X270662800Y-234100200D03*
%TD*%
D97*
%TO.C,IC1*%
X412613200Y-233029200D03*
X412613200Y-232529200D03*
X412613200Y-232029200D03*
X412613200Y-231529200D03*
X412613200Y-231029200D03*
X408163200Y-231029200D03*
X408163200Y-231529200D03*
X408163200Y-232029200D03*
X408163200Y-232529200D03*
X408163200Y-233029200D03*
%TD*%
D39*
%TO.C,D68*%
X267053000Y-204438200D03*
X268453000Y-204438200D03*
%TD*%
D16*
%TO.C,IC28*%
X352963200Y-254506000D03*
X352963200Y-253236000D03*
X352963200Y-251966000D03*
X352963200Y-250696000D03*
X352963200Y-249426000D03*
X352963200Y-248156000D03*
X352963200Y-246886000D03*
X347539200Y-246886000D03*
X347539200Y-248156000D03*
X347539200Y-249426000D03*
X347539200Y-250696000D03*
X347539200Y-251966000D03*
X347539200Y-253236000D03*
X347539200Y-254506000D03*
%TD*%
D23*
%TO.C,R193*%
X328451400Y-203632000D03*
X329751400Y-203632000D03*
%TD*%
D98*
%TO.C,C63*%
X251278000Y-201153600D03*
X251278000Y-202503600D03*
%TD*%
D21*
%TO.C,R9*%
X354990800Y-253249800D03*
X354990800Y-254699800D03*
%TD*%
D29*
%TO.C,R127*%
X308686600Y-209224600D03*
X308686600Y-207924600D03*
%TD*%
D99*
%TO.C,C145*%
X274901800Y-226415800D03*
X268201800Y-226415800D03*
%TD*%
D17*
%TO.C,D77*%
X274803000Y-200120200D03*
X274803000Y-198620200D03*
%TD*%
D20*
%TO.C,R90*%
X385358800Y-290728600D03*
X383908800Y-290728600D03*
%TD*%
D21*
%TO.C,R115*%
X376834800Y-271489200D03*
X376834800Y-270039200D03*
%TD*%
%TO.C,R171*%
X407213200Y-207594400D03*
X407213200Y-206144400D03*
%TD*%
D19*
%TO.C,C211*%
X262049800Y-254241800D03*
X263449800Y-254241800D03*
%TD*%
D39*
%TO.C,D78*%
X227792200Y-212682400D03*
X226392200Y-212682400D03*
%TD*%
D23*
%TO.C,R308*%
X275707000Y-201644200D03*
X274407000Y-201644200D03*
%TD*%
D36*
%TO.C,C280*%
X349479000Y-227271200D03*
X349479000Y-225611200D03*
%TD*%
D24*
%TO.C,H1*%
X228727400Y-185826600D03*
D25*
X228727400Y-185826600D03*
%TD*%
D100*
%TO.C,Q17*%
X361814800Y-214889400D03*
X361814800Y-216809400D03*
X363914800Y-215849400D03*
%TD*%
D23*
%TO.C,R289*%
X245342200Y-204773600D03*
X244042200Y-204773600D03*
%TD*%
D62*
%TO.C,C263*%
X223982200Y-218400400D03*
X223982200Y-217000400D03*
%TD*%
D29*
%TO.C,R321*%
X325810800Y-229189000D03*
X325810800Y-227889000D03*
%TD*%
D98*
%TO.C,C65*%
X250008000Y-202503600D03*
X250008000Y-201153600D03*
%TD*%
D20*
%TO.C,R83*%
X397831200Y-237388600D03*
X396381200Y-237388600D03*
%TD*%
D29*
%TO.C,R187*%
X359782800Y-216517400D03*
X359782800Y-215217400D03*
%TD*%
%TO.C,R186*%
X343654200Y-192369400D03*
X343654200Y-191069400D03*
%TD*%
D19*
%TO.C,C260*%
X239328200Y-203503600D03*
X237928200Y-203503600D03*
%TD*%
D14*
%TO.C,LED18*%
X323140600Y-246710400D03*
X321640600Y-246710400D03*
%TD*%
D44*
%TO.C,C98*%
X398568600Y-247650200D03*
X395808600Y-247650200D03*
%TD*%
D48*
%TO.C,R318*%
X339440800Y-228752600D03*
X337540800Y-228752600D03*
%TD*%
D23*
%TO.C,R293*%
X264359000Y-204438200D03*
X265659000Y-204438200D03*
%TD*%
%TO.C,R181*%
X311927200Y-222862800D03*
X313227200Y-222862800D03*
%TD*%
D22*
%TO.C,C113*%
X378990000Y-272782800D03*
X378990000Y-270022800D03*
%TD*%
D29*
%TO.C,R207*%
X336101400Y-214838000D03*
X336101400Y-213538000D03*
%TD*%
D32*
%TO.C,C5*%
X372248600Y-241808200D03*
X373648600Y-241808200D03*
%TD*%
D29*
%TO.C,R133*%
X307696000Y-192618800D03*
X307696000Y-193918800D03*
%TD*%
D88*
%TO.C,Q20*%
X251850400Y-305273400D03*
D89*
X251850400Y-299823400D03*
X251850400Y-294373400D03*
%TD*%
D23*
%TO.C,R268*%
X239076200Y-199136200D03*
X237776200Y-199136200D03*
%TD*%
D29*
%TO.C,R135*%
X294848200Y-208930200D03*
X294848200Y-207630200D03*
%TD*%
D32*
%TO.C,C7*%
X367959000Y-241859000D03*
X366559000Y-241859000D03*
%TD*%
D23*
%TO.C,R45*%
X254849000Y-192347708D03*
X256149000Y-192347708D03*
%TD*%
D29*
%TO.C,R205*%
X335085400Y-192380000D03*
X335085400Y-191080000D03*
%TD*%
D23*
%TO.C,R264*%
X272815600Y-211348650D03*
X274115600Y-211348650D03*
%TD*%
D86*
%TO.C,C18*%
X389733000Y-283794400D03*
X387833000Y-283794400D03*
%TD*%
D51*
%TO.C,IC51*%
X259642600Y-214865400D03*
X259642600Y-215365400D03*
X259642600Y-215865400D03*
X259642600Y-216365400D03*
X259642600Y-216865400D03*
X259642600Y-217365400D03*
X259642600Y-217865400D03*
X262718600Y-217865400D03*
X262718600Y-217365400D03*
X262718600Y-216865400D03*
X262718600Y-216365400D03*
X262718600Y-215865400D03*
X262718600Y-215365400D03*
X262718600Y-214865400D03*
%TD*%
D44*
%TO.C,C97*%
X396382000Y-264688800D03*
X393622000Y-264688800D03*
%TD*%
D23*
%TO.C,R281*%
X275538600Y-190557600D03*
X276838600Y-190557600D03*
%TD*%
%TO.C,R195*%
X328451400Y-207442000D03*
X329751400Y-207442000D03*
%TD*%
D22*
%TO.C,C114*%
X380784600Y-254508200D03*
X380784600Y-251748200D03*
%TD*%
D29*
%TO.C,R206*%
X346659600Y-192379800D03*
X346659600Y-191079800D03*
%TD*%
D23*
%TO.C,R196*%
X328451400Y-208712000D03*
X329751400Y-208712000D03*
%TD*%
D72*
%TO.C,H4*%
X334900400Y-312253400D03*
X334900400Y-261253400D03*
X308500400Y-261253400D03*
X308500400Y-312253400D03*
%TD*%
D44*
%TO.C,C103*%
X394284600Y-247650200D03*
X391524600Y-247650200D03*
%TD*%
%TO.C,C11*%
X390195200Y-280213000D03*
X387435200Y-280213000D03*
%TD*%
D23*
%TO.C,R18*%
X388275200Y-214808000D03*
X389575200Y-214808000D03*
%TD*%
D33*
%TO.C,C189*%
X219685000Y-300228200D03*
D34*
X209685000Y-300228200D03*
%TD*%
D23*
%TO.C,R298*%
X261674600Y-213039400D03*
X262974600Y-213039400D03*
%TD*%
D30*
%TO.C,C146*%
X268802000Y-248183600D03*
D31*
X266802000Y-248183600D03*
%TD*%
D29*
%TO.C,R204*%
X333815400Y-192380000D03*
X333815400Y-191080000D03*
%TD*%
D85*
%TO.C,Q2*%
X389611000Y-211064800D03*
X388311000Y-211064800D03*
X388961000Y-213064800D03*
%TD*%
D32*
%TO.C,C257*%
X239470200Y-212901600D03*
X238070200Y-212901600D03*
%TD*%
D21*
%TO.C,R6*%
X375006000Y-254545200D03*
X375006000Y-255995200D03*
%TD*%
D29*
%TO.C,R344*%
X209017000Y-254376600D03*
X209017000Y-255676600D03*
%TD*%
D56*
%TO.C,H7*%
X221793200Y-317474800D03*
D57*
X221793200Y-317474800D03*
%TD*%
D20*
%TO.C,R160*%
X419862400Y-260401000D03*
X418412400Y-260401000D03*
%TD*%
D36*
%TO.C,C172*%
X410820000Y-196698000D03*
X410820000Y-195038000D03*
%TD*%
D20*
%TO.C,R159*%
X405966400Y-261925000D03*
X407416400Y-261925000D03*
%TD*%
D91*
%TO.C,RT2*%
X262214200Y-256514800D03*
D92*
X263414200Y-256514800D03*
%TD*%
D99*
%TO.C,C141*%
X223610275Y-231001400D03*
X230310275Y-231001400D03*
%TD*%
D14*
%TO.C,LED4*%
X399427200Y-220294400D03*
X397927200Y-220294400D03*
%TD*%
D44*
%TO.C,C102*%
X398568600Y-253746200D03*
X395808600Y-253746200D03*
%TD*%
D23*
%TO.C,R177*%
X368869600Y-230403600D03*
X370169600Y-230403600D03*
%TD*%
D35*
%TO.C,C266*%
X233380200Y-218000400D03*
X233380200Y-216600400D03*
%TD*%
D23*
%TO.C,R284*%
X231172200Y-195326200D03*
X232472200Y-195326200D03*
%TD*%
D101*
%TO.C,IC41*%
X335189400Y-199374000D03*
X335189400Y-199874000D03*
X335189400Y-200374000D03*
X335189400Y-200874000D03*
X335189400Y-201374000D03*
X335189400Y-201874000D03*
X335189400Y-202374000D03*
X335189400Y-202874000D03*
X335189400Y-203374000D03*
X335189400Y-203874000D03*
X335189400Y-204374000D03*
X335189400Y-204874000D03*
X335189400Y-205374000D03*
X335189400Y-205874000D03*
X335189400Y-206374000D03*
X335189400Y-206874000D03*
D102*
X337177400Y-208862000D03*
X337677400Y-208862000D03*
X338177400Y-208862000D03*
X338677400Y-208862000D03*
X339177400Y-208862000D03*
X339677400Y-208862000D03*
X340177400Y-208862000D03*
X340677400Y-208862000D03*
X341177400Y-208862000D03*
X341677400Y-208862000D03*
X342177400Y-208862000D03*
X342677400Y-208862000D03*
X343177400Y-208862000D03*
X343677400Y-208862000D03*
X344177400Y-208862000D03*
X344677400Y-208862000D03*
D101*
X346665400Y-206874000D03*
X346665400Y-206374000D03*
X346665400Y-205874000D03*
X346665400Y-205374000D03*
X346665400Y-204874000D03*
X346665400Y-204374000D03*
X346665400Y-203874000D03*
X346665400Y-203374000D03*
X346665400Y-202874000D03*
X346665400Y-202374000D03*
X346665400Y-201874000D03*
X346665400Y-201374000D03*
X346665400Y-200874000D03*
X346665400Y-200374000D03*
X346665400Y-199874000D03*
X346665400Y-199374000D03*
D102*
X344677400Y-197386000D03*
X344177400Y-197386000D03*
X343677400Y-197386000D03*
X343177400Y-197386000D03*
X342677400Y-197386000D03*
X342177400Y-197386000D03*
X341677400Y-197386000D03*
X341177400Y-197386000D03*
X340677400Y-197386000D03*
X340177400Y-197386000D03*
X339677400Y-197386000D03*
X339177400Y-197386000D03*
X338677400Y-197386000D03*
X338177400Y-197386000D03*
X337677400Y-197386000D03*
X337177400Y-197386000D03*
%TD*%
D14*
%TO.C,LED1*%
X395606800Y-220294400D03*
X394106800Y-220294400D03*
%TD*%
D52*
%TO.C,IC2*%
X374767000Y-233731000D03*
X374117000Y-233731000D03*
X373467000Y-233731000D03*
X372817000Y-233731000D03*
X372167000Y-233731000D03*
X371517000Y-233731000D03*
X370867000Y-233731000D03*
X370217000Y-233731000D03*
X369567000Y-233731000D03*
X368917000Y-233731000D03*
X368267000Y-233731000D03*
X367617000Y-233731000D03*
X367617000Y-239607000D03*
X368267000Y-239607000D03*
X368917000Y-239607000D03*
X369567000Y-239607000D03*
X370217000Y-239607000D03*
X370867000Y-239607000D03*
X371517000Y-239607000D03*
X372167000Y-239607000D03*
X372817000Y-239607000D03*
X373467000Y-239607000D03*
X374117000Y-239607000D03*
X374767000Y-239607000D03*
%TD*%
D59*
%TO.C,IC53*%
X227300200Y-220076400D03*
X227800200Y-220076400D03*
X228300200Y-220076400D03*
X228800200Y-220076400D03*
X229300200Y-220076400D03*
X229800200Y-220076400D03*
X230300200Y-220076400D03*
X230300200Y-217000400D03*
X229800200Y-217000400D03*
X229300200Y-217000400D03*
X228800200Y-217000400D03*
X228300200Y-217000400D03*
X227800200Y-217000400D03*
X227300200Y-217000400D03*
%TD*%
D23*
%TO.C,R277*%
X273170600Y-192081600D03*
X271870600Y-192081600D03*
%TD*%
%TO.C,R262*%
X265938400Y-185445600D03*
X267238400Y-185445600D03*
%TD*%
D30*
%TO.C,C142*%
X231597600Y-253720800D03*
D31*
X233597600Y-253720800D03*
%TD*%
D23*
%TO.C,R290*%
X255802600Y-213039400D03*
X257102600Y-213039400D03*
%TD*%
D30*
%TO.C,C147*%
X277520800Y-248564600D03*
D31*
X279520800Y-248564600D03*
%TD*%
D37*
%TO.C,C66*%
X255596000Y-204270600D03*
X255596000Y-201320600D03*
%TD*%
D22*
%TO.C,C269*%
X341777600Y-228728600D03*
X341777600Y-231488600D03*
%TD*%
D19*
%TO.C,C133*%
X309031000Y-197231200D03*
X307631000Y-197231200D03*
%TD*%
D63*
%TO.C,C89*%
X394095200Y-235356600D03*
X397045200Y-235356600D03*
%TD*%
D29*
%TO.C,R219*%
X352755600Y-190642200D03*
X352755600Y-189342200D03*
%TD*%
D23*
%TO.C,R285*%
X276868600Y-189287600D03*
X275568600Y-189287600D03*
%TD*%
D56*
%TO.C,H10*%
X215265400Y-201574600D03*
D57*
X215265400Y-201574600D03*
%TD*%
D55*
%TO.C,D62*%
X284021600Y-213572650D03*
X284021600Y-212172650D03*
%TD*%
D29*
%TO.C,R226*%
X346507200Y-213487200D03*
X346507200Y-214787200D03*
%TD*%
D14*
%TO.C,LED22*%
X329465200Y-221107200D03*
X327965200Y-221107200D03*
%TD*%
D30*
%TO.C,C275*%
X313091400Y-246067000D03*
D31*
X313091400Y-244067000D03*
%TD*%
D30*
%TO.C,C274*%
X298679400Y-249950400D03*
D31*
X296679400Y-249950400D03*
%TD*%
M02*
