%TF.GenerationSoftware,KiCad,Pcbnew,8.0.8*%
%TF.CreationDate,2025-05-17T22:55:18-04:00*%
%TF.ProjectId,amp board,616d7020-626f-4617-9264-2e6b69636164,rev?*%
%TF.SameCoordinates,Original*%
%TF.FileFunction,Paste,Top*%
%TF.FilePolarity,Positive*%
%FSLAX46Y46*%
G04 Gerber Fmt 4.6, Leading zero omitted, Abs format (unit mm)*
G04 Created by KiCad (PCBNEW 8.0.8) date 2025-05-17 22:55:18*
%MOMM*%
%LPD*%
G01*
G04 APERTURE LIST*
%ADD10R,0.950000X0.950000*%
%ADD11R,0.960000X1.390000*%
%ADD12R,1.525000X0.650000*%
%ADD13R,0.420000X0.640000*%
%ADD14R,1.000000X0.900000*%
%ADD15R,0.750000X0.940000*%
%ADD16R,0.650000X0.900000*%
%ADD17R,0.900000X0.650000*%
%ADD18R,1.820000X1.070000*%
%ADD19R,1.100000X1.000000*%
%ADD20R,2.250000X1.600000*%
%ADD21R,1.000000X1.100000*%
%ADD22R,0.780000X0.980000*%
%ADD23R,0.940000X0.750000*%
%ADD24R,1.470000X0.970000*%
%ADD25R,1.600000X1.050000*%
%ADD26R,0.600000X1.300000*%
%ADD27R,0.600000X0.700000*%
%ADD28R,1.070000X1.820000*%
%ADD29R,1.200000X0.600000*%
%ADD30R,1.050000X1.800000*%
%ADD31R,1.300000X0.600000*%
%ADD32R,0.950000X1.400000*%
%ADD33R,1.000000X0.950000*%
%ADD34R,1.075000X0.300000*%
%ADD35R,0.450000X1.475000*%
%ADD36R,2.200000X2.150000*%
%ADD37R,0.950000X1.000000*%
%ADD38R,0.700000X0.600000*%
%ADD39R,0.910000X1.390000*%
%ADD40R,0.300000X1.075000*%
%ADD41R,1.650000X0.700000*%
%ADD42R,2.600000X3.500000*%
%ADD43R,0.980000X0.780000*%
%ADD44R,1.050000X1.600000*%
%ADD45R,1.250000X0.600000*%
%ADD46R,2.800000X2.200000*%
%ADD47R,2.800000X2.800000*%
%ADD48R,0.450000X1.400000*%
%ADD49R,2.150000X1.846000*%
%ADD50R,0.650000X1.525000*%
%ADD51R,0.450000X0.600000*%
%ADD52R,1.550000X1.300000*%
%ADD53R,1.371600X0.457200*%
%ADD54R,1.475000X0.450000*%
%ADD55R,0.640000X0.420000*%
%ADD56R,1.425000X0.450000*%
%ADD57R,0.500000X1.000000*%
%ADD58R,0.700000X1.300000*%
%ADD59R,2.100000X5.600000*%
%ADD60R,1.600000X3.500000*%
%ADD61R,1.400000X0.950000*%
%ADD62R,0.850000X0.300000*%
%ADD63R,1.700000X5.700000*%
%ADD64R,1.450000X0.300000*%
%ADD65R,0.700000X0.650000*%
%ADD66R,4.000000X2.150000*%
%ADD67R,1.200000X0.650000*%
%ADD68R,1.475000X0.300000*%
%ADD69R,0.300000X1.475000*%
G04 APERTURE END LIST*
D10*
%TO.C,LED2*%
X387629800Y-220243600D03*
X386129800Y-220243600D03*
%TD*%
D11*
%TO.C,C278*%
X329493800Y-225501400D03*
X327873800Y-225501400D03*
%TD*%
D12*
%TO.C,IC26*%
X387074000Y-271800800D03*
X387074000Y-270530800D03*
X387074000Y-269260800D03*
X387074000Y-267990800D03*
X387074000Y-266720800D03*
X387074000Y-265450800D03*
X387074000Y-264180800D03*
X381650000Y-264180800D03*
X381650000Y-265450800D03*
X381650000Y-266720800D03*
X381650000Y-267990800D03*
X381650000Y-269260800D03*
X381650000Y-270530800D03*
X381650000Y-271800800D03*
%TD*%
D13*
%TO.C,D29*%
X317424200Y-212674400D03*
X317424200Y-211174400D03*
%TD*%
D14*
%TO.C,R4*%
X363906200Y-254190800D03*
X363906200Y-255790800D03*
%TD*%
D15*
%TO.C,C132*%
X304913200Y-197231200D03*
X306313200Y-197231200D03*
%TD*%
D16*
%TO.C,R155*%
X410464400Y-268275000D03*
X409014400Y-268275000D03*
%TD*%
%TO.C,R108*%
X391310600Y-251968200D03*
X392760600Y-251968200D03*
%TD*%
D17*
%TO.C,R170*%
X410820000Y-200254000D03*
X410820000Y-201704000D03*
%TD*%
D18*
%TO.C,C96*%
X382411200Y-239022600D03*
X382411200Y-236262600D03*
%TD*%
D19*
%TO.C,R260*%
X241900200Y-199136200D03*
X240600200Y-199136200D03*
%TD*%
D20*
%TO.C,D20*%
X233389000Y-248984600D03*
X229289000Y-248984600D03*
%TD*%
D19*
%TO.C,R274*%
X278545600Y-211348650D03*
X279845600Y-211348650D03*
%TD*%
D21*
%TO.C,R210*%
X339911400Y-214808000D03*
X339911400Y-213508000D03*
%TD*%
D16*
%TO.C,R338*%
X416591800Y-283400400D03*
X418041800Y-283400400D03*
%TD*%
%TO.C,R157*%
X407416400Y-264973000D03*
X405966400Y-264973000D03*
%TD*%
D21*
%TO.C,R209*%
X338641400Y-214838000D03*
X338641400Y-213538000D03*
%TD*%
D22*
%TO.C,C4*%
X375017200Y-241808200D03*
X376417200Y-241808200D03*
%TD*%
D19*
%TO.C,R299*%
X270455000Y-197834200D03*
X271755000Y-197834200D03*
%TD*%
%TO.C,R164*%
X415027000Y-293363400D03*
X416327000Y-293363400D03*
%TD*%
D23*
%TO.C,C212*%
X367233600Y-198893400D03*
X367233600Y-200293400D03*
%TD*%
D24*
%TO.C,C171*%
X408788000Y-196698000D03*
X408788000Y-195038000D03*
%TD*%
D19*
%TO.C,R138*%
X292837000Y-195453200D03*
X291537000Y-195453200D03*
%TD*%
D25*
%TO.C,C64*%
X253310000Y-201320600D03*
X253310000Y-204270600D03*
%TD*%
D21*
%TO.C,R52*%
X255596000Y-205892600D03*
X255596000Y-207192600D03*
%TD*%
D26*
%TO.C,D26*%
X413359400Y-304336400D03*
X415259400Y-304336400D03*
X414309400Y-302236400D03*
%TD*%
D27*
%TO.C,D52*%
X275255600Y-217952650D03*
X276655600Y-217952650D03*
%TD*%
D17*
%TO.C,R172*%
X412217000Y-207594400D03*
X412217000Y-206144400D03*
%TD*%
D19*
%TO.C,R265*%
X272561600Y-217952650D03*
X273861600Y-217952650D03*
%TD*%
D16*
%TO.C,R156*%
X418412400Y-264973000D03*
X419862400Y-264973000D03*
%TD*%
D21*
%TO.C,R132*%
X306222800Y-192644200D03*
X306222800Y-193944200D03*
%TD*%
D19*
%TO.C,R341*%
X344648400Y-228295400D03*
X345948400Y-228295400D03*
%TD*%
D22*
%TO.C,C258*%
X261736600Y-211515400D03*
X263136600Y-211515400D03*
%TD*%
D28*
%TO.C,C13*%
X387494400Y-289966600D03*
X390254400Y-289966600D03*
%TD*%
D29*
%TO.C,IC58*%
X351785000Y-225491200D03*
X351785000Y-226441200D03*
X351785000Y-227391200D03*
X354285000Y-227391200D03*
X354285000Y-225491200D03*
%TD*%
D16*
%TO.C,R12*%
X358357400Y-251688800D03*
X356907400Y-251688800D03*
%TD*%
D19*
%TO.C,R305*%
X274407000Y-202914200D03*
X275707000Y-202914200D03*
%TD*%
D21*
%TO.C,R315*%
X232110200Y-216730400D03*
X232110200Y-218030400D03*
%TD*%
D19*
%TO.C,R23*%
X390205600Y-218364000D03*
X391505600Y-218364000D03*
%TD*%
%TO.C,R302*%
X270352000Y-204432200D03*
X271652000Y-204432200D03*
%TD*%
D21*
%TO.C,R43*%
X249769000Y-184443708D03*
X249769000Y-185743708D03*
%TD*%
D16*
%TO.C,R154*%
X410464400Y-269545000D03*
X409014400Y-269545000D03*
%TD*%
D21*
%TO.C,R182*%
X317697600Y-239535800D03*
X317697600Y-240835800D03*
%TD*%
D15*
%TO.C,C164*%
X406016400Y-263449000D03*
X407416400Y-263449000D03*
%TD*%
D21*
%TO.C,R310*%
X225506200Y-221064400D03*
X225506200Y-219764400D03*
%TD*%
D16*
%TO.C,R161*%
X405968600Y-260471400D03*
X407418600Y-260471400D03*
%TD*%
D30*
%TO.C,R145*%
X277036800Y-244475200D03*
X280036800Y-244475200D03*
%TD*%
D27*
%TO.C,D67*%
X258180600Y-219643400D03*
X259580600Y-219643400D03*
%TD*%
D19*
%TO.C,R286*%
X283543600Y-215158650D03*
X282243600Y-215158650D03*
%TD*%
D31*
%TO.C,D27*%
X409851000Y-183218600D03*
X409851000Y-185118600D03*
X411951000Y-184168600D03*
%TD*%
D28*
%TO.C,C22*%
X382160200Y-290906400D03*
X379400200Y-290906400D03*
%TD*%
D32*
%TO.C,R142*%
X227239000Y-245872200D03*
X225339000Y-245872200D03*
%TD*%
D19*
%TO.C,R183*%
X355755000Y-188214200D03*
X357055000Y-188214200D03*
%TD*%
D21*
%TO.C,R217*%
X344932400Y-192369400D03*
X344932400Y-191069400D03*
%TD*%
D15*
%TO.C,C135*%
X296310200Y-206106200D03*
X294910200Y-206106200D03*
%TD*%
D21*
%TO.C,R39*%
X257643000Y-184951708D03*
X257643000Y-186251708D03*
%TD*%
D14*
%TO.C,R1*%
X363982400Y-248133000D03*
X363982400Y-249733000D03*
%TD*%
D21*
%TO.C,R225*%
X347878800Y-213487200D03*
X347878800Y-214787200D03*
%TD*%
D15*
%TO.C,C248*%
X271882600Y-193351600D03*
X273282600Y-193351600D03*
%TD*%
D21*
%TO.C,R40*%
X255357000Y-184951708D03*
X255357000Y-186251708D03*
%TD*%
%TO.C,R175*%
X336914200Y-192380000D03*
X336914200Y-191080000D03*
%TD*%
D24*
%TO.C,C281*%
X356591000Y-227085200D03*
X356591000Y-225425200D03*
%TD*%
D21*
%TO.C,R313*%
X230332200Y-214460400D03*
X230332200Y-213160400D03*
%TD*%
D17*
%TO.C,R10*%
X355041600Y-246682800D03*
X355041600Y-248132800D03*
%TD*%
D19*
%TO.C,R263*%
X265632600Y-192081600D03*
X266932600Y-192081600D03*
%TD*%
D17*
%TO.C,R167*%
X414915000Y-291585400D03*
X414915000Y-290135400D03*
%TD*%
D19*
%TO.C,R190*%
X328489400Y-199822000D03*
X329789400Y-199822000D03*
%TD*%
D33*
%TO.C,C47*%
X256261000Y-255460600D03*
X256261000Y-253860600D03*
%TD*%
D27*
%TO.C,D51*%
X268264600Y-192081600D03*
X269664600Y-192081600D03*
%TD*%
D19*
%TO.C,R130*%
X306187000Y-195580200D03*
X304887000Y-195580200D03*
%TD*%
D34*
%TO.C,IC52*%
X268453000Y-199652200D03*
X268453000Y-200152200D03*
X268453000Y-200652200D03*
X268453000Y-201152200D03*
X268453000Y-201652200D03*
X268453000Y-202152200D03*
X268453000Y-202652200D03*
X271529000Y-202652200D03*
X271529000Y-202152200D03*
X271529000Y-201652200D03*
X271529000Y-201152200D03*
X271529000Y-200652200D03*
X271529000Y-200152200D03*
X271529000Y-199652200D03*
%TD*%
D12*
%TO.C,IC4*%
X385033200Y-288493400D03*
X385033200Y-287223400D03*
X385033200Y-285953400D03*
X385033200Y-284683400D03*
X385033200Y-283413400D03*
X385033200Y-282143400D03*
X385033200Y-280873400D03*
X379609200Y-280873400D03*
X379609200Y-282143400D03*
X379609200Y-283413400D03*
X379609200Y-284683400D03*
X379609200Y-285953400D03*
X379609200Y-287223400D03*
X379609200Y-288493400D03*
%TD*%
D34*
%TO.C,IC48*%
X276627600Y-213166650D03*
X276627600Y-213666650D03*
X276627600Y-214166650D03*
X276627600Y-214666650D03*
X276627600Y-215166650D03*
X276627600Y-215666650D03*
X276627600Y-216166650D03*
X279703600Y-216166650D03*
X279703600Y-215666650D03*
X279703600Y-215166650D03*
X279703600Y-214666650D03*
X279703600Y-214166650D03*
X279703600Y-213666650D03*
X279703600Y-213166650D03*
%TD*%
D35*
%TO.C,IC61*%
X417778400Y-221530400D03*
X417128400Y-221530400D03*
X416478400Y-221530400D03*
X415828400Y-221530400D03*
X415178400Y-221530400D03*
X414528400Y-221530400D03*
X413878400Y-221530400D03*
X413878400Y-227406400D03*
X414528400Y-227406400D03*
X415178400Y-227406400D03*
X415828400Y-227406400D03*
X416478400Y-227406400D03*
X417128400Y-227406400D03*
X417778400Y-227406400D03*
%TD*%
D19*
%TO.C,R180*%
X308716400Y-222862800D03*
X310016400Y-222862800D03*
%TD*%
D36*
%TO.C,D28*%
X306334000Y-233988000D03*
X301934000Y-233988000D03*
%TD*%
D37*
%TO.C,C140*%
X232423200Y-245872200D03*
X234023200Y-245872200D03*
%TD*%
D25*
%TO.C,C60*%
X249769000Y-187570708D03*
X249769000Y-190520708D03*
%TD*%
D19*
%TO.C,R184*%
X355755000Y-189509600D03*
X357055000Y-189509600D03*
%TD*%
%TO.C,R227*%
X265731200Y-256502400D03*
X267031200Y-256502400D03*
%TD*%
D21*
%TO.C,R218*%
X351485600Y-190642200D03*
X351485600Y-189342200D03*
%TD*%
D19*
%TO.C,R201*%
X328489400Y-198552000D03*
X329789400Y-198552000D03*
%TD*%
D38*
%TO.C,D71*%
X273533000Y-198720200D03*
X273533000Y-200120200D03*
%TD*%
D15*
%TO.C,C249*%
X278587600Y-217952650D03*
X279987600Y-217952650D03*
%TD*%
D10*
%TO.C,LED7*%
X366132800Y-215167400D03*
X366132800Y-216667400D03*
%TD*%
D19*
%TO.C,R282*%
X282243600Y-216428650D03*
X283543600Y-216428650D03*
%TD*%
%TO.C,R270*%
X275751600Y-211348650D03*
X277051600Y-211348650D03*
%TD*%
D16*
%TO.C,R153*%
X415544400Y-268193000D03*
X416994400Y-268193000D03*
%TD*%
D22*
%TO.C,C244*%
X278557600Y-209824650D03*
X279957600Y-209824650D03*
%TD*%
D39*
%TO.C,C267*%
X339326200Y-238150600D03*
X337686200Y-238150600D03*
%TD*%
D20*
%TO.C,D23*%
X274803000Y-241401800D03*
X278903000Y-241401800D03*
%TD*%
D15*
%TO.C,C261*%
X263024600Y-220913400D03*
X261624600Y-220913400D03*
%TD*%
D28*
%TO.C,C112*%
X389204600Y-256794200D03*
X386444600Y-256794200D03*
%TD*%
D25*
%TO.C,C58*%
X247483000Y-187570708D03*
X247483000Y-190520708D03*
%TD*%
D19*
%TO.C,R316*%
X337780000Y-240970000D03*
X339080000Y-240970000D03*
%TD*%
D33*
%TO.C,C182*%
X304261000Y-227930200D03*
X304261000Y-229530200D03*
%TD*%
D21*
%TO.C,R37*%
X247483000Y-184480708D03*
X247483000Y-185780708D03*
%TD*%
D19*
%TO.C,R139*%
X294369000Y-196723200D03*
X295669000Y-196723200D03*
%TD*%
D40*
%TO.C,IC32*%
X292124400Y-202376000D03*
X292624400Y-202376000D03*
X293124400Y-202376000D03*
X293624400Y-202376000D03*
X294124400Y-202376000D03*
X294624400Y-202376000D03*
X295124400Y-202376000D03*
X295124400Y-199300000D03*
X294624400Y-199300000D03*
X294124400Y-199300000D03*
X293624400Y-199300000D03*
X293124400Y-199300000D03*
X292624400Y-199300000D03*
X292124400Y-199300000D03*
%TD*%
D28*
%TO.C,C94*%
X388727200Y-239674600D03*
X385967200Y-239674600D03*
%TD*%
D22*
%TO.C,C174*%
X411675000Y-288283400D03*
X413075000Y-288283400D03*
%TD*%
D12*
%TO.C,IC25*%
X366121800Y-248183600D03*
X366121800Y-249453600D03*
X366121800Y-250723600D03*
X366121800Y-251993600D03*
X366121800Y-253263600D03*
X366121800Y-254533600D03*
X366121800Y-255803600D03*
X371545800Y-255803600D03*
X371545800Y-254533600D03*
X371545800Y-253263600D03*
X371545800Y-251993600D03*
X371545800Y-250723600D03*
X371545800Y-249453600D03*
X371545800Y-248183600D03*
%TD*%
D19*
%TO.C,R304*%
X265230600Y-218119400D03*
X266530600Y-218119400D03*
%TD*%
%TO.C,R19*%
X391247000Y-214833400D03*
X392547000Y-214833400D03*
%TD*%
D16*
%TO.C,R86*%
X388629800Y-282092600D03*
X387179800Y-282092600D03*
%TD*%
D41*
%TO.C,IC39*%
X312016000Y-228958800D03*
X312016000Y-227688800D03*
X312016000Y-226418800D03*
X312016000Y-225148800D03*
X306666000Y-225148800D03*
X306666000Y-226418800D03*
X306666000Y-227688800D03*
X306666000Y-228958800D03*
D42*
X309341000Y-227053800D03*
%TD*%
D40*
%TO.C,IC19*%
X253809000Y-194193708D03*
X253309000Y-194193708D03*
X252809000Y-194193708D03*
X252309000Y-194193708D03*
X251809000Y-194193708D03*
X251309000Y-194193708D03*
X250809000Y-194193708D03*
X250809000Y-197269708D03*
X251309000Y-197269708D03*
X251809000Y-197269708D03*
X252309000Y-197269708D03*
X252809000Y-197269708D03*
X253309000Y-197269708D03*
X253809000Y-197269708D03*
%TD*%
D21*
%TO.C,R312*%
X232110200Y-224142400D03*
X232110200Y-222842400D03*
%TD*%
D22*
%TO.C,C259*%
X270355000Y-196310200D03*
X271755000Y-196310200D03*
%TD*%
D43*
%TO.C,C199*%
X319202200Y-211236400D03*
X319202200Y-212636400D03*
%TD*%
D16*
%TO.C,R14*%
X358357400Y-250063200D03*
X356907400Y-250063200D03*
%TD*%
%TO.C,R174*%
X412076200Y-209200400D03*
X413526200Y-209200400D03*
%TD*%
D19*
%TO.C,R47*%
X250053000Y-192347708D03*
X248753000Y-192347708D03*
%TD*%
D17*
%TO.C,R166*%
X413137000Y-291585400D03*
X413137000Y-290135400D03*
%TD*%
D19*
%TO.C,R273*%
X271728600Y-185477600D03*
X273028600Y-185477600D03*
%TD*%
D21*
%TO.C,R214*%
X341732000Y-192369400D03*
X341732000Y-191069400D03*
%TD*%
D19*
%TO.C,R168*%
X410790000Y-198476000D03*
X412090000Y-198476000D03*
%TD*%
%TO.C,R292*%
X264867000Y-197834200D03*
X266167000Y-197834200D03*
%TD*%
%TO.C,R163*%
X413137000Y-293363400D03*
X411837000Y-293363400D03*
%TD*%
D44*
%TO.C,C19*%
X387985400Y-286055000D03*
X390935400Y-286055000D03*
%TD*%
D19*
%TO.C,R165*%
X408788000Y-198476000D03*
X407488000Y-198476000D03*
%TD*%
D16*
%TO.C,R329*%
X411474800Y-283400400D03*
X410024800Y-283400400D03*
%TD*%
%TO.C,R339*%
X411462700Y-284803600D03*
X412912700Y-284803600D03*
%TD*%
%TO.C,R106*%
X392686600Y-249428200D03*
X391236600Y-249428200D03*
%TD*%
D17*
%TO.C,R96*%
X384189200Y-237568600D03*
X384189200Y-236118600D03*
%TD*%
D16*
%TO.C,R82*%
X391169800Y-282092600D03*
X389719800Y-282092600D03*
%TD*%
D24*
%TO.C,C170*%
X415143600Y-295157800D03*
X415143600Y-296817800D03*
%TD*%
D13*
%TO.C,D59*%
X231964200Y-196862200D03*
X231964200Y-198362200D03*
%TD*%
D10*
%TO.C,LED19*%
X344653000Y-231712400D03*
X344653000Y-230212400D03*
%TD*%
D19*
%TO.C,R272*%
X236170200Y-199136200D03*
X234870200Y-199136200D03*
%TD*%
D45*
%TO.C,C48*%
X254483000Y-255444600D03*
X254483000Y-253644600D03*
%TD*%
D21*
%TO.C,R134*%
X292394800Y-208788200D03*
X292394800Y-207488200D03*
%TD*%
D15*
%TO.C,C128*%
X304267000Y-205147800D03*
X305667000Y-205147800D03*
%TD*%
D13*
%TO.C,D73*%
X235152200Y-209103600D03*
X235152200Y-210603600D03*
%TD*%
D16*
%TO.C,R340*%
X416516100Y-284803600D03*
X415066100Y-284803600D03*
%TD*%
D19*
%TO.C,R297*%
X239358200Y-211377600D03*
X238058200Y-211377600D03*
%TD*%
D21*
%TO.C,R215*%
X338531600Y-192369400D03*
X338531600Y-191069400D03*
%TD*%
%TO.C,R141*%
X294399000Y-192629200D03*
X294399000Y-193929200D03*
%TD*%
D27*
%TO.C,D66*%
X242710200Y-204773600D03*
X241310200Y-204773600D03*
%TD*%
D13*
%TO.C,D61*%
X276174600Y-187719600D03*
X276174600Y-186219600D03*
%TD*%
D16*
%TO.C,R173*%
X407176200Y-209200400D03*
X405726200Y-209200400D03*
%TD*%
D37*
%TO.C,C144*%
X267157600Y-244170400D03*
X268757600Y-244170400D03*
%TD*%
D38*
%TO.C,D58*%
X230694200Y-196912200D03*
X230694200Y-198312200D03*
%TD*%
D28*
%TO.C,C85*%
X393587200Y-239420600D03*
X396347200Y-239420600D03*
%TD*%
D18*
%TO.C,C23*%
X375691800Y-289941200D03*
X375691800Y-287181200D03*
%TD*%
D15*
%TO.C,C139*%
X295669000Y-195453200D03*
X294269000Y-195453200D03*
%TD*%
D21*
%TO.C,R221*%
X341181400Y-214808000D03*
X341181400Y-213508000D03*
%TD*%
D37*
%TO.C,C183*%
X306661400Y-231016200D03*
X308261400Y-231016200D03*
%TD*%
D21*
%TO.C,R140*%
X292937000Y-192629200D03*
X292937000Y-193929200D03*
%TD*%
D13*
%TO.C,D63*%
X282751600Y-213622650D03*
X282751600Y-212122650D03*
%TD*%
D21*
%TO.C,R191*%
X335783200Y-230062400D03*
X335783200Y-228762400D03*
%TD*%
D27*
%TO.C,D79*%
X226392200Y-215222400D03*
X227792200Y-215222400D03*
%TD*%
D19*
%TO.C,R306*%
X234360200Y-207567600D03*
X235660200Y-207567600D03*
%TD*%
%TO.C,R269*%
X268934600Y-185477600D03*
X270234600Y-185477600D03*
%TD*%
D21*
%TO.C,R54*%
X250008000Y-203860600D03*
X250008000Y-205160600D03*
%TD*%
D19*
%TO.C,R131*%
X307731800Y-195605600D03*
X309031800Y-195605600D03*
%TD*%
%TO.C,R291*%
X255548600Y-219643400D03*
X256848600Y-219643400D03*
%TD*%
D34*
%TO.C,IC50*%
X241276200Y-209551600D03*
X241276200Y-209051600D03*
X241276200Y-208551600D03*
X241276200Y-208051600D03*
X241276200Y-207551600D03*
X241276200Y-207051600D03*
X241276200Y-206551600D03*
X238200200Y-206551600D03*
X238200200Y-207051600D03*
X238200200Y-207551600D03*
X238200200Y-208051600D03*
X238200200Y-208551600D03*
X238200200Y-209051600D03*
X238200200Y-209551600D03*
%TD*%
D19*
%TO.C,R261*%
X242154200Y-192532200D03*
X240854200Y-192532200D03*
%TD*%
D38*
%TO.C,D55*%
X274806600Y-186363600D03*
X274806600Y-187763600D03*
%TD*%
D34*
%TO.C,IC46*%
X238060200Y-197318200D03*
X238060200Y-196818200D03*
X238060200Y-196318200D03*
X238060200Y-195818200D03*
X238060200Y-195318200D03*
X238060200Y-194818200D03*
X238060200Y-194318200D03*
X234984200Y-194318200D03*
X234984200Y-194818200D03*
X234984200Y-195318200D03*
X234984200Y-195818200D03*
X234984200Y-196318200D03*
X234984200Y-196818200D03*
X234984200Y-197318200D03*
%TD*%
D21*
%TO.C,R211*%
X347929600Y-192379800D03*
X347929600Y-191079800D03*
%TD*%
%TO.C,R319*%
X341244200Y-226679600D03*
X341244200Y-225379600D03*
%TD*%
D34*
%TO.C,IC47*%
X269810600Y-187247600D03*
X269810600Y-187747600D03*
X269810600Y-188247600D03*
X269810600Y-188747600D03*
X269810600Y-189247600D03*
X269810600Y-189747600D03*
X269810600Y-190247600D03*
X272886600Y-190247600D03*
X272886600Y-189747600D03*
X272886600Y-189247600D03*
X272886600Y-188747600D03*
X272886600Y-188247600D03*
X272886600Y-187747600D03*
X272886600Y-187247600D03*
%TD*%
D19*
%TO.C,R300*%
X237916200Y-204773600D03*
X239216200Y-204773600D03*
%TD*%
D16*
%TO.C,R101*%
X390540000Y-262656800D03*
X389090000Y-262656800D03*
%TD*%
D14*
%TO.C,R5*%
X373405800Y-254444800D03*
X373405800Y-256044800D03*
%TD*%
D46*
%TO.C,J5*%
X412835000Y-178742600D03*
D47*
X412835000Y-188142600D03*
D46*
X420235000Y-180742600D03*
D47*
X417285000Y-192042600D03*
%TD*%
D48*
%TO.C,IC57*%
X329661200Y-230479800D03*
X329011200Y-230479800D03*
X328361200Y-230479800D03*
X327711200Y-230479800D03*
X327711200Y-234879800D03*
X328361200Y-234879800D03*
X329011200Y-234879800D03*
X329661200Y-234879800D03*
D49*
X328686200Y-232679800D03*
%TD*%
D19*
%TO.C,R49*%
X251308000Y-199796600D03*
X250008000Y-199796600D03*
%TD*%
%TO.C,R280*%
X232472200Y-194056200D03*
X231172200Y-194056200D03*
%TD*%
D15*
%TO.C,C246*%
X236282200Y-191262200D03*
X234882200Y-191262200D03*
%TD*%
D30*
%TO.C,R143*%
X223293200Y-245770600D03*
X220293200Y-245770600D03*
%TD*%
D38*
%TO.C,D76*%
X276073000Y-200058200D03*
X276073000Y-198658200D03*
%TD*%
D16*
%TO.C,R13*%
X358357400Y-248412200D03*
X356907400Y-248412200D03*
%TD*%
D19*
%TO.C,R348*%
X358836600Y-227381000D03*
X360136600Y-227381000D03*
%TD*%
%TO.C,R176*%
X349555200Y-214935000D03*
X350855200Y-214935000D03*
%TD*%
D16*
%TO.C,R11*%
X358357400Y-253289000D03*
X356907400Y-253289000D03*
%TD*%
D19*
%TO.C,R178*%
X322901600Y-244754600D03*
X321601600Y-244754600D03*
%TD*%
%TO.C,R194*%
X328451400Y-206172000D03*
X329751400Y-206172000D03*
%TD*%
%TO.C,R307*%
X266500600Y-216849400D03*
X265200600Y-216849400D03*
%TD*%
D38*
%TO.C,D69*%
X236422200Y-210491600D03*
X236422200Y-209091600D03*
%TD*%
D23*
%TO.C,C160*%
X404318600Y-290665750D03*
X404318600Y-289265750D03*
%TD*%
D32*
%TO.C,R330*%
X329697000Y-227889000D03*
X327797000Y-227889000D03*
%TD*%
D19*
%TO.C,R276*%
X234852200Y-192532200D03*
X236152200Y-192532200D03*
%TD*%
D17*
%TO.C,R188*%
X367910800Y-216679400D03*
X367910800Y-215229400D03*
%TD*%
D50*
%TO.C,IC38*%
X405943200Y-216910400D03*
X407213200Y-216910400D03*
X408483200Y-216910400D03*
X409753200Y-216910400D03*
X411023200Y-216910400D03*
X412293200Y-216910400D03*
X413563200Y-216910400D03*
X413563200Y-211486400D03*
X412293200Y-211486400D03*
X411023200Y-211486400D03*
X409753200Y-211486400D03*
X408483200Y-211486400D03*
X407213200Y-211486400D03*
X405943200Y-211486400D03*
%TD*%
D17*
%TO.C,R95*%
X377596800Y-288622600D03*
X377596800Y-287172600D03*
%TD*%
D21*
%TO.C,R224*%
X345135600Y-213523000D03*
X345135600Y-214823000D03*
%TD*%
%TO.C,R314*%
X229062200Y-213160400D03*
X229062200Y-214460400D03*
%TD*%
D51*
%TO.C,C184*%
X312142600Y-221161000D03*
X313092600Y-221161000D03*
%TD*%
D22*
%TO.C,C173*%
X416315000Y-288283400D03*
X414915000Y-288283400D03*
%TD*%
D19*
%TO.C,R296*%
X267661000Y-197834200D03*
X268961000Y-197834200D03*
%TD*%
D16*
%TO.C,R104*%
X390794000Y-266720800D03*
X389344000Y-266720800D03*
%TD*%
D19*
%TO.C,R192*%
X328481400Y-204902000D03*
X329781400Y-204902000D03*
%TD*%
%TO.C,R301*%
X261736600Y-219643400D03*
X263036600Y-219643400D03*
%TD*%
%TO.C,R128*%
X305667000Y-206417800D03*
X304367000Y-206417800D03*
%TD*%
D50*
%TO.C,IC59*%
X410204800Y-281242000D03*
X411474800Y-281242000D03*
X412744800Y-281242000D03*
X414014800Y-281242000D03*
X415284800Y-281242000D03*
X416554800Y-281242000D03*
X417824800Y-281242000D03*
X417824800Y-275818000D03*
X416554800Y-275818000D03*
X415284800Y-275818000D03*
X414014800Y-275818000D03*
X412744800Y-275818000D03*
X411474800Y-275818000D03*
X410204800Y-275818000D03*
%TD*%
D52*
%TO.C,S5*%
X306108600Y-212786600D03*
X306108600Y-217286600D03*
X314058600Y-212786600D03*
X314058600Y-217286600D03*
%TD*%
D19*
%TO.C,R303*%
X235660200Y-206297600D03*
X234360200Y-206297600D03*
%TD*%
D22*
%TO.C,C243*%
X236158200Y-200660200D03*
X234758200Y-200660200D03*
%TD*%
%TO.C,C175*%
X412220000Y-203556000D03*
X410820000Y-203556000D03*
%TD*%
D21*
%TO.C,R208*%
X337371400Y-214838000D03*
X337371400Y-213538000D03*
%TD*%
D53*
%TO.C,IC44*%
X408076800Y-237718800D03*
X408076800Y-238353800D03*
X408076800Y-239014200D03*
X408076800Y-239649200D03*
X412496400Y-239649200D03*
X412496400Y-239014200D03*
X412496400Y-238353800D03*
X412496400Y-237718800D03*
%TD*%
D21*
%TO.C,R223*%
X343789400Y-213523000D03*
X343789400Y-214823000D03*
%TD*%
%TO.C,R311*%
X225506200Y-223858400D03*
X225506200Y-222558400D03*
%TD*%
D54*
%TO.C,IC5*%
X364888200Y-206000000D03*
X364888200Y-206650000D03*
X364888200Y-207300000D03*
X364888200Y-207950000D03*
X370764200Y-207950000D03*
X370764200Y-207300000D03*
X370764200Y-206650000D03*
X370764200Y-206000000D03*
%TD*%
D50*
%TO.C,IC37*%
X416814400Y-260737000D03*
X415544400Y-260737000D03*
X414274400Y-260737000D03*
X413004400Y-260737000D03*
X411734400Y-260737000D03*
X410464400Y-260737000D03*
X409194400Y-260737000D03*
X409194400Y-266161000D03*
X410464400Y-266161000D03*
X411734400Y-266161000D03*
X413004400Y-266161000D03*
X414274400Y-266161000D03*
X415544400Y-266161000D03*
X416814400Y-266161000D03*
%TD*%
D19*
%TO.C,R200*%
X328489400Y-197282000D03*
X329789400Y-197282000D03*
%TD*%
D32*
%TO.C,R144*%
X273116400Y-244475200D03*
X275016400Y-244475200D03*
%TD*%
D55*
%TO.C,D80*%
X227780200Y-213952400D03*
X226280200Y-213952400D03*
%TD*%
D20*
%TO.C,D21*%
X226055800Y-248984600D03*
X221955800Y-248984600D03*
%TD*%
D38*
%TO.C,D60*%
X277571600Y-187720400D03*
X277571600Y-186320400D03*
%TD*%
D19*
%TO.C,R294*%
X242294200Y-211377600D03*
X240994200Y-211377600D03*
%TD*%
D18*
%TO.C,C279*%
X332033800Y-227982200D03*
X332033800Y-230742200D03*
%TD*%
D16*
%TO.C,R85*%
X388629800Y-287934600D03*
X387179800Y-287934600D03*
%TD*%
D56*
%TO.C,IC42*%
X373763600Y-200314400D03*
X373763600Y-199664400D03*
X373763600Y-199014400D03*
X373763600Y-198364400D03*
X369339600Y-198364400D03*
X369339600Y-199014400D03*
X369339600Y-199664400D03*
X369339600Y-200314400D03*
%TD*%
D38*
%TO.C,D74*%
X267008600Y-215325400D03*
X267008600Y-213925400D03*
%TD*%
%TO.C,D54*%
X233234200Y-198250200D03*
X233234200Y-196850200D03*
%TD*%
D18*
%TO.C,C181*%
X301975000Y-227883800D03*
X301975000Y-230643800D03*
%TD*%
D38*
%TO.C,D81*%
X232110200Y-221448400D03*
X232110200Y-220048400D03*
%TD*%
D10*
%TO.C,LED24*%
X272188200Y-254305000D03*
X270688200Y-254305000D03*
%TD*%
D21*
%TO.C,R126*%
X305667000Y-209241800D03*
X305667000Y-207941800D03*
%TD*%
D15*
%TO.C,C129*%
X310086600Y-205130600D03*
X308686600Y-205130600D03*
%TD*%
D16*
%TO.C,R88*%
X395328200Y-231292600D03*
X393878200Y-231292600D03*
%TD*%
D57*
%TO.C,Q1*%
X395544200Y-211064800D03*
X394244200Y-211064800D03*
X394894200Y-213064800D03*
%TD*%
D22*
%TO.C,C3*%
X411847200Y-234670800D03*
X413247200Y-234670800D03*
%TD*%
D19*
%TO.C,R20*%
X397292200Y-214842800D03*
X398592200Y-214842800D03*
%TD*%
D16*
%TO.C,R105*%
X392686600Y-255524200D03*
X391236600Y-255524200D03*
%TD*%
D15*
%TO.C,C138*%
X291537000Y-196723200D03*
X292937000Y-196723200D03*
%TD*%
D37*
%TO.C,C187*%
X317928000Y-236271000D03*
X319528000Y-236271000D03*
%TD*%
D16*
%TO.C,R158*%
X419825400Y-261925000D03*
X418375400Y-261925000D03*
%TD*%
D38*
%TO.C,D72*%
X233882200Y-209091600D03*
X233882200Y-210491600D03*
%TD*%
D10*
%TO.C,LED3*%
X391593600Y-220269000D03*
X390093600Y-220269000D03*
%TD*%
D22*
%TO.C,C6*%
X371032400Y-241808200D03*
X369632400Y-241808200D03*
%TD*%
D58*
%TO.C,C88*%
X396609200Y-233076600D03*
X394709200Y-233076600D03*
%TD*%
D19*
%TO.C,R17*%
X394254600Y-214858800D03*
X395554600Y-214858800D03*
%TD*%
D22*
%TO.C,C166*%
X409030800Y-258617200D03*
X407630800Y-258617200D03*
%TD*%
D10*
%TO.C,LED21*%
X211887200Y-254329000D03*
X211887200Y-255829000D03*
%TD*%
D35*
%TO.C,IC60*%
X406750200Y-221572800D03*
X406100200Y-221572800D03*
X405450200Y-221572800D03*
X404800200Y-221572800D03*
X404150200Y-221572800D03*
X403500200Y-221572800D03*
X402850200Y-221572800D03*
X402850200Y-227448800D03*
X403500200Y-227448800D03*
X404150200Y-227448800D03*
X404800200Y-227448800D03*
X405450200Y-227448800D03*
X406100200Y-227448800D03*
X406750200Y-227448800D03*
%TD*%
D19*
%TO.C,R346*%
X268305200Y-254101800D03*
X267005200Y-254101800D03*
%TD*%
D18*
%TO.C,C62*%
X255357000Y-190789708D03*
X255357000Y-188029708D03*
%TD*%
D15*
%TO.C,C134*%
X290994800Y-205994200D03*
X292394800Y-205994200D03*
%TD*%
D17*
%TO.C,R116*%
X378790600Y-253238200D03*
X378790600Y-251788200D03*
%TD*%
D19*
%TO.C,R129*%
X308656600Y-206400600D03*
X309956600Y-206400600D03*
%TD*%
%TO.C,R278*%
X279987600Y-219222650D03*
X278687600Y-219222650D03*
%TD*%
D17*
%TO.C,R7*%
X362280600Y-254152600D03*
X362280600Y-252702600D03*
%TD*%
D28*
%TO.C,C106*%
X394140600Y-253746200D03*
X391380600Y-253746200D03*
%TD*%
D16*
%TO.C,R152*%
X415581400Y-269545000D03*
X417031400Y-269545000D03*
%TD*%
%TO.C,R94*%
X391989200Y-239420600D03*
X390539200Y-239420600D03*
%TD*%
D59*
%TO.C,Y2*%
X353373400Y-208458000D03*
X353373400Y-198958000D03*
%TD*%
D24*
%TO.C,C169*%
X413111600Y-295157800D03*
X413111600Y-296817800D03*
%TD*%
D17*
%TO.C,R2*%
X374980600Y-248068200D03*
X374980600Y-249518200D03*
%TD*%
D22*
%TO.C,C165*%
X416938400Y-258623000D03*
X418338400Y-258623000D03*
%TD*%
D21*
%TO.C,R328*%
X329377200Y-240639800D03*
X329377200Y-239339800D03*
%TD*%
D19*
%TO.C,R343*%
X328016000Y-223164600D03*
X329316000Y-223164600D03*
%TD*%
D57*
%TO.C,Q3*%
X392608200Y-211064800D03*
X391308200Y-211064800D03*
X391958200Y-213064800D03*
%TD*%
D48*
%TO.C,IC54*%
X339405000Y-231378600D03*
X338755000Y-231378600D03*
X338105000Y-231378600D03*
X337455000Y-231378600D03*
X337455000Y-235778600D03*
X338105000Y-235778600D03*
X338755000Y-235778600D03*
X339405000Y-235778600D03*
D49*
X338430000Y-233578600D03*
%TD*%
D22*
%TO.C,C245*%
X271628600Y-183953600D03*
X273028600Y-183953600D03*
%TD*%
%TO.C,C176*%
X407388000Y-203556000D03*
X408788000Y-203556000D03*
%TD*%
D19*
%TO.C,R332*%
X346035000Y-225679200D03*
X347335000Y-225679200D03*
%TD*%
D21*
%TO.C,R309*%
X225506200Y-218270400D03*
X225506200Y-216970400D03*
%TD*%
D57*
%TO.C,Q4*%
X398450200Y-211032800D03*
X397150200Y-211032800D03*
X397800200Y-213032800D03*
%TD*%
D19*
%TO.C,R189*%
X328489400Y-201092000D03*
X329789400Y-201092000D03*
%TD*%
%TO.C,R136*%
X292394800Y-204724200D03*
X291094800Y-204724200D03*
%TD*%
%TO.C,R185*%
X319288800Y-214325400D03*
X320588800Y-214325400D03*
%TD*%
D16*
%TO.C,R107*%
X389344000Y-269260800D03*
X390794000Y-269260800D03*
%TD*%
D28*
%TO.C,C105*%
X392064000Y-271292800D03*
X389304000Y-271292800D03*
%TD*%
D21*
%TO.C,R53*%
X253310000Y-207050600D03*
X253310000Y-205750600D03*
%TD*%
D12*
%TO.C,IC27*%
X388868600Y-254508200D03*
X388868600Y-253238200D03*
X388868600Y-251968200D03*
X388868600Y-250698200D03*
X388868600Y-249428200D03*
X388868600Y-248158200D03*
X388868600Y-246888200D03*
X383444600Y-246888200D03*
X383444600Y-248158200D03*
X383444600Y-249428200D03*
X383444600Y-250698200D03*
X383444600Y-251968200D03*
X383444600Y-253238200D03*
X383444600Y-254508200D03*
%TD*%
D17*
%TO.C,R8*%
X362280600Y-249527600D03*
X362280600Y-250977600D03*
%TD*%
D16*
%TO.C,R114*%
X383481600Y-256794200D03*
X384931600Y-256794200D03*
%TD*%
D18*
%TO.C,C55*%
X257643000Y-188029708D03*
X257643000Y-190789708D03*
%TD*%
D21*
%TO.C,R331*%
X331449600Y-225516400D03*
X331449600Y-224216400D03*
%TD*%
D19*
%TO.C,R50*%
X253056000Y-199796600D03*
X254356000Y-199796600D03*
%TD*%
D24*
%TO.C,C159*%
X402515200Y-291049750D03*
X402515200Y-289389750D03*
%TD*%
D16*
%TO.C,R109*%
X381470000Y-274086800D03*
X382920000Y-274086800D03*
%TD*%
D19*
%TO.C,R345*%
X218232200Y-255908200D03*
X219532200Y-255908200D03*
%TD*%
D14*
%TO.C,R3*%
X373405800Y-249517000D03*
X373405800Y-247917000D03*
%TD*%
D19*
%TO.C,R295*%
X258626600Y-213039400D03*
X259926600Y-213039400D03*
%TD*%
D20*
%TO.C,D22*%
X267165000Y-241401800D03*
X271265000Y-241401800D03*
%TD*%
D19*
%TO.C,R137*%
X294818200Y-204724200D03*
X296118200Y-204724200D03*
%TD*%
%TO.C,R333*%
X358847000Y-225425200D03*
X360147000Y-225425200D03*
%TD*%
%TO.C,R24*%
X397912200Y-218313200D03*
X399212200Y-218313200D03*
%TD*%
D21*
%TO.C,R51*%
X251278000Y-205160600D03*
X251278000Y-203860600D03*
%TD*%
D39*
%TO.C,C277*%
X329435200Y-237337800D03*
X327795200Y-237337800D03*
%TD*%
D19*
%TO.C,R216*%
X329783600Y-202336600D03*
X328483600Y-202336600D03*
%TD*%
D16*
%TO.C,R102*%
X392686600Y-245872200D03*
X391236600Y-245872200D03*
%TD*%
D28*
%TO.C,C101*%
X392064000Y-264688800D03*
X389304000Y-264688800D03*
%TD*%
%TO.C,C100*%
X396492000Y-271292800D03*
X393732000Y-271292800D03*
%TD*%
D16*
%TO.C,R87*%
X395291200Y-237388600D03*
X393841200Y-237388600D03*
%TD*%
%TO.C,R103*%
X390794000Y-273324800D03*
X389344000Y-273324800D03*
%TD*%
D13*
%TO.C,D75*%
X265738600Y-215325400D03*
X265738600Y-213825400D03*
%TD*%
D28*
%TO.C,C110*%
X387492000Y-274086800D03*
X384732000Y-274086800D03*
%TD*%
D60*
%TO.C,C185*%
X317672200Y-230037600D03*
X317672200Y-224437600D03*
%TD*%
D17*
%TO.C,R169*%
X408788000Y-200254000D03*
X408788000Y-201704000D03*
%TD*%
D15*
%TO.C,C262*%
X271835000Y-205708200D03*
X270435000Y-205708200D03*
%TD*%
D11*
%TO.C,C268*%
X339237600Y-226578000D03*
X337617600Y-226578000D03*
%TD*%
D10*
%TO.C,LED26*%
X357378400Y-229387600D03*
X358878400Y-229387600D03*
%TD*%
D12*
%TO.C,IC24*%
X391809200Y-237388600D03*
X391809200Y-236118600D03*
X391809200Y-234848600D03*
X391809200Y-233578600D03*
X391809200Y-232308600D03*
X391809200Y-231038600D03*
X391809200Y-229768600D03*
X386385200Y-229768600D03*
X386385200Y-231038600D03*
X386385200Y-232308600D03*
X386385200Y-233578600D03*
X386385200Y-234848600D03*
X386385200Y-236118600D03*
X386385200Y-237388600D03*
%TD*%
D19*
%TO.C,R197*%
X328451400Y-209982000D03*
X329751400Y-209982000D03*
%TD*%
D40*
%TO.C,IC31*%
X305635800Y-203047800D03*
X306135800Y-203047800D03*
X306635800Y-203047800D03*
X307135800Y-203047800D03*
X307635800Y-203047800D03*
X308135800Y-203047800D03*
X308635800Y-203047800D03*
X308635800Y-199971800D03*
X308135800Y-199971800D03*
X307635800Y-199971800D03*
X307135800Y-199971800D03*
X306635800Y-199971800D03*
X306135800Y-199971800D03*
X305635800Y-199971800D03*
%TD*%
D19*
%TO.C,R21*%
X394056000Y-218364000D03*
X395356000Y-218364000D03*
%TD*%
D22*
%TO.C,C2*%
X406933800Y-234772400D03*
X408333800Y-234772400D03*
%TD*%
D61*
%TO.C,R162*%
X417297000Y-194543800D03*
X417297000Y-196443800D03*
%TD*%
D28*
%TO.C,C82*%
X396855200Y-229514600D03*
X394095200Y-229514600D03*
%TD*%
D21*
%TO.C,R220*%
X342451400Y-214808000D03*
X342451400Y-213508000D03*
%TD*%
D15*
%TO.C,C163*%
X419862400Y-263449000D03*
X418462400Y-263449000D03*
%TD*%
D18*
%TO.C,C180*%
X299435000Y-227883800D03*
X299435000Y-230643800D03*
%TD*%
D19*
%TO.C,R179*%
X296001400Y-227765000D03*
X297301400Y-227765000D03*
%TD*%
D16*
%TO.C,R81*%
X391169800Y-287934600D03*
X389719800Y-287934600D03*
%TD*%
D38*
%TO.C,D70*%
X264468600Y-213925400D03*
X264468600Y-215325400D03*
%TD*%
D19*
%TO.C,R288*%
X245088200Y-211377600D03*
X243788200Y-211377600D03*
%TD*%
D23*
%TO.C,C209*%
X357945400Y-201422000D03*
X357945400Y-200022000D03*
%TD*%
D62*
%TO.C,IC3*%
X390764200Y-207708000D03*
X390764200Y-208208000D03*
X390764200Y-208708000D03*
X390764200Y-209208000D03*
X393914200Y-209208000D03*
X393914200Y-208708000D03*
X393914200Y-208208000D03*
X393914200Y-207708000D03*
%TD*%
D28*
%TO.C,C186*%
X317602000Y-233985000D03*
X320362000Y-233985000D03*
%TD*%
D38*
%TO.C,D56*%
X281481600Y-212234650D03*
X281481600Y-213634650D03*
%TD*%
D63*
%TO.C,L5*%
X309986600Y-235791400D03*
X314486600Y-235791400D03*
%TD*%
D23*
%TO.C,C210*%
X357945400Y-206118000D03*
X357945400Y-207518000D03*
%TD*%
D21*
%TO.C,R213*%
X340462000Y-192369400D03*
X340462000Y-191069400D03*
%TD*%
D27*
%TO.C,D50*%
X239460200Y-192532200D03*
X238060200Y-192532200D03*
%TD*%
D10*
%TO.C,LED23*%
X215725400Y-254356000D03*
X215725400Y-255856000D03*
%TD*%
D19*
%TO.C,R22*%
X386192400Y-218414800D03*
X387492400Y-218414800D03*
%TD*%
D16*
%TO.C,R84*%
X397831200Y-231292600D03*
X396381200Y-231292600D03*
%TD*%
D64*
%TO.C,IC1*%
X412613200Y-233029200D03*
X412613200Y-232529200D03*
X412613200Y-232029200D03*
X412613200Y-231529200D03*
X412613200Y-231029200D03*
X408163200Y-231029200D03*
X408163200Y-231529200D03*
X408163200Y-232029200D03*
X408163200Y-232529200D03*
X408163200Y-233029200D03*
%TD*%
D27*
%TO.C,D68*%
X267053000Y-204438200D03*
X268453000Y-204438200D03*
%TD*%
D12*
%TO.C,IC28*%
X352963200Y-254506000D03*
X352963200Y-253236000D03*
X352963200Y-251966000D03*
X352963200Y-250696000D03*
X352963200Y-249426000D03*
X352963200Y-248156000D03*
X352963200Y-246886000D03*
X347539200Y-246886000D03*
X347539200Y-248156000D03*
X347539200Y-249426000D03*
X347539200Y-250696000D03*
X347539200Y-251966000D03*
X347539200Y-253236000D03*
X347539200Y-254506000D03*
%TD*%
D19*
%TO.C,R193*%
X328451400Y-203632000D03*
X329751400Y-203632000D03*
%TD*%
D65*
%TO.C,C63*%
X251278000Y-201153600D03*
X251278000Y-202503600D03*
%TD*%
D17*
%TO.C,R9*%
X354990800Y-253249800D03*
X354990800Y-254699800D03*
%TD*%
D21*
%TO.C,R127*%
X308686600Y-209224600D03*
X308686600Y-207924600D03*
%TD*%
D66*
%TO.C,C145*%
X274901800Y-226415800D03*
X268201800Y-226415800D03*
%TD*%
D13*
%TO.C,D77*%
X274803000Y-200120200D03*
X274803000Y-198620200D03*
%TD*%
D16*
%TO.C,R90*%
X385358800Y-290728600D03*
X383908800Y-290728600D03*
%TD*%
D17*
%TO.C,R115*%
X376834800Y-271489200D03*
X376834800Y-270039200D03*
%TD*%
%TO.C,R171*%
X407213200Y-207594400D03*
X407213200Y-206144400D03*
%TD*%
D15*
%TO.C,C211*%
X262049800Y-254241800D03*
X263449800Y-254241800D03*
%TD*%
D27*
%TO.C,D78*%
X227792200Y-212682400D03*
X226392200Y-212682400D03*
%TD*%
D19*
%TO.C,R308*%
X275707000Y-201644200D03*
X274407000Y-201644200D03*
%TD*%
D24*
%TO.C,C280*%
X349479000Y-227271200D03*
X349479000Y-225611200D03*
%TD*%
D67*
%TO.C,Q17*%
X361814800Y-214889400D03*
X361814800Y-216809400D03*
X363914800Y-215849400D03*
%TD*%
D19*
%TO.C,R289*%
X245342200Y-204773600D03*
X244042200Y-204773600D03*
%TD*%
D43*
%TO.C,C263*%
X223982200Y-218400400D03*
X223982200Y-217000400D03*
%TD*%
D21*
%TO.C,R321*%
X325810800Y-229189000D03*
X325810800Y-227889000D03*
%TD*%
D65*
%TO.C,C65*%
X250008000Y-202503600D03*
X250008000Y-201153600D03*
%TD*%
D16*
%TO.C,R83*%
X397831200Y-237388600D03*
X396381200Y-237388600D03*
%TD*%
D21*
%TO.C,R187*%
X359782800Y-216517400D03*
X359782800Y-215217400D03*
%TD*%
%TO.C,R186*%
X343654200Y-192369400D03*
X343654200Y-191069400D03*
%TD*%
D15*
%TO.C,C260*%
X239328200Y-203503600D03*
X237928200Y-203503600D03*
%TD*%
D10*
%TO.C,LED18*%
X323140600Y-246710400D03*
X321640600Y-246710400D03*
%TD*%
D28*
%TO.C,C98*%
X398568600Y-247650200D03*
X395808600Y-247650200D03*
%TD*%
D32*
%TO.C,R318*%
X339440800Y-228752600D03*
X337540800Y-228752600D03*
%TD*%
D19*
%TO.C,R293*%
X264359000Y-204438200D03*
X265659000Y-204438200D03*
%TD*%
%TO.C,R181*%
X311927200Y-222862800D03*
X313227200Y-222862800D03*
%TD*%
D18*
%TO.C,C113*%
X378990000Y-272782800D03*
X378990000Y-270022800D03*
%TD*%
D21*
%TO.C,R207*%
X336101400Y-214838000D03*
X336101400Y-213538000D03*
%TD*%
D22*
%TO.C,C5*%
X372248600Y-241808200D03*
X373648600Y-241808200D03*
%TD*%
D21*
%TO.C,R133*%
X307696000Y-192618800D03*
X307696000Y-193918800D03*
%TD*%
D19*
%TO.C,R268*%
X239076200Y-199136200D03*
X237776200Y-199136200D03*
%TD*%
D21*
%TO.C,R135*%
X294848200Y-208930200D03*
X294848200Y-207630200D03*
%TD*%
D22*
%TO.C,C7*%
X367959000Y-241859000D03*
X366559000Y-241859000D03*
%TD*%
D19*
%TO.C,R45*%
X254849000Y-192347708D03*
X256149000Y-192347708D03*
%TD*%
D21*
%TO.C,R205*%
X335085400Y-192380000D03*
X335085400Y-191080000D03*
%TD*%
D19*
%TO.C,R264*%
X272815600Y-211348650D03*
X274115600Y-211348650D03*
%TD*%
D58*
%TO.C,C18*%
X389733000Y-283794400D03*
X387833000Y-283794400D03*
%TD*%
D34*
%TO.C,IC51*%
X259642600Y-214865400D03*
X259642600Y-215365400D03*
X259642600Y-215865400D03*
X259642600Y-216365400D03*
X259642600Y-216865400D03*
X259642600Y-217365400D03*
X259642600Y-217865400D03*
X262718600Y-217865400D03*
X262718600Y-217365400D03*
X262718600Y-216865400D03*
X262718600Y-216365400D03*
X262718600Y-215865400D03*
X262718600Y-215365400D03*
X262718600Y-214865400D03*
%TD*%
D28*
%TO.C,C97*%
X396382000Y-264688800D03*
X393622000Y-264688800D03*
%TD*%
D19*
%TO.C,R281*%
X275538600Y-190557600D03*
X276838600Y-190557600D03*
%TD*%
%TO.C,R195*%
X328451400Y-207442000D03*
X329751400Y-207442000D03*
%TD*%
D18*
%TO.C,C114*%
X380784600Y-254508200D03*
X380784600Y-251748200D03*
%TD*%
D21*
%TO.C,R206*%
X346659600Y-192379800D03*
X346659600Y-191079800D03*
%TD*%
D19*
%TO.C,R196*%
X328451400Y-208712000D03*
X329751400Y-208712000D03*
%TD*%
D28*
%TO.C,C103*%
X394284600Y-247650200D03*
X391524600Y-247650200D03*
%TD*%
%TO.C,C11*%
X390195200Y-280213000D03*
X387435200Y-280213000D03*
%TD*%
D19*
%TO.C,R18*%
X388275200Y-214808000D03*
X389575200Y-214808000D03*
%TD*%
%TO.C,R298*%
X261674600Y-213039400D03*
X262974600Y-213039400D03*
%TD*%
D21*
%TO.C,R204*%
X333815400Y-192380000D03*
X333815400Y-191080000D03*
%TD*%
D57*
%TO.C,Q2*%
X389611000Y-211064800D03*
X388311000Y-211064800D03*
X388961000Y-213064800D03*
%TD*%
D22*
%TO.C,C257*%
X239470200Y-212901600D03*
X238070200Y-212901600D03*
%TD*%
D17*
%TO.C,R6*%
X375006000Y-254545200D03*
X375006000Y-255995200D03*
%TD*%
D21*
%TO.C,R344*%
X209017000Y-254376600D03*
X209017000Y-255676600D03*
%TD*%
D16*
%TO.C,R160*%
X419862400Y-260401000D03*
X418412400Y-260401000D03*
%TD*%
D24*
%TO.C,C172*%
X410820000Y-196698000D03*
X410820000Y-195038000D03*
%TD*%
D16*
%TO.C,R159*%
X405966400Y-261925000D03*
X407416400Y-261925000D03*
%TD*%
D66*
%TO.C,C141*%
X223610275Y-231001400D03*
X230310275Y-231001400D03*
%TD*%
D10*
%TO.C,LED4*%
X399427200Y-220294400D03*
X397927200Y-220294400D03*
%TD*%
D28*
%TO.C,C102*%
X398568600Y-253746200D03*
X395808600Y-253746200D03*
%TD*%
D19*
%TO.C,R177*%
X368869600Y-230403600D03*
X370169600Y-230403600D03*
%TD*%
D23*
%TO.C,C266*%
X233380200Y-218000400D03*
X233380200Y-216600400D03*
%TD*%
D19*
%TO.C,R284*%
X231172200Y-195326200D03*
X232472200Y-195326200D03*
%TD*%
D68*
%TO.C,IC41*%
X335189400Y-199374000D03*
X335189400Y-199874000D03*
X335189400Y-200374000D03*
X335189400Y-200874000D03*
X335189400Y-201374000D03*
X335189400Y-201874000D03*
X335189400Y-202374000D03*
X335189400Y-202874000D03*
X335189400Y-203374000D03*
X335189400Y-203874000D03*
X335189400Y-204374000D03*
X335189400Y-204874000D03*
X335189400Y-205374000D03*
X335189400Y-205874000D03*
X335189400Y-206374000D03*
X335189400Y-206874000D03*
D69*
X337177400Y-208862000D03*
X337677400Y-208862000D03*
X338177400Y-208862000D03*
X338677400Y-208862000D03*
X339177400Y-208862000D03*
X339677400Y-208862000D03*
X340177400Y-208862000D03*
X340677400Y-208862000D03*
X341177400Y-208862000D03*
X341677400Y-208862000D03*
X342177400Y-208862000D03*
X342677400Y-208862000D03*
X343177400Y-208862000D03*
X343677400Y-208862000D03*
X344177400Y-208862000D03*
X344677400Y-208862000D03*
D68*
X346665400Y-206874000D03*
X346665400Y-206374000D03*
X346665400Y-205874000D03*
X346665400Y-205374000D03*
X346665400Y-204874000D03*
X346665400Y-204374000D03*
X346665400Y-203874000D03*
X346665400Y-203374000D03*
X346665400Y-202874000D03*
X346665400Y-202374000D03*
X346665400Y-201874000D03*
X346665400Y-201374000D03*
X346665400Y-200874000D03*
X346665400Y-200374000D03*
X346665400Y-199874000D03*
X346665400Y-199374000D03*
D69*
X344677400Y-197386000D03*
X344177400Y-197386000D03*
X343677400Y-197386000D03*
X343177400Y-197386000D03*
X342677400Y-197386000D03*
X342177400Y-197386000D03*
X341677400Y-197386000D03*
X341177400Y-197386000D03*
X340677400Y-197386000D03*
X340177400Y-197386000D03*
X339677400Y-197386000D03*
X339177400Y-197386000D03*
X338677400Y-197386000D03*
X338177400Y-197386000D03*
X337677400Y-197386000D03*
X337177400Y-197386000D03*
%TD*%
D10*
%TO.C,LED1*%
X395606800Y-220294400D03*
X394106800Y-220294400D03*
%TD*%
D35*
%TO.C,IC2*%
X374767000Y-233731000D03*
X374117000Y-233731000D03*
X373467000Y-233731000D03*
X372817000Y-233731000D03*
X372167000Y-233731000D03*
X371517000Y-233731000D03*
X370867000Y-233731000D03*
X370217000Y-233731000D03*
X369567000Y-233731000D03*
X368917000Y-233731000D03*
X368267000Y-233731000D03*
X367617000Y-233731000D03*
X367617000Y-239607000D03*
X368267000Y-239607000D03*
X368917000Y-239607000D03*
X369567000Y-239607000D03*
X370217000Y-239607000D03*
X370867000Y-239607000D03*
X371517000Y-239607000D03*
X372167000Y-239607000D03*
X372817000Y-239607000D03*
X373467000Y-239607000D03*
X374117000Y-239607000D03*
X374767000Y-239607000D03*
%TD*%
D40*
%TO.C,IC53*%
X227300200Y-220076400D03*
X227800200Y-220076400D03*
X228300200Y-220076400D03*
X228800200Y-220076400D03*
X229300200Y-220076400D03*
X229800200Y-220076400D03*
X230300200Y-220076400D03*
X230300200Y-217000400D03*
X229800200Y-217000400D03*
X229300200Y-217000400D03*
X228800200Y-217000400D03*
X228300200Y-217000400D03*
X227800200Y-217000400D03*
X227300200Y-217000400D03*
%TD*%
D19*
%TO.C,R277*%
X273170600Y-192081600D03*
X271870600Y-192081600D03*
%TD*%
%TO.C,R262*%
X265938400Y-185445600D03*
X267238400Y-185445600D03*
%TD*%
%TO.C,R290*%
X255802600Y-213039400D03*
X257102600Y-213039400D03*
%TD*%
D25*
%TO.C,C66*%
X255596000Y-204270600D03*
X255596000Y-201320600D03*
%TD*%
D18*
%TO.C,C269*%
X341777600Y-228728600D03*
X341777600Y-231488600D03*
%TD*%
D15*
%TO.C,C133*%
X309031000Y-197231200D03*
X307631000Y-197231200D03*
%TD*%
D44*
%TO.C,C89*%
X394095200Y-235356600D03*
X397045200Y-235356600D03*
%TD*%
D21*
%TO.C,R219*%
X352755600Y-190642200D03*
X352755600Y-189342200D03*
%TD*%
D19*
%TO.C,R285*%
X276868600Y-189287600D03*
X275568600Y-189287600D03*
%TD*%
D38*
%TO.C,D62*%
X284021600Y-213572650D03*
X284021600Y-212172650D03*
%TD*%
D21*
%TO.C,R226*%
X346507200Y-213487200D03*
X346507200Y-214787200D03*
%TD*%
D10*
%TO.C,LED22*%
X329465200Y-221107200D03*
X327965200Y-221107200D03*
%TD*%
M02*
