M48
; DRILL file {KiCad 8.0.8} date 2025-05-17T22:55:21-0400
; FORMAT={-:-/ absolute / inch / decimal}
; #@! TF.CreationDate,2025-05-17T22:55:21-04:00
; #@! TF.GenerationSoftware,Kicad,Pcbnew,8.0.8
; #@! TF.FileFunction,Plated,1,4,PTH
FMAT,2
INCH
; #@! TA.AperFunction,Plated,PTH,ViaDrill
T1C0.0120
; #@! TA.AperFunction,Plated,PTH,ComponentDrill
T2C0.0150
; #@! TA.AperFunction,Plated,PTH,ViaDrill
T3C0.0170
; #@! TA.AperFunction,Plated,PTH,ComponentDrill
T4C0.0238
; #@! TA.AperFunction,Plated,PTH,ComponentDrill
T5C0.0295
; #@! TA.AperFunction,Plated,PTH,ComponentDrill
T6C0.0300
; #@! TA.AperFunction,Plated,PTH,ComponentDrill
T7C0.0433
; #@! TA.AperFunction,Plated,PTH,ComponentDrill
T8C0.0453
; #@! TA.AperFunction,Plated,PTH,ComponentDrill
T9C0.0508
; #@! TA.AperFunction,Plated,PTH,ComponentDrill
T10C0.0531
; #@! TA.AperFunction,Plated,PTH,ComponentDrill
T11C0.0618
; #@! TA.AperFunction,Plated,PTH,ComponentDrill
T12C0.0669
; #@! TA.AperFunction,Plated,PTH,ComponentDrill
T13C0.0713
; #@! TA.AperFunction,Plated,PTH,ComponentDrill
T14C0.0780
; #@! TA.AperFunction,Plated,PTH,ComponentDrill
T15C0.0906
; #@! TA.AperFunction,Plated,PTH,ComponentDrill
T16C0.1000
; #@! TA.AperFunction,Plated,PTH,ComponentDrill
T17C0.1008
; #@! TA.AperFunction,Plated,PTH,ComponentDrill
T18C0.1050
; #@! TA.AperFunction,Plated,PTH,ComponentDrill
T19C0.1260
; #@! TA.AperFunction,Plated,PTH,ComponentDrill
T20C0.1457
%
G90
G05
T1
X8.124Y-10.337
X8.124Y-10.587
X8.124Y-10.837
X8.124Y-11.087
X8.124Y-11.337
X8.124Y-11.587
X8.124Y-11.837
X8.124Y-12.137
X8.124Y-12.487
X8.173Y-11.993
X8.268Y-11.011
X8.274Y-7.537
X8.274Y-8.337
X8.274Y-9.037
X8.274Y-9.637
X8.314Y-11.34
X8.324Y-10.447
X8.415Y-10.015
X8.598Y-9.671
X8.667Y-9.57
X8.674Y-7.537
X8.674Y-8.337
X8.674Y-9.037
X8.674Y-12.037
X8.7285Y-10.2125
X8.767Y-8.654
X8.774Y-12.337
X8.778Y-11.942
X8.804Y-9.937
X8.824Y-11.507
X8.874Y-10.687
X8.874Y-10.987
X8.874Y-11.287
X8.916Y-8.612
X8.926Y-8.824
X8.98Y-12.367
X8.982Y-12.561
X8.983Y-8.722
X8.993Y-7.993
X9.004Y-8.495
X9.024Y-12.137
X9.0319Y-8.7265
X9.06Y-8.983
X9.131Y-9.2
X9.191Y-8.825
X9.203Y-7.592
X9.203Y-7.72
X9.222Y-8.062
X9.224Y-10.637
X9.224Y-10.987
X9.224Y-11.637
X9.244Y-9.937
X9.264Y-9.727
X9.274Y-7.237
X9.314Y-7.964
X9.321Y-8.202
X9.338Y-11.761
X9.339Y-12.355
X9.427Y-11.861
X9.434Y-7.728
X9.4352Y-7.6848
X9.449Y-8.1
X9.471Y-9.059
X9.474Y-7.437
X9.474Y-8.587
X9.474Y-8.837
X9.498Y-8.38
X9.524Y-11.687
X9.524Y-12.037
X9.5656Y-8.1652
X9.5661Y-9.164
X9.573Y-8.231
X9.574Y-7.337
X9.574Y-9.787
X9.574Y-10.987
X9.5742Y-9.196
X9.578Y-9.129
X9.624Y-7.787
X9.624Y-11.387
X9.658Y-9.131
X9.669Y-9.432
X9.677Y-11.625
X9.724Y-8.637
X9.744Y-9.158
X9.774Y-8.187
X9.788Y-12.307
X9.824Y-10.048
X9.824Y-10.287
X9.824Y-11.137
X9.824Y-11.687
X9.827Y-8.854
X9.847Y-9.099
X9.859Y-9.003
X9.874Y-7.037
X9.874Y-11.387
X9.881Y-9.228
X9.894Y-9.74
X9.9014Y-7.5872
X9.907Y-8.36
X9.911Y-8.129
X9.924Y-11.887
X9.932Y-7.56
X9.932Y-7.819
X9.942Y-7.441
X9.943Y-7.285
X9.9654Y-7.5872
X9.988Y-8.301
X9.989Y-9.538
X10.005Y-8.531
X10.042Y-7.708
X10.0523Y-9.2774
X10.0527Y-9.968
X10.053Y-10.102
X10.057Y-8.713
X10.0615Y-7.6255
X10.0727Y-9.876
X10.085Y-9.0573
X10.1Y-9.276
X10.1Y-9.429
X10.144Y-8.22
X10.147Y-7.991
X10.1479Y-7.8641
X10.152Y-8.698
X10.159Y-8.548
X10.165Y-8.49
X10.224Y-10.03
X10.224Y-10.437
X10.226Y-8.695
X10.268Y-7.62
X10.277Y-8.611
X10.298Y-8.264
X10.304Y-9.775
X10.324Y-7.387
X10.324Y-7.737
X10.324Y-8.037
X10.374Y-7.037
X10.394Y-8.511
X10.407Y-9.775
X10.4078Y-7.864
X10.412Y-9.248
X10.45Y-10.225
X10.453Y-11.194
X10.473Y-11.1
X10.474Y-12.287
X10.51Y-7.948
X10.516Y-7.897
X10.524Y-8.305
X10.524Y-11.687
X10.544Y-8.1888
X10.557Y-7.456
X10.558Y-7.404
X10.56Y-8.791
X10.56Y-9.041
X10.573Y-10.094
X10.574Y-11.387
X10.595Y-10.857
X10.63Y-7.238
X10.638Y-8.515
X10.709Y-11.766
X10.724Y-11.637
X10.724Y-11.937
X10.737Y-7.519
X10.739Y-7.913
X10.756Y-10.932
X10.76Y-7.67
X10.792Y-7.427
X10.7927Y-11.312
X10.808Y-10.943
X10.812Y-8.269
X10.832Y-8.4768
X10.833Y-8.431
X10.853Y-8.061
X10.866Y-11.059
X10.874Y-7.037
X10.874Y-10.437
X10.89Y-10.936
X10.906Y-12.275
X10.908Y-8.266
X10.92Y-10.721
X10.922Y-10.687
X10.922Y-10.756
X10.93Y-8.547
X10.9565Y-11.0575
X10.986Y-12.51
X11.024Y-8.087
X11.024Y-11.237
X11.024Y-11.637
X11.024Y-11.937
X11.034Y-10.594
X11.034Y-12.008
X11.046Y-7.724
X11.06Y-8.447
X11.065Y-9.182
X11.089Y-9.695
X11.091Y-10.233
X11.116Y-10.82
X11.124Y-7.437
X11.137Y-10.7039
X11.144Y-9.561
X11.16Y-10.9966
X11.174Y-9.019
X11.197Y-10.391
X11.265Y-10.227
X11.27Y-7.04
X11.274Y-7.837
X11.274Y-8.087
X11.282Y-8.669
X11.295Y-10.921
X11.301Y-9.854
X11.367Y-10.122
X11.374Y-12.287
X11.404Y-7.905
X11.407Y-7.72
X11.417Y-10.636
X11.424Y-10.787
X11.424Y-11.087
X11.424Y-11.337
X11.424Y-11.637
X11.424Y-11.937
X11.434Y-7.295
X11.436Y-10.286
X11.454Y-9.987
X11.521Y-10.267
X11.528Y-10.629
X11.545Y-9.86
X11.547Y-7.214
X11.547Y-10.867
X11.56Y-7.794
X11.56Y-8.031
X11.6095Y-8.6625
X11.612Y-11.08
X11.638Y-8.439
X11.643Y-10.1698
X11.643Y-10.348
X11.662Y-9.689
X11.678Y-7.37
X11.687Y-11.297
X11.703Y-7.715
X11.705Y-9.046
X11.724Y-10.944
X11.731Y-10.547
X11.752Y-10.739
X11.752Y-10.768
X11.7542Y-10.7969
X11.762Y-7.891
X11.763Y-7.924
X11.766Y-9.251
X11.768Y-7.848
X11.772Y-7.968
X11.794Y-9.987
X11.806Y-10.641
X11.818Y-11.09
X11.822Y-10.42
X11.823Y-8.233
X11.823Y-10.154
X11.824Y-12.287
X11.864Y-7.251
X11.865Y-10.479
X11.872Y-10.854
X11.874Y-11.637
X11.874Y-11.937
X11.882Y-9.36
X11.889Y-9.026
X11.902Y-7.586
X11.919Y-7.787
X11.919Y-8.424
X11.927Y-7.452
X11.933Y-8.66
X11.933Y-10.547
X11.936Y-7.997
X11.941Y-8.613
X11.954Y-11.048
X11.96Y-9.68
X11.964Y-10.237
X11.978Y-8.73
X11.992Y-8.322
X11.9955Y-10.6994
X12.024Y-10.387
X12.06Y-10.117
X12.074Y-9.997
X12.089Y-7.519
X12.091Y-7.819
X12.109Y-8.063
X12.124Y-11.037
X12.153Y-7.3067
X12.153Y-9.772
X12.168Y-8.835
X12.174Y-10.587
X12.186Y-7.904
X12.188Y-7.626
X12.1953Y-7.3297
X12.204Y-11.815
X12.209Y-7.271
X12.264Y-7.762
X12.277Y-8.19
X12.296Y-9.47
X12.311Y-10.112
X12.314Y-9.987
X12.317Y-8.158
X12.324Y-11.387
X12.324Y-11.737
X12.324Y-11.937
X12.343Y-9.078
X12.352Y-8.477
X12.374Y-11.087
X12.424Y-10.837
X12.444Y-10.237
X12.515Y-7.229
X12.5216Y-9.722
X12.5216Y-9.749
X12.549Y-10.113
X12.554Y-9.987
X12.612Y-9.131
X12.618Y-8.28
X12.62Y-9.85
X12.643Y-8.832
X12.674Y-10.237
X12.674Y-10.437
X12.701Y-7.712
X12.745Y-9.181
X12.754Y-9.333
X12.758Y-9.021
X12.768Y-8.245
X12.772Y-7.444
X12.782Y-10.112
X12.784Y-9.987
X12.854Y-9.157
X12.87Y-7.968
X12.9385Y-7.6345
X12.974Y-10.237
X12.985Y-11.301
X12.9963Y-7.2917
X13.012Y-7.395
X13.014Y-9.987
X13.014Y-10.109
X13.0204Y-9.1606
X13.024Y-11.737
X13.049Y-8.766
X13.053Y-7.99
X13.065Y-7.317
X13.074Y-11.437
X13.086Y-8.018
X13.09Y-8.247
X13.091Y-7.341
X13.094Y-8.783
X13.097Y-7.522
X13.116Y-8.828
X13.1225Y-8.0062
X13.1248Y-7.367
X13.134Y-7.839
X13.1348Y-7.4808
X13.141Y-9.185
X13.151Y-9.34
X13.156Y-8.408
X13.167Y-9.751
X13.174Y-10.937
X13.178Y-8.179
X13.232Y-8.521
X13.244Y-9.197
X13.247Y-7.642
X13.254Y-9.987
X13.254Y-10.109
X13.262Y-8.712
X13.274Y-11.937
X13.28Y-8.523
X13.281Y-7.235
X13.314Y-8.047
X13.318Y-7.869
X13.321Y-8.009
X13.3213Y-8.288
X13.324Y-10.237
X13.326Y-7.344
X13.3315Y-8.5205
X13.358Y-7.841
X13.363Y-7.481
X13.383Y-8.167
X13.383Y-8.525
X13.393Y-9.196
X13.395Y-7.214
X13.398Y-7.874
X13.412Y-8.034
X13.422Y-7.019
X13.424Y-11.637
X13.424Y-12.137
X13.426Y-7.161
X13.4313Y-7.685
X13.437Y-7.239
X13.4498Y-8.2835
X13.454Y-7.873
X13.455Y-7.128
X13.474Y-10.437
X13.474Y-10.737
X13.474Y-11.037
X13.491Y-8.307
X13.495Y-7.614
X13.495Y-7.676
X13.515Y-9.225
X13.523Y-8.2858
X13.529Y-8.006
X13.533Y-9.609
X13.535Y-8.065
X13.536Y-8.515
X13.536Y-9.906
X13.546Y-8.309
X13.564Y-8.17
X13.568Y-8.614
X13.57Y-8.279
X13.602Y-10.112
X13.615Y-7.451
X13.615Y-7.72
X13.624Y-10.237
X13.628Y-7.42
X13.642Y-8.5149
X13.665Y-7.802
X13.674Y-9.437
X13.691Y-7.784
X13.692Y-8.5145
X13.717Y-7.893
X13.7185Y-7.3345
X13.721Y-7.934
X13.726Y-7.969
X13.7289Y-8.0561
X13.739Y-8.086
X13.749Y-8.792
X13.758Y-8.111
X13.76Y-7.586
X13.76Y-8.51
X13.784Y-7.621
X13.795Y-7.357
X13.797Y-9.021
X13.813Y-7.968
X13.814Y-8.509
X13.815Y-8.07
X13.823Y-7.737
X13.823Y-7.832
X13.823Y-8.162
X13.823Y-8.253
X13.823Y-8.381
X13.824Y-9.971
X13.874Y-7.137
X13.874Y-12.437
X13.875Y-7.626
X13.886Y-9.544
X13.914Y-8.559
X13.915Y-7.685
X13.939Y-7.578
X13.964Y-9.867
X14.044Y-7.685
X14.0517Y-7.338
X14.0637Y-7.533
X14.074Y-9.237
X14.074Y-10.437
X14.074Y-10.737
X14.074Y-11.037
X14.074Y-11.337
X14.074Y-11.637
X14.074Y-12.037
X14.086Y-10.104
X14.092Y-7.828
X14.092Y-8.216
X14.104Y-8.806
X14.1097Y-7.437
X14.166Y-8.425
X14.176Y-7.875
X14.177Y-8.17
X14.1786Y-8.914
X14.181Y-9.38
X14.184Y-9.901
X14.233Y-8.875
X14.235Y-8.952
X14.274Y-7.937
X14.274Y-8.337
X14.28Y-7.435
X14.305Y-9.525
X14.324Y-8.837
X14.331Y-10.204
X14.344Y-9.92
X14.374Y-8.987
X14.374Y-9.237
X14.374Y-12.437
X14.3965Y-9.6465
X14.417Y-7.569
X14.4315Y-9.454
X14.455Y-10.184
X14.458Y-7.928
X14.46Y-8.579
X14.474Y-7.137
X14.474Y-9.771
X14.474Y-10.737
X14.474Y-11.237
X14.482Y-10.071
X14.495Y-11.774
X14.504Y-9.592
X14.508Y-9.97
X14.524Y-8.837
X14.524Y-9.307
X14.526Y-10.036
X14.528Y-9.871
X14.533Y-9.797
X14.546Y-9.139
X14.55Y-9.375
X14.572Y-9.115
X14.588Y-7.415
X14.594Y-8.237
X14.596Y-8.054
X14.606Y-9.567
X14.624Y-9.635
X14.625Y-8.002
X14.6254Y-9.137
X14.626Y-10.255
X14.6315Y-7.9455
X14.655Y-9.569
X14.676Y-9.138
X14.685Y-9.372
X14.692Y-9.871
X14.704Y-9.97
X14.72Y-9.139
X14.724Y-9.037
X14.731Y-7.568
X14.753Y-9.645
X14.7645Y-9.567
X14.774Y-8.437
X14.774Y-11.937
X14.809Y-9.437
X14.8155Y-8.1905
X14.831Y-9.464
X14.837Y-10.737
X14.838Y-8.155
X14.852Y-8.532
X14.854Y-11.207
X14.862Y-10.358
X14.867Y-8.026
X14.874Y-8.837
X14.874Y-10.537
X14.874Y-12.437
X14.882Y-10.016
X14.901Y-7.763
X14.952Y-7.409
X14.974Y-10.937
X15.004Y-9.637
X15.014Y-9.837
X15.044Y-11.157
X15.074Y-7.137
X15.074Y-7.937
X15.074Y-8.637
X15.074Y-8.837
X15.074Y-11.337
X15.09Y-7.564
X15.098Y-11.105
X15.124Y-9.197
X15.134Y-10.527
X15.154Y-10.677
X15.171Y-10.451
X15.172Y-8.353
X15.174Y-10.237
X15.181Y-8.266
X15.184Y-9.727
X15.204Y-8.353
X15.204Y-9.987
X15.214Y-8.427
X15.219Y-11.208
X15.244Y-9.77
X15.247Y-11.522
X15.265Y-7.756
X15.274Y-8.837
X15.274Y-11.937
X15.277Y-8.349
X15.3008Y-10.5508
X15.301Y-9.046
X15.3018Y-8.5528
X15.312Y-8.731
X15.314Y-9.326
X15.333Y-11.27
X15.362Y-9.095
X15.374Y-9.537
X15.374Y-9.87
X15.374Y-12.437
X15.384Y-8.261
X15.393Y-8.353
X15.394Y-8.517
X15.419Y-10.549
X15.4455Y-11.3355
X15.454Y-11.425
X15.4543Y-8.5563
X15.474Y-7.937
X15.474Y-8.837
X15.488Y-9.195
X15.506Y-8.133
X15.512Y-8.353
X15.514Y-8.527
X15.567Y-11.587
X15.574Y-10.837
X15.575Y-7.53
X15.584Y-8.727
X15.594Y-11.923
X15.595Y-8.237
X15.598Y-11.522
X15.609Y-10.606
X15.619Y-8.353
X15.621Y-11.793
X15.634Y-8.527
X15.664Y-9.1762
X15.674Y-9.537
X15.674Y-10.237
X15.674Y-11.137
X15.687Y-10.476
X15.691Y-9.922
X15.694Y-11.407
X15.7075Y-9.3445
X15.753Y-8.142
X15.761Y-11.843
X15.772Y-9.787
X15.773Y-8.684
X15.773Y-11.328
X15.774Y-11.037
X15.774Y-12.437
X15.775Y-9.96
X15.789Y-8.855
X15.806Y-8.879
X15.811Y-8.934
X15.811Y-11.571
X15.812Y-11.509
X15.813Y-8.506
X15.844Y-8.67
X15.859Y-7.812
X15.864Y-8.831
X15.864Y-9.107
X15.8811Y-11.339
X15.883Y-8.7925
X15.883Y-11.505
X15.889Y-11.949
X15.894Y-11.183
X15.902Y-9.096
X15.911Y-8.776
X15.928Y-9.217
X15.945Y-8.857
X15.95Y-9.127
X15.953Y-11.18
X15.974Y-10.733
X15.976Y-7.436
X15.979Y-8.811
X15.983Y-10.941
X15.984Y-8.017
X15.985Y-7.814
X15.987Y-8.88
X15.9907Y-9.0474
X16.004Y-11.852
X16.005Y-10.184
X16.009Y-9.156
X16.024Y-8.437
X16.024Y-9.017
X16.024Y-9.869
X16.031Y-8.073
X16.046Y-11.983
X16.0555Y-10.6115
X16.065Y-8.719
X16.073Y-9.506
X16.074Y-12.437
X16.082Y-7.052
X16.0835Y-10.6827
X16.103Y-8.843
X16.104Y-8.957
X16.132Y-8.153
X16.154Y-10.397
X16.154Y-11.337
X16.156Y-8.601
X16.1595Y-10.2033
X16.1645Y-10.6817
X16.17Y-9.469
X16.174Y-9.737
X16.174Y-9.937
X16.184Y-8.407
X16.2Y-8.729
X16.21Y-10.1928
X16.214Y-11.506
X16.229Y-8.072
X16.233Y-8.628
X16.248Y-7.547
X16.2565Y-11.2565
X16.26Y-10.1938
X16.264Y-10.397
X16.271Y-10.923
X16.274Y-10.737
X16.283Y-7.814
X16.284Y-8.017
X16.287Y-7.276
X16.2998Y-11.1347
X16.301Y-9.356
X16.3028Y-9.0958
X16.303Y-9.155
X16.303Y-12.058
X16.305Y-9.187
X16.31Y-10.1928
X16.32Y-8.794
X16.341Y-11.256
X16.3453Y-9.0367
X16.346Y-8.775
X16.36Y-10.2038
X16.374Y-10.397
X16.396Y-8.866
X16.398Y-9.015
X16.4Y-11.005
X16.417Y-8.82
X16.423Y-8.893
X16.444Y-11.347
X16.448Y-9.013
X16.451Y-11.55
X16.467Y-10.611
X16.474Y-7.837
X16.474Y-8.137
X16.474Y-8.437
X16.474Y-8.837
X16.474Y-9.137
X16.474Y-9.337
X16.474Y-9.537
X16.474Y-9.737
X16.474Y-9.937
X16.474Y-10.737
X16.474Y-12.437
X16.485Y-11.662
X16.517Y-10.182
X16.574Y-11.237
X16.574Y-11.437
X16.579Y-11.525
T2
X16.122Y-11.4924
X16.122Y-11.5314
T3
X9.112Y-9.541
X9.114Y-9.588
X9.157Y-9.587
X9.1586Y-9.541
X10.0314Y-11.2255
X10.0314Y-11.2625
X10.0314Y-11.3005
X10.0774Y-11.2255
X10.0774Y-11.2625
X10.0774Y-11.3005
X10.1224Y-11.2255
X10.1224Y-11.2615
X10.1224Y-11.3005
X10.2314Y-11.2235
X10.2314Y-11.2615
X10.2314Y-11.2995
X10.2744Y-11.2995
X10.2754Y-11.2225
X10.2754Y-11.2605
X10.3194Y-11.2225
X10.3194Y-11.2595
X10.3194Y-11.2995
X11.109Y-9.307
X11.135Y-9.282
X11.16Y-9.254
X11.526Y-9.4494
X11.528Y-9.499
X12.5174Y-11.2405
X12.5174Y-11.2845
X12.5174Y-11.3325
X12.5624Y-11.2405
X12.5624Y-11.2845
X12.5624Y-11.3325
X12.6054Y-11.2405
X12.6054Y-11.2845
X12.6064Y-11.3325
X12.7204Y-11.2405
X12.7204Y-11.2845
X12.7204Y-11.3325
X12.7654Y-11.2405
X12.7654Y-11.2845
X12.7654Y-11.3325
X12.8084Y-11.2405
X12.8084Y-11.2845
X12.8094Y-11.3325
T4
X10.3234Y-10.099
X10.3706Y-10.099
X10.9178Y-9.074
X10.965Y-9.074
T5
X8.7495Y-9.991
X8.8282Y-9.991
X9.118Y-9.989
X9.1968Y-9.989
X10.504Y-9.771
X10.5828Y-9.771
X10.926Y-9.786
X11.0048Y-9.786
X11.6803Y-9.8406
X11.759Y-9.8406
X11.8328Y-8.7781
X11.8328Y-8.8569
X12.3264Y-9.6089
X12.3264Y-9.6877
T6
X16.617Y-11.786
T7
X12.46Y-7.683
X12.46Y-7.783
X12.46Y-7.883
X12.46Y-7.983
X12.46Y-8.083
X12.46Y-8.183
X12.56Y-8.554
X12.66Y-8.554
X12.76Y-8.554
X12.86Y-8.554
X12.96Y-8.554
T8
X11.395Y-7.045
X11.395Y-7.145
X11.495Y-7.045
X11.495Y-7.145
X11.595Y-7.045
X11.595Y-7.145
X11.695Y-7.045
X11.695Y-7.145
X11.795Y-7.045
X11.795Y-7.145
X11.895Y-7.045
X11.895Y-7.145
X11.995Y-7.045
X11.995Y-7.145
X12.095Y-7.045
X12.095Y-7.145
X12.195Y-7.045
X12.195Y-7.145
X12.295Y-7.045
X12.295Y-7.145
X12.395Y-7.045
X12.395Y-7.145
X12.495Y-7.045
X12.495Y-7.145
X12.595Y-7.045
X12.595Y-7.145
X12.695Y-7.045
X12.695Y-7.145
X12.795Y-7.045
X12.795Y-7.145
X12.895Y-7.045
X12.895Y-7.145
X12.995Y-7.045
X12.995Y-7.145
X13.095Y-7.045
X13.095Y-7.145
X13.195Y-7.045
X13.195Y-7.145
X13.295Y-7.045
X13.295Y-7.145
T9
X8.8481Y-9.541
X8.9481Y-9.541
X9.0481Y-9.541
X10.656Y-9.2165
X10.756Y-9.2165
X10.856Y-9.2165
T10
X11.0618Y-12.6022
X11.1618Y-12.6022
X11.7071Y-12.6016
X11.8071Y-12.6016
T11
X9.8654Y-10.5195
X9.8654Y-10.7341
X9.8654Y-10.9486
X10.4854Y-10.5195
X10.4854Y-10.7341
X10.4854Y-10.9486
X12.3554Y-10.5095
X12.3554Y-10.7241
X12.3554Y-10.9386
X12.9754Y-10.5095
X12.9754Y-10.7241
X12.9754Y-10.9386
T12
X16.399Y-7.0804
X16.399Y-7.356
T13
X9.9154Y-11.5895
X9.9154Y-11.8041
X9.9154Y-12.0186
X10.4354Y-11.5895
X10.4354Y-11.8041
X10.4354Y-12.0186
X12.4054Y-11.6304
X12.4054Y-11.8449
X12.4054Y-12.0595
X12.9254Y-11.6304
X12.9254Y-11.8449
X12.9254Y-12.0595
T14
X15.424Y-12.614
X15.5715Y-12.228
X15.5715Y-12.358
X15.5715Y-12.614
X15.719Y-12.614
X15.7805Y-12.299
X16.1125Y-12.614
X16.26Y-12.228
X16.26Y-12.358
X16.26Y-12.614
X16.4075Y-12.614
X16.469Y-12.299
T15
X8.2553Y-10.736
X8.2553Y-11.82
X8.649Y-10.736
X8.649Y-11.82
T16
X8.277Y-12.536
X8.477Y-12.536
X10.0204Y-12.5515
X10.3204Y-12.5515
X12.5074Y-12.5525
X12.8074Y-12.5525
T17
X8.4481Y-9.3775
X9.4481Y-9.3775
X10.256Y-9.38
X11.256Y-9.38
T18
X9.656Y-10.2856
X9.656Y-12.2934
X10.6954Y-10.2856
X10.6954Y-12.2934
X12.1457Y-10.2856
X12.1457Y-12.2934
X13.1851Y-10.2856
X13.1851Y-12.2934
T19
X8.475Y-7.936
X8.732Y-12.499
X9.651Y-10.019
X12.892Y-9.844
X14.822Y-12.236
X15.274Y-7.935
T20
X9.005Y-7.316
X15.684Y-7.318
M30
