%TF.GenerationSoftware,KiCad,Pcbnew,8.0.8*%
%TF.CreationDate,2025-05-17T22:55:18-04:00*%
%TF.ProjectId,amp board,616d7020-626f-4617-9264-2e6b69636164,rev?*%
%TF.SameCoordinates,Original*%
%TF.FileFunction,Paste,Bot*%
%TF.FilePolarity,Positive*%
%FSLAX46Y46*%
G04 Gerber Fmt 4.6, Leading zero omitted, Abs format (unit mm)*
G04 Created by KiCad (PCBNEW 8.0.8) date 2025-05-17 22:55:18*
%MOMM*%
%LPD*%
G01*
G04 APERTURE LIST*
%ADD10R,0.900000X1.000000*%
%ADD11R,0.650000X1.200000*%
%ADD12R,0.750000X0.940000*%
%ADD13R,1.700000X1.150000*%
%ADD14R,0.940000X0.750000*%
%ADD15R,1.470000X0.970000*%
%ADD16R,3.300000X1.190000*%
%ADD17R,1.000000X0.950000*%
%ADD18R,0.650000X0.900000*%
%ADD19R,0.600000X1.250000*%
%ADD20R,0.450000X0.600000*%
%ADD21R,0.950000X1.000000*%
%ADD22R,1.100000X1.000000*%
%ADD23R,0.600000X1.000000*%
%ADD24R,0.900000X0.650000*%
%ADD25R,0.600000X0.700000*%
%ADD26R,1.000000X1.100000*%
%ADD27R,0.650000X1.100000*%
%ADD28R,1.250000X0.600000*%
%ADD29R,0.950000X1.400000*%
%ADD30R,1.000000X0.900000*%
%ADD31R,2.250000X1.600000*%
%ADD32R,0.700000X0.600000*%
%ADD33R,3.350000X2.700000*%
%ADD34R,1.070000X1.820000*%
%ADD35R,0.800000X0.900000*%
%ADD36R,0.700000X1.650000*%
%ADD37R,3.500000X2.600000*%
%ADD38R,1.820000X1.070000*%
%ADD39R,0.300000X1.075000*%
%ADD40R,1.100000X0.650000*%
%ADD41R,5.700000X1.700000*%
%ADD42R,0.950000X0.950000*%
%ADD43R,0.850000X0.300000*%
%ADD44R,1.750000X2.500000*%
%ADD45R,0.435000X1.500000*%
%ADD46R,0.970000X1.470000*%
%ADD47R,1.750000X0.950000*%
%ADD48R,1.750000X3.200000*%
%ADD49R,1.015000X2.540000*%
%ADD50R,0.780000X0.980000*%
%ADD51R,3.500000X1.600000*%
%ADD52R,2.200000X2.150000*%
%ADD53R,0.675000X1.000000*%
%ADD54R,1.075000X0.300000*%
%ADD55R,1.525000X0.650000*%
%ADD56R,0.980000X0.780000*%
%ADD57R,0.640000X0.420000*%
%ADD58R,1.085000X0.550000*%
%ADD59R,1.050000X0.400000*%
%ADD60R,1.050000X1.800000*%
%ADD61R,2.500000X2.200000*%
%ADD62R,1.650000X1.700000*%
G04 APERTURE END LIST*
D10*
%TO.C,R58*%
X282765800Y-307111600D03*
X281165800Y-307111600D03*
%TD*%
D11*
%TO.C,Q6*%
X278607800Y-305011600D03*
X277647800Y-307111600D03*
X279567800Y-307111600D03*
%TD*%
D12*
%TO.C,C61*%
X246140600Y-235051800D03*
X244740600Y-235051800D03*
%TD*%
D13*
%TO.C,R242*%
X270646400Y-271819400D03*
X270646400Y-268819400D03*
%TD*%
D14*
%TO.C,C116*%
X418084400Y-226477800D03*
X418084400Y-227877800D03*
%TD*%
D15*
%TO.C,C205*%
X342705400Y-207120000D03*
X342705400Y-208780000D03*
%TD*%
D16*
%TO.C,VR6*%
X341472400Y-288557800D03*
X347872400Y-286017800D03*
X341472400Y-283477800D03*
%TD*%
D17*
%TO.C,C229*%
X332988400Y-285415400D03*
X332988400Y-287015400D03*
%TD*%
D18*
%TO.C,R237*%
X285604800Y-265214000D03*
X287054800Y-265214000D03*
%TD*%
D19*
%TO.C,C235*%
X238390400Y-195148400D03*
X236590400Y-195148400D03*
%TD*%
D20*
%TO.C,C124*%
X223668200Y-307256000D03*
X224618200Y-307256000D03*
%TD*%
D21*
%TO.C,C107*%
X387377600Y-267088000D03*
X385777600Y-267088000D03*
%TD*%
D22*
%TO.C,R38*%
X248834600Y-236575800D03*
X247534600Y-236575800D03*
%TD*%
D21*
%TO.C,C239*%
X238344400Y-196774000D03*
X236744400Y-196774000D03*
%TD*%
D14*
%TO.C,C150*%
X405333600Y-302503000D03*
X405333600Y-301103000D03*
%TD*%
D21*
%TO.C,C90*%
X391998400Y-232816600D03*
X390398400Y-232816600D03*
%TD*%
D12*
%TO.C,C207*%
X278651000Y-228295400D03*
X277251000Y-228295400D03*
%TD*%
D23*
%TO.C,Q5*%
X276809600Y-313379200D03*
X275854600Y-315779200D03*
X277764600Y-315779200D03*
%TD*%
D21*
%TO.C,C117*%
X353060200Y-249758400D03*
X351460200Y-249758400D03*
%TD*%
D24*
%TO.C,R33*%
X252290600Y-253377058D03*
X252290600Y-254827058D03*
%TD*%
D14*
%TO.C,C1*%
X402234800Y-298159600D03*
X402234800Y-296759600D03*
%TD*%
D12*
%TO.C,C57*%
X246202600Y-230225800D03*
X244802600Y-230225800D03*
%TD*%
D21*
%TO.C,C195*%
X214795400Y-289611000D03*
X213195400Y-289611000D03*
%TD*%
D25*
%TO.C,D64*%
X257669200Y-226695200D03*
X259069200Y-226695200D03*
%TD*%
D24*
%TO.C,R16*%
X280772000Y-277989400D03*
X280772000Y-279439400D03*
%TD*%
D21*
%TO.C,C240*%
X269676000Y-187645000D03*
X271276000Y-187645000D03*
%TD*%
D17*
%TO.C,C233*%
X294613600Y-274996600D03*
X294613600Y-276596600D03*
%TD*%
D24*
%TO.C,R151*%
X408547200Y-275825000D03*
X408547200Y-274375000D03*
%TD*%
D26*
%TO.C,R222*%
X274938000Y-228778000D03*
X274938000Y-230078000D03*
%TD*%
D27*
%TO.C,Q24*%
X299718600Y-286942600D03*
X297798600Y-286942600D03*
X298758600Y-284842600D03*
%TD*%
D24*
%TO.C,R29*%
X297815400Y-275373200D03*
X297815400Y-276823200D03*
%TD*%
D28*
%TO.C,C265*%
X229443200Y-220341400D03*
X229443200Y-218541400D03*
%TD*%
D21*
%TO.C,C214*%
X296980598Y-263139600D03*
X298580598Y-263139600D03*
%TD*%
%TO.C,C122*%
X226631800Y-296773800D03*
X225031800Y-296773800D03*
%TD*%
D26*
%TO.C,R42*%
X247534600Y-231495800D03*
X247534600Y-230195800D03*
%TD*%
%TO.C,R335*%
X276028600Y-270672600D03*
X276028600Y-271972600D03*
%TD*%
D28*
%TO.C,C230*%
X331210400Y-285233800D03*
X331210400Y-287033800D03*
%TD*%
D22*
%TO.C,R36*%
X257234600Y-244311458D03*
X255934600Y-244311458D03*
%TD*%
D26*
%TO.C,R337*%
X297383600Y-272410600D03*
X297383600Y-273710600D03*
%TD*%
D28*
%TO.C,C218*%
X272356400Y-283257400D03*
X272356400Y-285057400D03*
%TD*%
D29*
%TO.C,R325*%
X306391400Y-248755000D03*
X304491400Y-248755000D03*
%TD*%
D15*
%TO.C,C202*%
X337179400Y-207250000D03*
X337179400Y-208910000D03*
%TD*%
D16*
%TO.C,VR3*%
X239354400Y-288785400D03*
X245754400Y-286245400D03*
X239354400Y-283705400D03*
%TD*%
D22*
%TO.C,R228*%
X298280598Y-264663600D03*
X296980598Y-264663600D03*
%TD*%
D30*
%TO.C,R57*%
X339598400Y-219291200D03*
X339598400Y-220891200D03*
%TD*%
D17*
%TO.C,C223*%
X274447400Y-274968000D03*
X274447400Y-276568000D03*
%TD*%
D31*
%TO.C,D82*%
X293007400Y-244184600D03*
X297107400Y-244184600D03*
%TD*%
D13*
%TO.C,R235*%
X247075200Y-303671000D03*
X247075200Y-300671000D03*
%TD*%
D32*
%TO.C,D53*%
X252864000Y-235859700D03*
X252864000Y-234459700D03*
%TD*%
D28*
%TO.C,C53*%
X253162200Y-194008600D03*
X253162200Y-195808600D03*
%TD*%
D12*
%TO.C,C206*%
X345053400Y-205156000D03*
X346453400Y-205156000D03*
%TD*%
D26*
%TO.C,R283*%
X253441600Y-228767600D03*
X253441600Y-227467600D03*
%TD*%
D33*
%TO.C,R251*%
X319135000Y-290803200D03*
X319135000Y-295403200D03*
%TD*%
D22*
%TO.C,R324*%
X294265400Y-241519000D03*
X295565400Y-241519000D03*
%TD*%
D19*
%TO.C,C236*%
X269661200Y-189331800D03*
X271461200Y-189331800D03*
%TD*%
%TO.C,C253*%
X268289600Y-201828600D03*
X270089600Y-201828600D03*
%TD*%
D22*
%TO.C,R34*%
X256950600Y-250153458D03*
X258250600Y-250153458D03*
%TD*%
D21*
%TO.C,C255*%
X259631000Y-215477800D03*
X261231000Y-215477800D03*
%TD*%
%TO.C,C231*%
X296137600Y-273710600D03*
X294537600Y-273710600D03*
%TD*%
D22*
%TO.C,R327*%
X316759400Y-245961000D03*
X318059400Y-245961000D03*
%TD*%
D18*
%TO.C,R31*%
X300129000Y-256616400D03*
X298679000Y-256616400D03*
%TD*%
D34*
%TO.C,C190*%
X212048200Y-275133000D03*
X214808200Y-275133000D03*
%TD*%
D26*
%TO.C,R287*%
X256007000Y-227162800D03*
X256007000Y-228462800D03*
%TD*%
D35*
%TO.C,D24*%
X422072200Y-296215000D03*
X420172200Y-296215000D03*
X421122200Y-294215000D03*
%TD*%
D19*
%TO.C,C237*%
X276468600Y-215488850D03*
X278268600Y-215488850D03*
%TD*%
D34*
%TO.C,C191*%
X212048200Y-277393600D03*
X214808200Y-277393600D03*
%TD*%
D17*
%TO.C,C51*%
X251536600Y-193954600D03*
X251536600Y-195554600D03*
%TD*%
D21*
%TO.C,C285*%
X412610600Y-236891600D03*
X411010600Y-236891600D03*
%TD*%
D34*
%TO.C,C192*%
X212048200Y-279654200D03*
X214808200Y-279654200D03*
%TD*%
D28*
%TO.C,C219*%
X284105600Y-271871000D03*
X284105600Y-273671000D03*
%TD*%
D26*
%TO.C,R123*%
X343281400Y-222026200D03*
X343281400Y-220726200D03*
%TD*%
D17*
%TO.C,C273*%
X297597400Y-241519000D03*
X297597400Y-239919000D03*
%TD*%
D36*
%TO.C,IC30*%
X227913000Y-304960600D03*
X226643000Y-304960600D03*
X225373000Y-304960600D03*
X224103000Y-304960600D03*
X224103000Y-299610600D03*
X225373000Y-299610600D03*
X226643000Y-299610600D03*
X227913000Y-299610600D03*
D37*
X226008000Y-302285600D03*
%TD*%
D33*
%TO.C,R239*%
X255939800Y-289761800D03*
X255939800Y-294361800D03*
%TD*%
D26*
%TO.C,R267*%
X252864000Y-238734100D03*
X252864000Y-237434100D03*
%TD*%
D33*
%TO.C,R241*%
X260969000Y-289711000D03*
X260969000Y-294311000D03*
%TD*%
D13*
%TO.C,R234*%
X246872000Y-274128000D03*
X246872000Y-277128000D03*
%TD*%
D24*
%TO.C,R27*%
X279095600Y-279451000D03*
X279095600Y-278001000D03*
%TD*%
D13*
%TO.C,R254*%
X334044800Y-271057400D03*
X334044800Y-268057400D03*
%TD*%
D12*
%TO.C,C201*%
X336671400Y-204648000D03*
X335271400Y-204648000D03*
%TD*%
D22*
%TO.C,R148*%
X410579200Y-277894000D03*
X411879200Y-277894000D03*
%TD*%
D17*
%TO.C,C242*%
X256565800Y-236893400D03*
X256565800Y-238493400D03*
%TD*%
D38*
%TO.C,C49*%
X256950600Y-248629458D03*
X256950600Y-245869458D03*
%TD*%
D33*
%TO.C,R238*%
X255889000Y-278128600D03*
X255889000Y-282728600D03*
%TD*%
D39*
%TO.C,IC49*%
X257642000Y-234375700D03*
X257142000Y-234375700D03*
X256642000Y-234375700D03*
X256142000Y-234375700D03*
X255642000Y-234375700D03*
X255142000Y-234375700D03*
X254642000Y-234375700D03*
X254642000Y-231299700D03*
X255142000Y-231299700D03*
X255642000Y-231299700D03*
X256142000Y-231299700D03*
X256642000Y-231299700D03*
X257142000Y-231299700D03*
X257642000Y-231299700D03*
%TD*%
D14*
%TO.C,C156*%
X403658200Y-285492350D03*
X403658200Y-286892350D03*
%TD*%
D28*
%TO.C,C288*%
X372683600Y-233526800D03*
X372683600Y-235326800D03*
%TD*%
D13*
%TO.C,R243*%
X269859000Y-295895800D03*
X269859000Y-298895800D03*
%TD*%
D22*
%TO.C,R119*%
X220364400Y-309034000D03*
X221664400Y-309034000D03*
%TD*%
D17*
%TO.C,C282*%
X415030800Y-281527000D03*
X415030800Y-279927000D03*
%TD*%
D40*
%TO.C,Q18*%
X230768400Y-286611400D03*
X230768400Y-288531400D03*
X228668400Y-287571400D03*
%TD*%
D15*
%TO.C,C198*%
X341156000Y-198670000D03*
X341156000Y-197010000D03*
%TD*%
D19*
%TO.C,C284*%
X413000800Y-230276600D03*
X411200800Y-230276600D03*
%TD*%
D17*
%TO.C,C127*%
X241452800Y-316441800D03*
X241452800Y-314841800D03*
%TD*%
D34*
%TO.C,C121*%
X226805400Y-294665600D03*
X224045400Y-294665600D03*
%TD*%
D19*
%TO.C,C286*%
X412609000Y-238568000D03*
X410809000Y-238568000D03*
%TD*%
D39*
%TO.C,IC18*%
X256838600Y-255295600D03*
X256338600Y-255295600D03*
X255838600Y-255295600D03*
X255338600Y-255295600D03*
X254838600Y-255295600D03*
X254338600Y-255295600D03*
X253838600Y-255295600D03*
X253838600Y-252219600D03*
X254338600Y-252219600D03*
X254838600Y-252219600D03*
X255338600Y-252219600D03*
X255838600Y-252219600D03*
X256338600Y-252219600D03*
X256838600Y-252219600D03*
%TD*%
D21*
%TO.C,C232*%
X301118400Y-277485800D03*
X302718400Y-277485800D03*
%TD*%
D19*
%TO.C,C251*%
X241741600Y-207480000D03*
X239941600Y-207480000D03*
%TD*%
D15*
%TO.C,C154*%
X408547200Y-279858000D03*
X408547200Y-281518000D03*
%TD*%
D22*
%TO.C,R120*%
X223493200Y-309034000D03*
X224793200Y-309034000D03*
%TD*%
D28*
%TO.C,C276*%
X309281400Y-245983000D03*
X309281400Y-244183000D03*
%TD*%
D26*
%TO.C,R266*%
X261823600Y-234975600D03*
X261823600Y-233675600D03*
%TD*%
%TO.C,R279*%
X252864000Y-231127700D03*
X252864000Y-232427700D03*
%TD*%
D28*
%TO.C,C216*%
X232546400Y-286615400D03*
X232546400Y-288415400D03*
%TD*%
D41*
%TO.C,L2*%
X233999400Y-305623600D03*
X233999400Y-310123600D03*
%TD*%
D17*
%TO.C,C220*%
X285755200Y-272049000D03*
X285755200Y-273649000D03*
%TD*%
D26*
%TO.C,R44*%
X247534600Y-233751800D03*
X247534600Y-235051800D03*
%TD*%
D21*
%TO.C,C108*%
X389141000Y-250037800D03*
X387541000Y-250037800D03*
%TD*%
D26*
%TO.C,R48*%
X243470600Y-235275800D03*
X243470600Y-236575800D03*
%TD*%
D14*
%TO.C,C203*%
X338957400Y-207504000D03*
X338957400Y-208904000D03*
%TD*%
D28*
%TO.C,C136*%
X292837000Y-202636400D03*
X292837000Y-200836400D03*
%TD*%
D31*
%TO.C,D83*%
X307521400Y-251803000D03*
X303421400Y-251803000D03*
%TD*%
D21*
%TO.C,C222*%
X280170000Y-276443000D03*
X281770000Y-276443000D03*
%TD*%
%TO.C,C241*%
X276516200Y-213812450D03*
X278116200Y-213812450D03*
%TD*%
D17*
%TO.C,C123*%
X229907000Y-301350600D03*
X229907000Y-302950600D03*
%TD*%
D19*
%TO.C,C109*%
X387321600Y-268783000D03*
X385521600Y-268783000D03*
%TD*%
D24*
%TO.C,R150*%
X410579200Y-275825000D03*
X410579200Y-274375000D03*
%TD*%
D17*
%TO.C,C217*%
X274134400Y-283357400D03*
X274134400Y-284957400D03*
%TD*%
D14*
%TO.C,C17*%
X393869200Y-209051000D03*
X393869200Y-207651000D03*
%TD*%
D33*
%TO.C,R240*%
X260892800Y-278128600D03*
X260892800Y-282728600D03*
%TD*%
D10*
%TO.C,R55*%
X298666200Y-258318200D03*
X297066200Y-258318200D03*
%TD*%
D25*
%TO.C,D57*%
X259077200Y-229379700D03*
X257677200Y-229379700D03*
%TD*%
D17*
%TO.C,C137*%
X294488000Y-202628600D03*
X294488000Y-201028600D03*
%TD*%
D19*
%TO.C,C118*%
X353183200Y-251458000D03*
X351383200Y-251458000D03*
%TD*%
D40*
%TO.C,Q23*%
X270646400Y-283197400D03*
X270646400Y-285117400D03*
X268546400Y-284157400D03*
%TD*%
D14*
%TO.C,C157*%
X409486000Y-288972400D03*
X409486000Y-290372400D03*
%TD*%
D16*
%TO.C,VR4*%
X278892400Y-288493400D03*
X285292400Y-285953400D03*
X278892400Y-283413400D03*
%TD*%
D42*
%TO.C,LED25*%
X318263800Y-250469600D03*
X316763800Y-250469600D03*
%TD*%
D21*
%TO.C,C20*%
X385281400Y-285597800D03*
X383681400Y-285597800D03*
%TD*%
D17*
%TO.C,C224*%
X282270600Y-277713000D03*
X282270600Y-279313000D03*
%TD*%
D19*
%TO.C,C92*%
X392098400Y-234482600D03*
X390298400Y-234482600D03*
%TD*%
D17*
%TO.C,C287*%
X370956400Y-233536400D03*
X370956400Y-235136400D03*
%TD*%
D15*
%TO.C,C158*%
X405347800Y-285133750D03*
X405347800Y-286793750D03*
%TD*%
D26*
%TO.C,R271*%
X261772800Y-231917200D03*
X261772800Y-230617200D03*
%TD*%
D14*
%TO.C,C115*%
X407010000Y-226452400D03*
X407010000Y-227852400D03*
%TD*%
D13*
%TO.C,R255*%
X333359000Y-296835600D03*
X333359000Y-299835600D03*
%TD*%
D43*
%TO.C,U14*%
X281924000Y-271379000D03*
X281924000Y-271879000D03*
X281924000Y-272379000D03*
X281924000Y-272879000D03*
X281924000Y-273379000D03*
X278924000Y-273379000D03*
X278924000Y-272879000D03*
X278924000Y-272379000D03*
X278924000Y-271879000D03*
X278924000Y-271379000D03*
D44*
X280424000Y-272379000D03*
%TD*%
D43*
%TO.C,U15*%
X302872400Y-272421800D03*
X302872400Y-272921800D03*
X302872400Y-273421800D03*
X302872400Y-273921800D03*
X302872400Y-274421800D03*
X299872400Y-274421800D03*
X299872400Y-273921800D03*
X299872400Y-273421800D03*
X299872400Y-272921800D03*
X299872400Y-272421800D03*
D44*
X301372400Y-273421800D03*
%TD*%
D45*
%TO.C,IC36*%
X406705200Y-295072000D03*
X406071200Y-295072000D03*
X405435200Y-295072000D03*
X404801200Y-295072000D03*
X404165200Y-295072000D03*
X403531200Y-295072000D03*
X402895200Y-295072000D03*
X402261200Y-295072000D03*
X401625200Y-295072000D03*
X400991200Y-295072000D03*
X400355200Y-295072000D03*
X399721200Y-295072000D03*
X399721200Y-289672000D03*
X400355200Y-289672000D03*
X400991200Y-289672000D03*
X401625200Y-289672000D03*
X402261200Y-289672000D03*
X402895200Y-289672000D03*
X403531200Y-289672000D03*
X404165200Y-289672000D03*
X404801200Y-289672000D03*
X405435200Y-289672000D03*
X406071200Y-289672000D03*
X406705200Y-289672000D03*
%TD*%
D13*
%TO.C,R249*%
X310041800Y-305347400D03*
X310041800Y-302347400D03*
%TD*%
D46*
%TO.C,C200*%
X336931400Y-202870000D03*
X335271400Y-202870000D03*
%TD*%
D24*
%TO.C,R28*%
X277495400Y-275029200D03*
X277495400Y-276479200D03*
%TD*%
D17*
%TO.C,C234*%
X302565200Y-278778000D03*
X302565200Y-280378000D03*
%TD*%
D21*
%TO.C,C196*%
X214795400Y-288036200D03*
X213195400Y-288036200D03*
%TD*%
D17*
%TO.C,C225*%
X295964600Y-285331000D03*
X295964600Y-286931000D03*
%TD*%
D14*
%TO.C,C152*%
X407290400Y-287287550D03*
X407290400Y-285887550D03*
%TD*%
D22*
%TO.C,R149*%
X408547200Y-277894000D03*
X407247200Y-277894000D03*
%TD*%
D28*
%TO.C,C226*%
X293988600Y-285131000D03*
X293988600Y-286931000D03*
%TD*%
%TO.C,C168*%
X412344000Y-260576400D03*
X412344000Y-262376400D03*
%TD*%
D47*
%TO.C,IC56*%
X300253400Y-246191000D03*
X300253400Y-243891000D03*
X300253400Y-241591000D03*
D48*
X306553400Y-243891000D03*
%TD*%
D28*
%TO.C,C283*%
X413334600Y-281530400D03*
X413334600Y-279730400D03*
%TD*%
D22*
%TO.C,R41*%
X247758600Y-228701800D03*
X249058600Y-228701800D03*
%TD*%
D24*
%TO.C,R32*%
X250979200Y-253360258D03*
X250979200Y-254810258D03*
%TD*%
D21*
%TO.C,C34*%
X412775600Y-231902200D03*
X411175600Y-231902200D03*
%TD*%
D17*
%TO.C,C227*%
X306198400Y-273013800D03*
X306198400Y-274613800D03*
%TD*%
D24*
%TO.C,R231*%
X296875600Y-268399600D03*
X296875600Y-266949600D03*
%TD*%
D27*
%TO.C,Q29*%
X336686400Y-287515400D03*
X334766400Y-287515400D03*
X335726400Y-285415400D03*
%TD*%
D14*
%TO.C,C204*%
X340927400Y-207492000D03*
X340927400Y-208892000D03*
%TD*%
D22*
%TO.C,R147*%
X397477400Y-291635400D03*
X396177400Y-291635400D03*
%TD*%
D49*
%TO.C,L3*%
X399796400Y-302844400D03*
X397510400Y-302844400D03*
%TD*%
D17*
%TO.C,C177*%
X408858400Y-217081200D03*
X408858400Y-215481200D03*
%TD*%
D50*
%TO.C,C162*%
X411979200Y-272560000D03*
X410579200Y-272560000D03*
%TD*%
D34*
%TO.C,C194*%
X212048200Y-284175400D03*
X214808200Y-284175400D03*
%TD*%
D14*
%TO.C,C155*%
X409486000Y-295884200D03*
X409486000Y-294484200D03*
%TD*%
D26*
%TO.C,R336*%
X299862400Y-277469800D03*
X299862400Y-276169800D03*
%TD*%
D18*
%TO.C,R229*%
X298213598Y-265933600D03*
X296763598Y-265933600D03*
%TD*%
D24*
%TO.C,R236*%
X287054800Y-267934000D03*
X287054800Y-266484000D03*
%TD*%
D46*
%TO.C,C208*%
X344669400Y-203378000D03*
X346329400Y-203378000D03*
%TD*%
D26*
%TO.C,R275*%
X261772800Y-229123200D03*
X261772800Y-227823200D03*
%TD*%
D28*
%TO.C,C238*%
X254914800Y-236895000D03*
X254914800Y-238695000D03*
%TD*%
D12*
%TO.C,C59*%
X246140600Y-236575800D03*
X244740600Y-236575800D03*
%TD*%
D24*
%TO.C,R15*%
X275895200Y-275093800D03*
X275895200Y-276543800D03*
%TD*%
D17*
%TO.C,C167*%
X414122000Y-260638400D03*
X414122000Y-262238400D03*
%TD*%
D51*
%TO.C,C125*%
X233718600Y-316611200D03*
X228118600Y-316611200D03*
%TD*%
D22*
%TO.C,R35*%
X258728600Y-244311458D03*
X260028600Y-244311458D03*
%TD*%
D52*
%TO.C,D17*%
X232790000Y-301269600D03*
X237190000Y-301269600D03*
%TD*%
D53*
%TO.C,L1*%
X398143800Y-299542400D03*
X399467800Y-299542400D03*
%TD*%
D54*
%TO.C,IC20*%
X241672742Y-231265800D03*
X241672742Y-231765800D03*
X241672742Y-232265800D03*
X241672742Y-232765800D03*
X241672742Y-233265800D03*
X241672742Y-233765800D03*
X241672742Y-234265800D03*
X238596742Y-234265800D03*
X238596742Y-233765800D03*
X238596742Y-233265800D03*
X238596742Y-232765800D03*
X238596742Y-232265800D03*
X238596742Y-231765800D03*
X238596742Y-231265800D03*
%TD*%
D15*
%TO.C,C153*%
X410579200Y-279858000D03*
X410579200Y-281518000D03*
%TD*%
D19*
%TO.C,C54*%
X244382458Y-232003800D03*
X246182458Y-232003800D03*
%TD*%
D55*
%TO.C,IC45*%
X294338800Y-258864000D03*
X294338800Y-260134000D03*
X294338800Y-261404000D03*
X294338800Y-262674000D03*
X294338800Y-263944000D03*
X294338800Y-265214000D03*
X294338800Y-266484000D03*
X288914800Y-266484000D03*
X288914800Y-265214000D03*
X288914800Y-263944000D03*
X288914800Y-262674000D03*
X288914800Y-261404000D03*
X288914800Y-260134000D03*
X288914800Y-258864000D03*
%TD*%
D14*
%TO.C,C250*%
X251468400Y-232383300D03*
X251468400Y-230983300D03*
%TD*%
D56*
%TO.C,C247*%
X263272800Y-229150400D03*
X263272800Y-227750400D03*
%TD*%
D24*
%TO.C,R25*%
X301117400Y-278929200D03*
X301117400Y-280379200D03*
%TD*%
D26*
%TO.C,R334*%
X278876000Y-276457000D03*
X278876000Y-275157000D03*
%TD*%
D22*
%TO.C,R347*%
X316748800Y-248513800D03*
X318048800Y-248513800D03*
%TD*%
D17*
%TO.C,C215*%
X234324400Y-286715400D03*
X234324400Y-288315400D03*
%TD*%
D21*
%TO.C,C99*%
X365786800Y-252766800D03*
X367386800Y-252766800D03*
%TD*%
%TO.C,C254*%
X241579600Y-209118400D03*
X239979600Y-209118400D03*
%TD*%
D22*
%TO.C,R146*%
X410301600Y-297408800D03*
X409001600Y-297408800D03*
%TD*%
D34*
%TO.C,C193*%
X212048200Y-281914800D03*
X214808200Y-281914800D03*
%TD*%
D38*
%TO.C,C126*%
X239420800Y-316585800D03*
X239420800Y-313825800D03*
%TD*%
D50*
%TO.C,C161*%
X407147200Y-272560000D03*
X408547200Y-272560000D03*
%TD*%
D16*
%TO.C,VR5*%
X304504600Y-288455000D03*
X310904600Y-285915000D03*
X304504600Y-283375000D03*
%TD*%
D21*
%TO.C,C256*%
X268340400Y-200145600D03*
X269940400Y-200145600D03*
%TD*%
D33*
%TO.C,R250*%
X319236600Y-277900000D03*
X319236600Y-282500000D03*
%TD*%
D26*
%TO.C,R124*%
X341986000Y-222011200D03*
X341986000Y-220711200D03*
%TD*%
D12*
%TO.C,C56*%
X246456600Y-228701800D03*
X245056600Y-228701800D03*
%TD*%
D28*
%TO.C,C228*%
X304674400Y-272913800D03*
X304674400Y-274713800D03*
%TD*%
D38*
%TO.C,C50*%
X259236600Y-245869458D03*
X259236600Y-248629458D03*
%TD*%
D33*
%TO.C,R252*%
X324189600Y-277900000D03*
X324189600Y-282500000D03*
%TD*%
D57*
%TO.C,D65*%
X257630900Y-228016000D03*
X259130900Y-228016000D03*
%TD*%
D58*
%TO.C,D1*%
X277978000Y-320243400D03*
X275698000Y-320243400D03*
%TD*%
D59*
%TO.C,IC35*%
X401919800Y-300852800D03*
X401919800Y-300202800D03*
X401919800Y-299552800D03*
X403819800Y-299552800D03*
X403819800Y-300202800D03*
X403819800Y-300852800D03*
%TD*%
D28*
%TO.C,C130*%
X307950000Y-203198600D03*
X307950000Y-201398600D03*
%TD*%
D19*
%TO.C,C21*%
X385318400Y-283819800D03*
X383518400Y-283819800D03*
%TD*%
D13*
%TO.C,R248*%
X309610000Y-273797800D03*
X309610000Y-276797800D03*
%TD*%
D60*
%TO.C,R326*%
X291286600Y-247410400D03*
X294286600Y-247410400D03*
%TD*%
D28*
%TO.C,C178*%
X410616800Y-217130400D03*
X410616800Y-215330400D03*
%TD*%
D10*
%TO.C,R56*%
X275958800Y-317779600D03*
X277558800Y-317779600D03*
%TD*%
D17*
%TO.C,C264*%
X227758800Y-220354400D03*
X227758800Y-218754400D03*
%TD*%
D26*
%TO.C,R46*%
X243470600Y-229971800D03*
X243470600Y-228671800D03*
%TD*%
%TO.C,R349*%
X226617400Y-308399000D03*
X226617400Y-307099000D03*
%TD*%
D33*
%TO.C,R253*%
X324164200Y-290777800D03*
X324164200Y-295377800D03*
%TD*%
D24*
%TO.C,R30*%
X299517200Y-280430000D03*
X299517200Y-278980000D03*
%TD*%
D14*
%TO.C,C24*%
X370738800Y-207583200D03*
X370738800Y-206183200D03*
%TD*%
D21*
%TO.C,C52*%
X244404458Y-233527800D03*
X246004458Y-233527800D03*
%TD*%
%TO.C,C221*%
X276053800Y-273471200D03*
X274453800Y-273471200D03*
%TD*%
D19*
%TO.C,C111*%
X389241000Y-251561800D03*
X387441000Y-251561800D03*
%TD*%
D17*
%TO.C,C131*%
X306349800Y-203149400D03*
X306349800Y-201549400D03*
%TD*%
D19*
%TO.C,C213*%
X296980598Y-261361600D03*
X298780598Y-261361600D03*
%TD*%
D58*
%TO.C,D19*%
X299872600Y-316728900D03*
X297592600Y-316728900D03*
%TD*%
D22*
%TO.C,R233*%
X286800800Y-263944000D03*
X285500800Y-263944000D03*
%TD*%
D19*
%TO.C,C104*%
X365763800Y-251130000D03*
X367563800Y-251130000D03*
%TD*%
D24*
%TO.C,R26*%
X296139000Y-275246200D03*
X296139000Y-276696200D03*
%TD*%
D61*
%TO.C,IC40*%
X210164400Y-293702000D03*
X214864400Y-293702000D03*
%TD*%
D58*
%TO.C,D84*%
X283433000Y-316778500D03*
X281153000Y-316778500D03*
%TD*%
D19*
%TO.C,C252*%
X259555000Y-217178200D03*
X261355000Y-217178200D03*
%TD*%
D21*
%TO.C,C197*%
X214770000Y-286486800D03*
X213170000Y-286486800D03*
%TD*%
D62*
%TO.C,BR1*%
X210316200Y-304615600D03*
X215316200Y-304615600D03*
X215316200Y-313715600D03*
X210316200Y-313715600D03*
%TD*%
M02*
