%TF.GenerationSoftware,KiCad,Pcbnew,8.0.8*%
%TF.CreationDate,2025-05-17T22:16:50-04:00*%
%TF.ProjectId,control board,636f6e74-726f-46c2-9062-6f6172642e6b,rev?*%
%TF.SameCoordinates,Original*%
%TF.FileFunction,Paste,Top*%
%TF.FilePolarity,Positive*%
%FSLAX46Y46*%
G04 Gerber Fmt 4.6, Leading zero omitted, Abs format (unit mm)*
G04 Created by KiCad (PCBNEW 8.0.8) date 2025-05-17 22:16:50*
%MOMM*%
%LPD*%
G01*
G04 APERTURE LIST*
%ADD10R,0.900000X0.650000*%
%ADD11R,1.000000X1.100000*%
%ADD12R,0.640000X0.420000*%
%ADD13R,1.470000X0.970000*%
%ADD14R,0.940000X0.750000*%
%ADD15R,1.100000X1.000000*%
%ADD16R,0.650000X0.900000*%
%ADD17R,1.500000X1.100000*%
%ADD18R,1.500000X0.435000*%
%ADD19R,0.780000X0.980000*%
%ADD20R,1.650000X0.700000*%
%ADD21R,2.600000X3.500000*%
%ADD22R,1.600000X3.500000*%
%ADD23R,0.750000X0.940000*%
%ADD24R,0.500000X1.000000*%
%ADD25R,0.450000X0.600000*%
%ADD26R,2.150000X2.200000*%
%ADD27R,0.650000X1.100000*%
%ADD28R,1.500000X0.600000*%
%ADD29R,0.600000X1.500000*%
%ADD30R,2.790000X0.760000*%
%ADD31R,1.780000X1.780000*%
%ADD32R,1.000000X0.950000*%
%ADD33R,0.950000X1.000000*%
%ADD34R,1.820000X1.070000*%
%ADD35R,1.300000X1.550000*%
%ADD36R,0.650000X1.525000*%
%ADD37R,1.700000X5.700000*%
%ADD38R,1.350000X0.400000*%
%ADD39R,1.600000X2.100000*%
%ADD40R,1.900000X1.800000*%
%ADD41R,1.900000X1.900000*%
%ADD42R,1.250000X0.600000*%
%ADD43R,2.150000X2.250000*%
%ADD44R,0.970000X1.470000*%
%ADD45R,0.950000X0.950000*%
G04 APERTURE END LIST*
D10*
%TO.C,R70*%
X517271400Y-226122500D03*
X517271400Y-227572500D03*
%TD*%
D11*
%TO.C,R29*%
X424130200Y-273026600D03*
X424130200Y-271726600D03*
%TD*%
D10*
%TO.C,R69*%
X505841400Y-226166500D03*
X505841400Y-227616500D03*
%TD*%
D12*
%TO.C,D16*%
X537139400Y-233464300D03*
X538639400Y-233464300D03*
%TD*%
D13*
%TO.C,C68*%
X512445400Y-217053500D03*
X512445400Y-215393500D03*
%TD*%
D14*
%TO.C,C27*%
X458234200Y-273268600D03*
X458234200Y-271868600D03*
%TD*%
D15*
%TO.C,R64*%
X518516000Y-210998000D03*
X519816000Y-210998000D03*
%TD*%
D16*
%TO.C,R68*%
X516255400Y-224053500D03*
X514805400Y-224053500D03*
%TD*%
D15*
%TO.C,R3*%
X411417000Y-291285900D03*
X410117000Y-291285900D03*
%TD*%
D17*
%TO.C,S3*%
X552499400Y-227622300D03*
X543599400Y-227622300D03*
%TD*%
D14*
%TO.C,C40*%
X411244200Y-273138600D03*
X411244200Y-271738600D03*
%TD*%
D13*
%TO.C,C44*%
X418187000Y-208348800D03*
X418187000Y-206688800D03*
%TD*%
D18*
%TO.C,IC13*%
X447980200Y-269772600D03*
X447980200Y-269138600D03*
X447980200Y-268502600D03*
X447980200Y-267868600D03*
X447980200Y-267232600D03*
X447980200Y-266598600D03*
X447980200Y-265962600D03*
X447980200Y-265328600D03*
X447980200Y-264692600D03*
X447980200Y-264058600D03*
X447980200Y-263422600D03*
X447980200Y-262788600D03*
X442580200Y-262788600D03*
X442580200Y-263422600D03*
X442580200Y-264058600D03*
X442580200Y-264692600D03*
X442580200Y-265328600D03*
X442580200Y-265962600D03*
X442580200Y-266598600D03*
X442580200Y-267232600D03*
X442580200Y-267868600D03*
X442580200Y-268502600D03*
X442580200Y-269138600D03*
X442580200Y-269772600D03*
%TD*%
D19*
%TO.C,C76*%
X515239400Y-233749500D03*
X513839400Y-233749500D03*
%TD*%
D13*
%TO.C,C67*%
X510413400Y-217053500D03*
X510413400Y-215393500D03*
%TD*%
D15*
%TO.C,R31*%
X439049800Y-202336600D03*
X440349800Y-202336600D03*
%TD*%
D10*
%TO.C,R65*%
X507873400Y-222790500D03*
X507873400Y-221340500D03*
%TD*%
D20*
%TO.C,IC1*%
X413687000Y-287159900D03*
X413687000Y-288429900D03*
X413687000Y-289699900D03*
X413687000Y-290969900D03*
X419037000Y-290969900D03*
X419037000Y-289699900D03*
X419037000Y-288429900D03*
X419037000Y-287159900D03*
D21*
X416362000Y-289064900D03*
%TD*%
D22*
%TO.C,C7*%
X404559000Y-281228900D03*
X404559000Y-286828900D03*
%TD*%
D13*
%TO.C,C42*%
X427500200Y-273528600D03*
X427500200Y-271868600D03*
%TD*%
D15*
%TO.C,R2*%
X414861000Y-292809900D03*
X413561000Y-292809900D03*
%TD*%
D10*
%TO.C,R71*%
X504114200Y-230721100D03*
X504114200Y-232171100D03*
%TD*%
D11*
%TO.C,R73*%
X532301400Y-230528300D03*
X532301400Y-231828300D03*
%TD*%
D23*
%TO.C,C74*%
X517333400Y-228923500D03*
X518733400Y-228923500D03*
%TD*%
D18*
%TO.C,IC16*%
X417594200Y-269708600D03*
X417594200Y-269074600D03*
X417594200Y-268438600D03*
X417594200Y-267804600D03*
X417594200Y-267168600D03*
X417594200Y-266534600D03*
X417594200Y-265898600D03*
X417594200Y-265264600D03*
X417594200Y-264628600D03*
X417594200Y-263994600D03*
X417594200Y-263358600D03*
X417594200Y-262724600D03*
X412194200Y-262724600D03*
X412194200Y-263358600D03*
X412194200Y-263994600D03*
X412194200Y-264628600D03*
X412194200Y-265264600D03*
X412194200Y-265898600D03*
X412194200Y-266534600D03*
X412194200Y-267168600D03*
X412194200Y-267804600D03*
X412194200Y-268438600D03*
X412194200Y-269074600D03*
X412194200Y-269708600D03*
%TD*%
D24*
%TO.C,Q11*%
X438649000Y-206618800D03*
X437349000Y-206618800D03*
X437999000Y-208618800D03*
%TD*%
D15*
%TO.C,R63*%
X518516000Y-209728000D03*
X519816000Y-209728000D03*
%TD*%
D25*
%TO.C,C6*%
X411417000Y-292809900D03*
X410467000Y-292809900D03*
%TD*%
D24*
%TO.C,Q8*%
X430267000Y-206586800D03*
X428967000Y-206586800D03*
X429617000Y-208586800D03*
%TD*%
D26*
%TO.C,D1*%
X420815000Y-282755900D03*
X420815000Y-278355900D03*
%TD*%
D19*
%TO.C,C70*%
X513591400Y-222573500D03*
X512191400Y-222573500D03*
%TD*%
D15*
%TO.C,R80*%
X546887800Y-239255500D03*
X548187800Y-239255500D03*
%TD*%
D27*
%TO.C,D15*%
X550272400Y-236004300D03*
X552192400Y-236004300D03*
X551232400Y-233904300D03*
%TD*%
D24*
%TO.C,Q6*%
X424679000Y-206586800D03*
X423379000Y-206586800D03*
X424029000Y-208586800D03*
%TD*%
D28*
%TO.C,IC21*%
X522621500Y-200854000D03*
X522621500Y-201854000D03*
X522621500Y-202854000D03*
X522621500Y-203854000D03*
X522621500Y-204854000D03*
X522621500Y-205854000D03*
X522621500Y-206854000D03*
X522621500Y-207854000D03*
X522621500Y-208854000D03*
X522621500Y-209854000D03*
X522621500Y-210854000D03*
X522621500Y-211854000D03*
X522621500Y-212854000D03*
X522621500Y-213854000D03*
X522621500Y-214854000D03*
X522621500Y-215854000D03*
X522621500Y-216854000D03*
X522621500Y-217854000D03*
X522621500Y-218854000D03*
X522621500Y-219854000D03*
D29*
X525371500Y-221504000D03*
X526371500Y-221504000D03*
X527371500Y-221504000D03*
X528371500Y-221504000D03*
X529371500Y-221504000D03*
X530371500Y-221504000D03*
X531371500Y-221504000D03*
X532371500Y-221504000D03*
X533371500Y-221504000D03*
X534371500Y-221504000D03*
D28*
X537121500Y-219854000D03*
X537121500Y-218854000D03*
X537121500Y-217854000D03*
X537121500Y-216854000D03*
X537121500Y-215854000D03*
X537121500Y-214854000D03*
X537121500Y-213854000D03*
X537121500Y-212854000D03*
X537121500Y-211854000D03*
X537121500Y-210854000D03*
X537121500Y-209854000D03*
X537121500Y-208854000D03*
X537121500Y-207854000D03*
X537121500Y-206854000D03*
X537121500Y-205854000D03*
X537121500Y-204854000D03*
X537121500Y-203854000D03*
X537121500Y-202854000D03*
X537121500Y-201854000D03*
X537121500Y-200854000D03*
D30*
X526581500Y-201174000D03*
D31*
X534641500Y-211284000D03*
%TD*%
D32*
%TO.C,C4*%
X421442000Y-288518900D03*
X421442000Y-290118900D03*
%TD*%
D24*
%TO.C,Q5*%
X421855000Y-206586800D03*
X420555000Y-206586800D03*
X421205000Y-208586800D03*
%TD*%
D11*
%TO.C,R26*%
X396562200Y-273333600D03*
X396562200Y-272033600D03*
%TD*%
D19*
%TO.C,C71*%
X509267400Y-222573500D03*
X510667400Y-222573500D03*
%TD*%
D14*
%TO.C,C41*%
X425654200Y-273076600D03*
X425654200Y-271676600D03*
%TD*%
D19*
%TO.C,C69*%
X553067400Y-209812300D03*
X551667400Y-209812300D03*
%TD*%
D11*
%TO.C,R60*%
X546779400Y-213226300D03*
X546779400Y-214526300D03*
%TD*%
D33*
%TO.C,C5*%
X417043000Y-285381900D03*
X415443000Y-285381900D03*
%TD*%
D14*
%TO.C,C72*%
X528650600Y-231878300D03*
X528650600Y-230478300D03*
%TD*%
D15*
%TO.C,R55*%
X510667400Y-218509500D03*
X509367400Y-218509500D03*
%TD*%
D11*
%TO.C,R27*%
X439946200Y-272964600D03*
X439946200Y-271664600D03*
%TD*%
%TO.C,R59*%
X546779400Y-216162300D03*
X546779400Y-217462300D03*
%TD*%
D15*
%TO.C,R76*%
X540685600Y-221272300D03*
X541985600Y-221272300D03*
%TD*%
D24*
%TO.C,Q7*%
X427443000Y-206586800D03*
X426143000Y-206586800D03*
X426793000Y-208586800D03*
%TD*%
D18*
%TO.C,IC12*%
X464076200Y-269708600D03*
X464076200Y-269074600D03*
X464076200Y-268438600D03*
X464076200Y-267804600D03*
X464076200Y-267168600D03*
X464076200Y-266534600D03*
X464076200Y-265898600D03*
X464076200Y-265264600D03*
X464076200Y-264628600D03*
X464076200Y-263994600D03*
X464076200Y-263358600D03*
X464076200Y-262724600D03*
X458676200Y-262724600D03*
X458676200Y-263358600D03*
X458676200Y-263994600D03*
X458676200Y-264628600D03*
X458676200Y-265264600D03*
X458676200Y-265898600D03*
X458676200Y-266534600D03*
X458676200Y-267168600D03*
X458676200Y-267804600D03*
X458676200Y-268438600D03*
X458676200Y-269074600D03*
X458676200Y-269708600D03*
%TD*%
D34*
%TO.C,C3*%
X423474000Y-288556900D03*
X423474000Y-291316900D03*
%TD*%
D11*
%TO.C,R28*%
X409720200Y-273168600D03*
X409720200Y-271868600D03*
%TD*%
D32*
%TO.C,C77*%
X510515000Y-234253500D03*
X510515000Y-235853500D03*
%TD*%
D11*
%TO.C,R61*%
X527177400Y-231777500D03*
X527177400Y-230477500D03*
%TD*%
D35*
%TO.C,S4*%
X549863400Y-221915300D03*
X554363400Y-221915300D03*
X549863400Y-213965300D03*
X554363400Y-213965300D03*
%TD*%
D19*
%TO.C,C75*%
X507579800Y-233749500D03*
X508979800Y-233749500D03*
%TD*%
D23*
%TO.C,C80*%
X521905400Y-230060700D03*
X523305400Y-230060700D03*
%TD*%
D13*
%TO.C,C38*%
X413022200Y-273460600D03*
X413022200Y-271800600D03*
%TD*%
D15*
%TO.C,R77*%
X540653400Y-219748300D03*
X541953400Y-219748300D03*
%TD*%
%TO.C,R56*%
X512191400Y-218509500D03*
X513491400Y-218509500D03*
%TD*%
D24*
%TO.C,Q9*%
X433061000Y-206602800D03*
X431761000Y-206602800D03*
X432411000Y-208602800D03*
%TD*%
D10*
%TO.C,R57*%
X510667400Y-219779500D03*
X510667400Y-221229500D03*
%TD*%
%TO.C,R74*%
X505638200Y-230721100D03*
X505638200Y-232171100D03*
%TD*%
D13*
%TO.C,C28*%
X460012200Y-273460600D03*
X460012200Y-271800600D03*
%TD*%
D11*
%TO.C,R79*%
X535603400Y-233464300D03*
X535603400Y-232164300D03*
%TD*%
D16*
%TO.C,R67*%
X506423400Y-224053500D03*
X507873400Y-224053500D03*
%TD*%
D34*
%TO.C,C2*%
X426014000Y-288556900D03*
X426014000Y-291316900D03*
%TD*%
D13*
%TO.C,C33*%
X399864200Y-273625600D03*
X399864200Y-271965600D03*
%TD*%
D11*
%TO.C,R25*%
X456710200Y-273168600D03*
X456710200Y-271868600D03*
%TD*%
D24*
%TO.C,Q12*%
X441443000Y-206602800D03*
X440143000Y-206602800D03*
X440793000Y-208602800D03*
%TD*%
D14*
%TO.C,C31*%
X441470200Y-273076600D03*
X441470200Y-271676600D03*
%TD*%
D12*
%TO.C,D13*%
X532543400Y-233464300D03*
X531043400Y-233464300D03*
%TD*%
D10*
%TO.C,R72*%
X519151000Y-230591900D03*
X519151000Y-232041900D03*
%TD*%
D36*
%TO.C,IC22*%
X507619400Y-231553500D03*
X508889400Y-231553500D03*
X510159400Y-231553500D03*
X511429400Y-231553500D03*
X512699400Y-231553500D03*
X513969400Y-231553500D03*
X515239400Y-231553500D03*
X515239400Y-226129500D03*
X513969400Y-226129500D03*
X512699400Y-226129500D03*
X511429400Y-226129500D03*
X510159400Y-226129500D03*
X508889400Y-226129500D03*
X507619400Y-226129500D03*
%TD*%
D13*
%TO.C,C32*%
X443248200Y-273398600D03*
X443248200Y-271738600D03*
%TD*%
D18*
%TO.C,IC15*%
X431564200Y-269708600D03*
X431564200Y-269074600D03*
X431564200Y-268438600D03*
X431564200Y-267804600D03*
X431564200Y-267168600D03*
X431564200Y-266534600D03*
X431564200Y-265898600D03*
X431564200Y-265264600D03*
X431564200Y-264628600D03*
X431564200Y-263994600D03*
X431564200Y-263358600D03*
X431564200Y-262724600D03*
X426164200Y-262724600D03*
X426164200Y-263358600D03*
X426164200Y-263994600D03*
X426164200Y-264628600D03*
X426164200Y-265264600D03*
X426164200Y-265898600D03*
X426164200Y-266534600D03*
X426164200Y-267168600D03*
X426164200Y-267804600D03*
X426164200Y-268438600D03*
X426164200Y-269074600D03*
X426164200Y-269708600D03*
%TD*%
D14*
%TO.C,C35*%
X398086200Y-273179600D03*
X398086200Y-271779600D03*
%TD*%
D37*
%TO.C,L1*%
X415953000Y-280301900D03*
X411453000Y-280301900D03*
%TD*%
D38*
%TO.C,J1*%
X554653400Y-238584300D03*
X554653400Y-237934300D03*
X554653400Y-237284300D03*
X554653400Y-236634300D03*
X554653400Y-235984300D03*
D39*
X554778400Y-240384300D03*
X554778400Y-234184300D03*
D40*
X557328400Y-241084300D03*
D41*
X557328400Y-238484300D03*
X557328400Y-236084300D03*
D40*
X557328400Y-233484300D03*
%TD*%
D11*
%TO.C,R78*%
X534079400Y-233464300D03*
X534079400Y-232164300D03*
%TD*%
D10*
%TO.C,R75*%
X517627000Y-230554900D03*
X517627000Y-232004900D03*
%TD*%
D42*
%TO.C,C78*%
X512140600Y-234153500D03*
X512140600Y-235953500D03*
%TD*%
D43*
%TO.C,D14*%
X546914400Y-236766300D03*
X546914400Y-232366300D03*
%TD*%
D15*
%TO.C,R4*%
X394287000Y-282587900D03*
X392987000Y-282587900D03*
%TD*%
D10*
%TO.C,R58*%
X512191400Y-219779500D03*
X512191400Y-221229500D03*
%TD*%
D24*
%TO.C,Q10*%
X435855000Y-206602800D03*
X434555000Y-206602800D03*
X435205000Y-208602800D03*
%TD*%
D10*
%TO.C,R66*%
X514985400Y-222790500D03*
X514985400Y-221340500D03*
%TD*%
D12*
%TO.C,D12*%
X551617400Y-211336300D03*
X553117400Y-211336300D03*
%TD*%
D11*
%TO.C,R62*%
X530225400Y-231828300D03*
X530225400Y-230528300D03*
%TD*%
D34*
%TO.C,C8*%
X396685000Y-282731900D03*
X396685000Y-285491900D03*
%TD*%
D44*
%TO.C,C79*%
X521673800Y-231838700D03*
X523333800Y-231838700D03*
%TD*%
D23*
%TO.C,C73*%
X505841400Y-229177500D03*
X504441400Y-229177500D03*
%TD*%
D32*
%TO.C,C9*%
X398717000Y-282765900D03*
X398717000Y-284365900D03*
%TD*%
D18*
%TO.C,IC14*%
X404640200Y-269708600D03*
X404640200Y-269074600D03*
X404640200Y-268438600D03*
X404640200Y-267804600D03*
X404640200Y-267168600D03*
X404640200Y-266534600D03*
X404640200Y-265898600D03*
X404640200Y-265264600D03*
X404640200Y-264628600D03*
X404640200Y-263994600D03*
X404640200Y-263358600D03*
X404640200Y-262724600D03*
X399240200Y-262724600D03*
X399240200Y-263358600D03*
X399240200Y-263994600D03*
X399240200Y-264628600D03*
X399240200Y-265264600D03*
X399240200Y-265898600D03*
X399240200Y-266534600D03*
X399240200Y-267168600D03*
X399240200Y-267804600D03*
X399240200Y-268438600D03*
X399240200Y-269074600D03*
X399240200Y-269708600D03*
%TD*%
D15*
%TO.C,R1*%
X435219000Y-288569600D03*
X433919000Y-288569600D03*
%TD*%
D45*
%TO.C,LED5*%
X435889800Y-202336600D03*
X437389800Y-202336600D03*
%TD*%
M02*
