M48
; DRILL file {KiCad 8.0.8} date 2025-05-17T22:16:55-0400
; FORMAT={-:-/ absolute / inch / decimal}
; #@! TF.CreationDate,2025-05-17T22:16:55-04:00
; #@! TF.GenerationSoftware,Kicad,Pcbnew,8.0.8
; #@! TF.FileFunction,Plated,1,4,PTH
FMAT,2
INCH
; #@! TA.AperFunction,Plated,PTH,ViaDrill
T1C0.0120
; #@! TA.AperFunction,Plated,PTH,ComponentDrill
T2C0.0276
; #@! TA.AperFunction,Plated,PTH,ComponentDrill
T3C0.0295
; #@! TA.AperFunction,Plated,PTH,ComponentDrill
T4C0.0315
; #@! TA.AperFunction,Plated,PTH,ComponentDrill
T5C0.0358
; #@! TA.AperFunction,Plated,PTH,ComponentDrill
T6C0.0417
; #@! TA.AperFunction,Plated,PTH,ComponentDrill
T7C0.0433
; #@! TA.AperFunction,Plated,PTH,ComponentDrill
T8C0.0512
; #@! TA.AperFunction,Plated,PTH,ComponentDrill
T9C0.1171
; #@! TA.AperFunction,Plated,PTH,ComponentDrill
T10C0.1457
%
G90
G05
T1
X12.204Y-8.787
X12.374Y-8.187
X12.374Y-8.937
X12.374Y-9.437
X12.374Y-9.937
X12.374Y-10.437
X12.374Y-10.937
X12.374Y-11.437
X12.5424Y-10.5817
X12.5788Y-8.7782
X12.6886Y-8.6214
X12.7366Y-10.5824
X12.781Y-9.879
X12.874Y-8.187
X12.874Y-8.937
X12.874Y-9.437
X12.874Y-9.937
X12.874Y-10.437
X12.874Y-10.937
X12.874Y-11.437
X13.2804Y-9.5097
X13.281Y-10.379
X13.301Y-8.6994
X13.368Y-10.603
X13.374Y-8.187
X13.374Y-8.937
X13.374Y-10.437
X13.374Y-10.937
X13.374Y-11.437
X13.3745Y-9.5138
X13.417Y-8.6674
X13.874Y-8.187
X13.874Y-8.937
X13.874Y-9.437
X13.874Y-9.937
X13.874Y-10.437
X13.874Y-10.937
X13.874Y-11.437
X14.115Y-8.7054
X14.227Y-8.6674
X14.374Y-8.187
X14.374Y-8.937
X14.374Y-9.437
X14.374Y-9.937
X14.374Y-10.437
X14.374Y-10.937
X14.374Y-11.437
X14.874Y-8.187
X14.874Y-8.687
X14.874Y-9.187
X14.874Y-9.687
X14.874Y-10.437
X14.874Y-10.937
X14.874Y-11.437
X15.349Y-10.569
X15.374Y-8.187
X15.374Y-8.687
X15.374Y-9.187
X15.374Y-9.687
X15.374Y-11.437
X15.4025Y-11.0429
X15.4025Y-11.0729
X15.4375Y-11.0429
X15.4375Y-11.0729
X15.4725Y-11.0429
X15.4725Y-11.0729
X15.4853Y-10.312
X15.489Y-10.178
X15.509Y-10.34
X15.541Y-10.358
X15.5813Y-10.3657
X15.591Y-10.55
X15.593Y-10.496
X15.6028Y-10.5235
X15.615Y-11.3215
X15.619Y-10.368
X15.647Y-10.544
X15.655Y-10.3435
X15.674Y-10.827
X15.705Y-11.2715
X15.705Y-11.3815
X15.824Y-11.347
X15.8284Y-10.702
X15.917Y-10.114
X15.935Y-11.4315
X15.944Y-9.507
X15.944Y-9.807
X15.974Y-8.837
X15.995Y-10.398
X15.999Y-10.148
X16.003Y-10.368
X16.0044Y-10.569
X16.007Y-10.516
X16.034Y-11.347
X16.057Y-10.414
X16.059Y-10.058
X16.081Y-10.436
X16.107Y-10.455
X16.131Y-10.478
X16.134Y-9.317
X16.144Y-9.147
X16.165Y-10.54
X16.169Y-10.354
X16.194Y-10.817
X16.215Y-11.4055
X16.274Y-8.637
X16.274Y-8.837
X16.283Y-10.358
X16.299Y-10.4175
X16.299Y-10.45
X16.319Y-10.116
X16.337Y-8.137
X16.3504Y-10.701
X16.363Y-8.1374
X16.389Y-8.1374
X16.425Y-11.5215
X16.439Y-8.85
X16.469Y-10.038
X16.494Y-10.867
X16.4975Y-11.5179
X16.499Y-10.668
X16.505Y-10.604
X16.5164Y-10.569
X16.527Y-10.516
X16.539Y-8.854
X16.5575Y-11.3179
X16.574Y-8.637
X16.585Y-11.5115
X16.59Y-10.3755
X16.5904Y-10.4076
X16.6128Y-10.4261
X16.6282Y-10.4506
X16.6472Y-10.4726
X16.664Y-10.987
X16.671Y-10.4891
X16.671Y-10.63
X16.675Y-11.5415
X16.6848Y-10.579
X16.693Y-10.508
X16.695Y-10.059
X16.723Y-10.516
X16.747Y-8.337
X16.764Y-10.807
X16.774Y-8.637
X16.774Y-8.837
X16.775Y-11.5415
X16.849Y-7.999
X16.854Y-10.497
X16.856Y-8.402
X16.874Y-7.979
X16.874Y-10.057
X16.894Y-10.167
X16.899Y-7.999
X16.901Y-10.702
X16.91Y-8.408
X16.915Y-10.1
X16.924Y-7.979
X16.935Y-11.5415
X16.949Y-7.999
X16.974Y-7.979
X16.974Y-8.637
X16.974Y-8.837
X16.9895Y-8.4185
X16.992Y-8.543
X16.999Y-7.999
X17.024Y-7.979
X17.033Y-8.381
X17.063Y-10.516
X17.074Y-10.937
X17.093Y-10.569
X17.1027Y-7.966
X17.111Y-8.348
X17.1185Y-10.126
X17.141Y-10.524
X17.1415Y-10.166
X17.174Y-8.837
X17.186Y-8.3
X17.227Y-8.299
X17.266Y-8.299
X17.274Y-8.637
X17.294Y-10.057
X17.325Y-11.2915
X17.325Y-11.5215
X17.337Y-8.011
X17.341Y-10.239
X17.341Y-10.541
X17.361Y-10.112
X17.384Y-10.807
X17.415Y-11.5215
X17.474Y-8.837
X17.474Y-10.937
X17.5344Y-10.699
X17.543Y-10.028
X17.553Y-10.418
X17.557Y-8.9957
X17.574Y-8.637
X17.5768Y-10.3503
X17.579Y-10.39
X17.655Y-11.2915
X17.7002Y-10.3475
X17.709Y-10.138
X17.709Y-10.258
X17.714Y-10.057
X17.715Y-11.5215
X17.7164Y-10.569
X17.719Y-10.521
X17.723Y-10.49
X17.7469Y-10.465
X17.765Y-10.442
X17.774Y-8.737
X17.789Y-10.416
X17.874Y-8.637
X17.874Y-10.937
X17.874Y-11.137
X17.919Y-10.414
X17.979Y-10.338
X17.9885Y-10.5435
X17.995Y-10.368
X18.009Y-10.114
X18.044Y-10.817
X18.074Y-8.737
X18.134Y-10.027
X18.174Y-8.637
X18.174Y-11.237
X18.191Y-10.153
X18.1924Y-10.7008
X18.213Y-10.176
X18.265Y-11.2815
X18.315Y-11.5215
X18.335Y-10.5205
X18.3485Y-10.5845
X18.353Y-10.494
X18.3576Y-10.557
X18.373Y-10.468
X18.374Y-8.187
X18.374Y-8.437
X18.374Y-8.687
X18.385Y-11.2815
X18.399Y-10.455
X18.415Y-11.5215
X18.423Y-10.124
X18.424Y-10.937
X18.424Y-11.117
X18.4257Y-10.4437
X18.448Y-10.4252
X18.4695Y-10.4058
X18.479Y-10.158
X18.4887Y-10.3841
X18.489Y-10.478
X18.564Y-11.187
X18.574Y-10.697
X18.594Y-11.287
X18.654Y-10.897
X18.764Y-10.477
X18.874Y-8.187
X18.874Y-8.437
X18.874Y-8.687
X18.874Y-9.187
X18.874Y-9.687
X18.874Y-10.187
X18.874Y-10.687
X18.988Y-11.204
X18.994Y-11.287
X19.074Y-11.087
X19.084Y-10.477
X19.245Y-11.4135
X19.273Y-11.203
X19.374Y-8.187
X19.374Y-8.437
X19.374Y-8.687
X19.374Y-9.187
X19.374Y-9.687
X19.374Y-10.187
X19.374Y-11.087
X19.415Y-11.2895
X19.474Y-10.737
X19.572Y-11.201
X19.674Y-11.087
X19.774Y-8.437
X19.774Y-10.437
X19.806Y-11.082
X19.824Y-11.237
X19.874Y-8.187
X19.874Y-8.687
X19.874Y-9.687
X19.874Y-10.887
X19.995Y-8.6695
X20.001Y-8.6015
X20.001Y-8.9895
X20.024Y-9.487
X20.024Y-9.787
X20.024Y-10.087
X20.024Y-10.387
X20.024Y-10.687
X20.024Y-11.037
X20.034Y-8.407
X20.035Y-9.2855
X20.039Y-10.855
X20.045Y-8.6595
X20.047Y-8.6895
X20.085Y-9.0455
X20.099Y-9.3495
X20.104Y-9.177
X20.124Y-9.487
X20.124Y-9.737
X20.124Y-9.987
X20.124Y-10.287
X20.129Y-8.217
X20.13Y-10.582
X20.135Y-8.9875
X20.164Y-9.177
X20.167Y-9.3495
X20.185Y-9.0455
X20.221Y-8.6915
X20.223Y-8.6615
X20.224Y-9.487
X20.224Y-9.787
X20.224Y-10.087
X20.224Y-10.387
X20.224Y-10.687
X20.231Y-9.2875
X20.239Y-8.107
X20.244Y-8.407
X20.269Y-8.6015
X20.271Y-8.9855
X20.275Y-8.6635
X20.284Y-8.302
X20.3435Y-8.257
X20.3435Y-8.307
X20.419Y-8.052
X20.419Y-8.142
X20.487Y-10.5715
X20.495Y-9.0515
X20.509Y-11.5065
X20.525Y-9.2115
X20.577Y-11.5315
X20.605Y-11.0815
X20.699Y-9.1235
X20.7429Y-8.539
X20.7469Y-8.095
X20.7909Y-8.209
X20.7909Y-8.435
X20.799Y-10.6388
X20.805Y-9.7815
X20.805Y-10.2815
X20.835Y-9.1915
X20.8529Y-8.093
X20.8569Y-8.539
X20.8609Y-8.339
X20.875Y-9.0235
X20.9129Y-8.435
X20.9169Y-8.209
X20.955Y-9.5015
X20.955Y-9.5715
X20.9569Y-8.093
X20.9689Y-8.539
X21.005Y-11.4815
X21.015Y-9.0815
X21.029Y-10.627
X21.064Y-9.0805
X21.231Y-9.5175
X21.253Y-8.8115
X21.275Y-9.1915
X21.2764Y-10.6388
X21.304Y-8.507
X21.305Y-9.7815
X21.305Y-10.2815
X21.3103Y-8.4633
X21.314Y-8.427
X21.344Y-8.127
X21.365Y-9.5715
X21.415Y-9.1415
X21.527Y-8.6335
X21.624Y-8.187
X21.745Y-8.5815
X21.805Y-9.7815
X21.805Y-10.2815
X21.805Y-10.7815
X21.805Y-11.0815
X21.805Y-11.4815
X21.855Y-8.9615
T2
X15.839Y-8.534
X15.839Y-8.934
X15.939Y-8.534
X15.939Y-8.934
X16.039Y-8.534
X16.039Y-8.934
X16.139Y-8.534
X16.139Y-8.934
X16.239Y-8.534
X16.239Y-8.934
X16.339Y-8.534
X16.339Y-8.934
X16.439Y-8.534
X16.439Y-8.934
X16.539Y-8.534
X16.539Y-8.934
X17.459Y-8.534
X17.459Y-8.934
X17.559Y-8.534
X17.559Y-8.934
X17.659Y-8.534
X17.659Y-8.934
X17.759Y-8.534
X17.759Y-8.934
X17.859Y-8.534
X17.859Y-8.934
X17.959Y-8.534
X17.959Y-8.934
X18.059Y-8.534
X18.059Y-8.934
X18.159Y-8.534
X18.159Y-8.934
T3
X16.9322Y-11.3605
X16.9322Y-11.4392
T4
X15.583Y-9.059
X15.583Y-9.159
X15.583Y-9.259
X15.583Y-9.359
X15.583Y-9.459
X15.583Y-9.559
X15.583Y-9.659
X15.583Y-9.759
X15.583Y-9.859
X15.583Y-9.959
X15.879Y-9.059
X15.879Y-9.159
X15.879Y-9.259
X15.879Y-9.359
X15.879Y-9.459
X15.879Y-9.559
X15.879Y-9.659
X15.879Y-9.759
X15.879Y-9.859
X15.879Y-9.959
X16.0081Y-9.059
X16.0081Y-9.159
X16.0081Y-9.259
X16.0081Y-9.359
X16.0081Y-9.459
X16.0081Y-9.559
X16.0081Y-9.659
X16.0081Y-9.759
X16.0081Y-9.859
X16.0081Y-9.959
X16.3041Y-9.059
X16.3041Y-9.159
X16.3041Y-9.259
X16.3041Y-9.359
X16.3041Y-9.459
X16.3041Y-9.559
X16.3041Y-9.659
X16.3041Y-9.759
X16.3041Y-9.859
X16.3041Y-9.959
X16.4281Y-9.059
X16.4281Y-9.159
X16.4281Y-9.259
X16.4281Y-9.359
X16.4281Y-9.459
X16.4281Y-9.559
X16.4281Y-9.659
X16.4281Y-9.759
X16.4281Y-9.859
X16.4281Y-9.959
X16.7241Y-9.059
X16.7241Y-9.159
X16.7241Y-9.259
X16.7241Y-9.359
X16.7241Y-9.459
X16.7241Y-9.559
X16.7241Y-9.659
X16.7241Y-9.759
X16.7241Y-9.859
X16.7241Y-9.959
X16.853Y-9.059
X16.853Y-9.159
X16.853Y-9.259
X16.853Y-9.359
X16.853Y-9.459
X16.853Y-9.559
X16.853Y-9.659
X16.853Y-9.759
X16.853Y-9.859
X16.853Y-9.959
X17.149Y-9.059
X17.149Y-9.159
X17.149Y-9.259
X17.149Y-9.359
X17.149Y-9.459
X17.149Y-9.559
X17.149Y-9.659
X17.149Y-9.759
X17.149Y-9.859
X17.149Y-9.959
X17.273Y-9.059
X17.273Y-9.159
X17.273Y-9.259
X17.273Y-9.359
X17.273Y-9.459
X17.273Y-9.559
X17.273Y-9.659
X17.273Y-9.759
X17.273Y-9.859
X17.273Y-9.959
X17.569Y-9.059
X17.569Y-9.159
X17.569Y-9.259
X17.569Y-9.359
X17.569Y-9.459
X17.569Y-9.559
X17.569Y-9.659
X17.569Y-9.759
X17.569Y-9.859
X17.569Y-9.959
X17.693Y-9.059
X17.693Y-9.159
X17.693Y-9.259
X17.693Y-9.359
X17.693Y-9.459
X17.693Y-9.559
X17.693Y-9.659
X17.693Y-9.759
X17.693Y-9.859
X17.693Y-9.959
X17.989Y-9.059
X17.989Y-9.159
X17.989Y-9.259
X17.989Y-9.359
X17.989Y-9.459
X17.989Y-9.559
X17.989Y-9.659
X17.989Y-9.759
X17.989Y-9.859
X17.989Y-9.959
X18.113Y-9.059
X18.113Y-9.159
X18.113Y-9.259
X18.113Y-9.359
X18.113Y-9.459
X18.113Y-9.559
X18.113Y-9.659
X18.113Y-9.759
X18.113Y-9.859
X18.113Y-9.959
X18.409Y-9.059
X18.409Y-9.159
X18.409Y-9.259
X18.409Y-9.359
X18.409Y-9.459
X18.409Y-9.559
X18.409Y-9.659
X18.409Y-9.759
X18.409Y-9.859
X18.409Y-9.959
T5
X12.655Y-8.439
X12.655Y-8.511
X15.389Y-10.158
X15.389Y-10.23
X15.75Y-10.158
X15.75Y-10.23
X16.109Y-10.158
X16.109Y-10.23
X16.47Y-10.158
X16.47Y-10.23
X16.83Y-10.158
X16.83Y-10.23
X17.19Y-10.158
X17.19Y-10.23
X17.5495Y-10.1585
X17.5495Y-10.2305
X17.909Y-10.158
X17.909Y-10.23
X18.269Y-10.158
X18.269Y-10.23
X18.63Y-10.158
X18.63Y-10.23
T6
X12.3012Y-8.6656
X12.4012Y-8.6656
X12.5012Y-8.6656
T7
X17.265Y-11.3618
X17.265Y-11.4618
X17.365Y-11.3618
X17.365Y-11.4618
X17.465Y-11.3618
X17.465Y-11.4618
X17.565Y-11.3618
X17.565Y-11.4618
X17.665Y-11.3618
X17.665Y-11.4618
X17.765Y-11.3618
X17.765Y-11.4618
X17.865Y-11.3618
X17.865Y-11.4618
X17.965Y-11.3618
X17.965Y-11.4618
X18.065Y-11.3618
X18.065Y-11.4618
X18.165Y-11.3618
X18.165Y-11.4618
X18.265Y-11.3618
X18.265Y-11.4618
X18.365Y-11.3618
X18.365Y-11.4618
X18.465Y-11.3618
X18.465Y-11.4618
X18.565Y-11.3618
X18.565Y-11.4618
X18.665Y-11.3618
X18.665Y-11.4618
X18.765Y-11.3618
X18.765Y-11.4618
X18.865Y-11.3618
X18.865Y-11.4618
X18.965Y-11.3618
X18.965Y-11.4618
X19.065Y-11.3618
X19.065Y-11.4618
X19.165Y-11.3618
X19.165Y-11.4618
X20.7067Y-9.3115
X20.8067Y-9.3115
X20.9067Y-9.3115
X21.0067Y-9.3115
X21.1067Y-9.3115
X21.2067Y-9.3115
T8
X12.8055Y-10.4024
X12.9039Y-9.7134
X13.0024Y-10.4024
X13.1008Y-9.7134
X13.1992Y-10.4024
X20.7982Y-10.4022
X20.8966Y-9.7132
X20.995Y-10.4022
X21.0934Y-9.7132
X21.1919Y-10.4022
T9
X12.711Y-9.989
X13.2937Y-9.989
X20.7037Y-9.9888
X21.2864Y-9.9888
T10
X14.875Y-11.1355
X21.555Y-11.1345
M30
